%TF.GenerationSoftware,KiCad,Pcbnew,8.0.6*%
%TF.CreationDate,2025-01-06T00:07:23+08:00*%
%TF.ProjectId,ECP5_DEV_BOARD,45435035-5f44-4455-965f-424f4152442e,rev?*%
%TF.SameCoordinates,Original*%
%TF.FileFunction,Soldermask,Top*%
%TF.FilePolarity,Negative*%
%FSLAX46Y46*%
G04 Gerber Fmt 4.6, Leading zero omitted, Abs format (unit mm)*
G04 Created by KiCad (PCBNEW 8.0.6) date 2025-01-06 00:07:23*
%MOMM*%
%LPD*%
G01*
G04 APERTURE LIST*
G04 Aperture macros list*
%AMRoundRect*
0 Rectangle with rounded corners*
0 $1 Rounding radius*
0 $2 $3 $4 $5 $6 $7 $8 $9 X,Y pos of 4 corners*
0 Add a 4 corners polygon primitive as box body*
4,1,4,$2,$3,$4,$5,$6,$7,$8,$9,$2,$3,0*
0 Add four circle primitives for the rounded corners*
1,1,$1+$1,$2,$3*
1,1,$1+$1,$4,$5*
1,1,$1+$1,$6,$7*
1,1,$1+$1,$8,$9*
0 Add four rect primitives between the rounded corners*
20,1,$1+$1,$2,$3,$4,$5,0*
20,1,$1+$1,$4,$5,$6,$7,0*
20,1,$1+$1,$6,$7,$8,$9,0*
20,1,$1+$1,$8,$9,$2,$3,0*%
G04 Aperture macros list end*
%ADD10C,0.010000*%
%ADD11RoundRect,0.237500X-0.250000X-0.237500X0.250000X-0.237500X0.250000X0.237500X-0.250000X0.237500X0*%
%ADD12RoundRect,0.250000X-0.250000X-0.475000X0.250000X-0.475000X0.250000X0.475000X-0.250000X0.475000X0*%
%ADD13RoundRect,0.225000X0.250000X-0.225000X0.250000X0.225000X-0.250000X0.225000X-0.250000X-0.225000X0*%
%ADD14RoundRect,0.225000X-0.250000X0.225000X-0.250000X-0.225000X0.250000X-0.225000X0.250000X0.225000X0*%
%ADD15R,0.850000X2.000000*%
%ADD16RoundRect,0.200000X0.275000X-0.200000X0.275000X0.200000X-0.275000X0.200000X-0.275000X-0.200000X0*%
%ADD17RoundRect,0.135000X-0.135000X-0.185000X0.135000X-0.185000X0.135000X0.185000X-0.135000X0.185000X0*%
%ADD18RoundRect,0.200000X-0.275000X0.200000X-0.275000X-0.200000X0.275000X-0.200000X0.275000X0.200000X0*%
%ADD19RoundRect,0.225000X-0.225000X-0.250000X0.225000X-0.250000X0.225000X0.250000X-0.225000X0.250000X0*%
%ADD20RoundRect,0.237500X0.250000X0.237500X-0.250000X0.237500X-0.250000X-0.237500X0.250000X-0.237500X0*%
%ADD21RoundRect,0.075000X-0.662500X-0.075000X0.662500X-0.075000X0.662500X0.075000X-0.662500X0.075000X0*%
%ADD22RoundRect,0.075000X-0.075000X-0.662500X0.075000X-0.662500X0.075000X0.662500X-0.075000X0.662500X0*%
%ADD23RoundRect,0.200000X0.200000X0.275000X-0.200000X0.275000X-0.200000X-0.275000X0.200000X-0.275000X0*%
%ADD24RoundRect,0.237500X0.237500X-0.287500X0.237500X0.287500X-0.237500X0.287500X-0.237500X-0.287500X0*%
%ADD25C,0.400000*%
%ADD26RoundRect,0.135000X-0.185000X0.135000X-0.185000X-0.135000X0.185000X-0.135000X0.185000X0.135000X0*%
%ADD27C,0.470000*%
%ADD28RoundRect,0.135000X0.135000X0.185000X-0.135000X0.185000X-0.135000X-0.185000X0.135000X-0.185000X0*%
%ADD29RoundRect,0.218750X-0.218750X-0.256250X0.218750X-0.256250X0.218750X0.256250X-0.218750X0.256250X0*%
%ADD30RoundRect,0.225000X0.225000X0.250000X-0.225000X0.250000X-0.225000X-0.250000X0.225000X-0.250000X0*%
%ADD31C,0.650000*%
%ADD32R,1.240000X0.600000*%
%ADD33R,1.240000X0.300000*%
%ADD34O,2.100000X1.000000*%
%ADD35O,1.800000X1.000000*%
%ADD36RoundRect,0.200000X-0.200000X-0.275000X0.200000X-0.275000X0.200000X0.275000X-0.200000X0.275000X0*%
%ADD37RoundRect,0.062500X-0.375000X-0.062500X0.375000X-0.062500X0.375000X0.062500X-0.375000X0.062500X0*%
%ADD38RoundRect,0.062500X-0.062500X-0.375000X0.062500X-0.375000X0.062500X0.375000X-0.062500X0.375000X0*%
%ADD39R,2.500000X2.500000*%
%ADD40RoundRect,0.150000X-0.650000X-0.150000X0.650000X-0.150000X0.650000X0.150000X-0.650000X0.150000X0*%
%ADD41R,1.700000X1.700000*%
%ADD42O,1.700000X1.700000*%
%ADD43R,0.300000X1.100000*%
%ADD44R,2.300000X3.100000*%
%ADD45RoundRect,0.150000X-0.512500X-0.150000X0.512500X-0.150000X0.512500X0.150000X-0.512500X0.150000X0*%
%ADD46RoundRect,0.140000X0.140000X0.170000X-0.140000X0.170000X-0.140000X-0.170000X0.140000X-0.170000X0*%
%ADD47R,1.300000X1.100000*%
%ADD48RoundRect,0.237500X0.237500X-0.250000X0.237500X0.250000X-0.237500X0.250000X-0.237500X-0.250000X0*%
%ADD49R,1.200000X1.400000*%
%ADD50RoundRect,0.140000X-0.140000X-0.170000X0.140000X-0.170000X0.140000X0.170000X-0.140000X0.170000X0*%
%ADD51C,0.830000*%
%ADD52C,1.230000*%
G04 APERTURE END LIST*
D10*
%TO.C,U9*%
X146670000Y-126440000D02*
X145930000Y-126440000D01*
X145930000Y-126060000D01*
X146670000Y-126060000D01*
X146670000Y-126440000D01*
G36*
X146670000Y-126440000D02*
G01*
X145930000Y-126440000D01*
X145930000Y-126060000D01*
X146670000Y-126060000D01*
X146670000Y-126440000D01*
G37*
X146670000Y-126940000D02*
X145930000Y-126940000D01*
X145930000Y-126560000D01*
X146670000Y-126560000D01*
X146670000Y-126940000D01*
G36*
X146670000Y-126940000D02*
G01*
X145930000Y-126940000D01*
X145930000Y-126560000D01*
X146670000Y-126560000D01*
X146670000Y-126940000D01*
G37*
X146670000Y-127440000D02*
X145930000Y-127440000D01*
X145930000Y-127060000D01*
X146670000Y-127060000D01*
X146670000Y-127440000D01*
G36*
X146670000Y-127440000D02*
G01*
X145930000Y-127440000D01*
X145930000Y-127060000D01*
X146670000Y-127060000D01*
X146670000Y-127440000D01*
G37*
X146670000Y-127940000D02*
X145930000Y-127940000D01*
X145930000Y-127560000D01*
X146670000Y-127560000D01*
X146670000Y-127940000D01*
G36*
X146670000Y-127940000D02*
G01*
X145930000Y-127940000D01*
X145930000Y-127560000D01*
X146670000Y-127560000D01*
X146670000Y-127940000D01*
G37*
X146670000Y-128440000D02*
X145930000Y-128440000D01*
X145930000Y-128060000D01*
X146670000Y-128060000D01*
X146670000Y-128440000D01*
G36*
X146670000Y-128440000D02*
G01*
X145930000Y-128440000D01*
X145930000Y-128060000D01*
X146670000Y-128060000D01*
X146670000Y-128440000D01*
G37*
X149470000Y-126440000D02*
X148730000Y-126440000D01*
X148730000Y-126060000D01*
X149470000Y-126060000D01*
X149470000Y-126440000D01*
G36*
X149470000Y-126440000D02*
G01*
X148730000Y-126440000D01*
X148730000Y-126060000D01*
X149470000Y-126060000D01*
X149470000Y-126440000D01*
G37*
X149470000Y-126940000D02*
X148730000Y-126940000D01*
X148730000Y-126560000D01*
X149470000Y-126560000D01*
X149470000Y-126940000D01*
G36*
X149470000Y-126940000D02*
G01*
X148730000Y-126940000D01*
X148730000Y-126560000D01*
X149470000Y-126560000D01*
X149470000Y-126940000D01*
G37*
X149470000Y-127440000D02*
X148730000Y-127440000D01*
X148730000Y-127060000D01*
X149470000Y-127060000D01*
X149470000Y-127440000D01*
G36*
X149470000Y-127440000D02*
G01*
X148730000Y-127440000D01*
X148730000Y-127060000D01*
X149470000Y-127060000D01*
X149470000Y-127440000D01*
G37*
X149470000Y-127940000D02*
X148730000Y-127940000D01*
X148730000Y-127560000D01*
X149470000Y-127560000D01*
X149470000Y-127940000D01*
G36*
X149470000Y-127940000D02*
G01*
X148730000Y-127940000D01*
X148730000Y-127560000D01*
X149470000Y-127560000D01*
X149470000Y-127940000D01*
G37*
X149470000Y-128440000D02*
X148730000Y-128440000D01*
X148730000Y-128060000D01*
X149470000Y-128060000D01*
X149470000Y-128440000D01*
G36*
X149470000Y-128440000D02*
G01*
X148730000Y-128440000D01*
X148730000Y-128060000D01*
X149470000Y-128060000D01*
X149470000Y-128440000D01*
G37*
X147645000Y-125980000D02*
X147755000Y-125980000D01*
X147755000Y-125480000D01*
X148145000Y-125480000D01*
X148145000Y-125980000D01*
X148595000Y-125980000D01*
X148595000Y-128520000D01*
X148145000Y-128520000D01*
X148145000Y-129020000D01*
X147755000Y-129020000D01*
X147755000Y-128520000D01*
X147645000Y-128520000D01*
X147645000Y-129020000D01*
X147255000Y-129020000D01*
X147255000Y-128520000D01*
X146805000Y-128520000D01*
X146805000Y-125980000D01*
X147255000Y-125980000D01*
X147255000Y-125480000D01*
X147645000Y-125480000D01*
X147645000Y-125980000D01*
G36*
X147645000Y-125980000D02*
G01*
X147755000Y-125980000D01*
X147755000Y-125480000D01*
X148145000Y-125480000D01*
X148145000Y-125980000D01*
X148595000Y-125980000D01*
X148595000Y-128520000D01*
X148145000Y-128520000D01*
X148145000Y-129020000D01*
X147755000Y-129020000D01*
X147755000Y-128520000D01*
X147645000Y-128520000D01*
X147645000Y-129020000D01*
X147255000Y-129020000D01*
X147255000Y-128520000D01*
X146805000Y-128520000D01*
X146805000Y-125980000D01*
X147255000Y-125980000D01*
X147255000Y-125480000D01*
X147645000Y-125480000D01*
X147645000Y-125980000D01*
G37*
%TD*%
D11*
%TO.C,R47*%
X134097500Y-136747500D03*
X135922500Y-136747500D03*
%TD*%
D12*
%TO.C,C26*%
X126112500Y-70275000D03*
X128012500Y-70275000D03*
%TD*%
D13*
%TO.C,C22*%
X141450000Y-81375000D03*
X141450000Y-79825000D03*
%TD*%
D14*
%TO.C,C24*%
X141612500Y-71600000D03*
X141612500Y-73150000D03*
%TD*%
%TO.C,C30*%
X133312500Y-70000000D03*
X133312500Y-71550000D03*
%TD*%
D15*
%TO.C,L2*%
X129687500Y-82600000D03*
X131337500Y-82600000D03*
%TD*%
D16*
%TO.C,R40*%
X143112500Y-73200000D03*
X143112500Y-71550000D03*
%TD*%
D17*
%TO.C,R14*%
X150890000Y-119000000D03*
X151910000Y-119000000D03*
%TD*%
D18*
%TO.C,R41*%
X128012500Y-72050000D03*
X128012500Y-73700000D03*
%TD*%
D14*
%TO.C,C21*%
X142200000Y-126325000D03*
X142200000Y-127875000D03*
%TD*%
D19*
%TO.C,C3*%
X122750000Y-117700000D03*
X124300000Y-117700000D03*
%TD*%
D20*
%TO.C,R48*%
X123022500Y-135147500D03*
X121197500Y-135147500D03*
%TD*%
D21*
%TO.C,U11*%
X106475000Y-78500001D03*
X106475000Y-79000001D03*
X106475000Y-79500001D03*
X106475000Y-80000002D03*
X106475000Y-80500001D03*
X106475000Y-81000001D03*
X106475000Y-81500001D03*
X106475000Y-82000001D03*
X106475000Y-82500000D03*
X106475000Y-83000001D03*
X106475000Y-83500001D03*
X106475000Y-84000001D03*
D22*
X107887500Y-85412501D03*
X108387500Y-85412501D03*
X108887500Y-85412501D03*
X109387501Y-85412501D03*
X109887500Y-85412501D03*
X110387500Y-85412501D03*
X110887500Y-85412501D03*
X111387500Y-85412501D03*
X111887499Y-85412501D03*
X112387500Y-85412501D03*
X112887500Y-85412501D03*
X113387500Y-85412501D03*
D21*
X114800000Y-84000001D03*
X114800000Y-83500001D03*
X114800000Y-83000001D03*
X114800000Y-82500000D03*
X114800000Y-82000001D03*
X114800000Y-81500001D03*
X114800000Y-81000001D03*
X114800000Y-80500001D03*
X114800000Y-80000002D03*
X114800000Y-79500001D03*
X114800000Y-79000001D03*
X114800000Y-78500001D03*
D22*
X113387500Y-77087501D03*
X112887500Y-77087501D03*
X112387500Y-77087501D03*
X111887499Y-77087501D03*
X111387500Y-77087501D03*
X110887500Y-77087501D03*
X110387500Y-77087501D03*
X109887500Y-77087501D03*
X109387501Y-77087501D03*
X108887500Y-77087501D03*
X108387500Y-77087501D03*
X107887500Y-77087501D03*
%TD*%
D13*
%TO.C,C33*%
X133300000Y-83900000D03*
X133300000Y-82350000D03*
%TD*%
D23*
%TO.C,R60*%
X118225000Y-79500000D03*
X116575000Y-79500000D03*
%TD*%
D14*
%TO.C,C43*%
X151300000Y-125150000D03*
X151300000Y-126700000D03*
%TD*%
D24*
%TO.C,D1*%
X158935000Y-136650000D03*
X158935000Y-134900000D03*
%TD*%
D16*
%TO.C,R42*%
X125012500Y-73700000D03*
X125012500Y-72050000D03*
%TD*%
D12*
%TO.C,C44*%
X106550000Y-90900000D03*
X108450000Y-90900000D03*
%TD*%
D25*
%TO.C,U1*%
X136000000Y-102000000D03*
X136000000Y-101200000D03*
X136000000Y-100400000D03*
X136000000Y-97200000D03*
X136000000Y-96400000D03*
X136000000Y-95600000D03*
X136800000Y-102000000D03*
X136800000Y-101200000D03*
X136800000Y-100400000D03*
X136800000Y-97200000D03*
X136800000Y-96400000D03*
X136800000Y-95600000D03*
X137600000Y-102000000D03*
X137600000Y-101200000D03*
X137600000Y-100400000D03*
X137600000Y-97200000D03*
X137600000Y-96400000D03*
X137600000Y-95600000D03*
X138400000Y-102000000D03*
X138400000Y-101200000D03*
X138400000Y-100400000D03*
X138400000Y-97200000D03*
X138400000Y-96400000D03*
X138400000Y-95600000D03*
X139200000Y-102000000D03*
X139200000Y-101200000D03*
X139200000Y-100400000D03*
X139200000Y-97200000D03*
X139200000Y-96400000D03*
X139200000Y-95600000D03*
X140000000Y-102000000D03*
X140000000Y-101200000D03*
X140000000Y-100400000D03*
X140000000Y-97200000D03*
X140000000Y-96400000D03*
X140000000Y-95600000D03*
X140800000Y-102000000D03*
X140800000Y-101200000D03*
X140800000Y-100400000D03*
X140800000Y-97200000D03*
X140800000Y-96400000D03*
X140800000Y-95600000D03*
X141600000Y-102000000D03*
X141600000Y-101200000D03*
X141600000Y-100400000D03*
X141600000Y-97200000D03*
X141600000Y-96400000D03*
X141600000Y-95600000D03*
X142400000Y-102000000D03*
X142400000Y-101200000D03*
X142400000Y-100400000D03*
X142400000Y-97200000D03*
X142400000Y-96400000D03*
X142400000Y-95600000D03*
X143200000Y-102000000D03*
X143200000Y-101200000D03*
X143200000Y-100400000D03*
X143200000Y-97200000D03*
X143200000Y-96400000D03*
X143200000Y-95600000D03*
X144000000Y-102000000D03*
X144000000Y-101200000D03*
X144000000Y-100400000D03*
X144000000Y-97200000D03*
X144000000Y-96400000D03*
X144000000Y-95600000D03*
X144800000Y-102000000D03*
X144800000Y-101200000D03*
X144800000Y-100400000D03*
X144800000Y-97200000D03*
X144800000Y-96400000D03*
X144800000Y-95600000D03*
X145600000Y-102000000D03*
X145600000Y-101200000D03*
X145600000Y-100400000D03*
X145600000Y-97200000D03*
X145600000Y-96400000D03*
X145600000Y-95600000D03*
X146400000Y-102000000D03*
X146400000Y-101200000D03*
X146400000Y-100400000D03*
X146400000Y-97200000D03*
X146400000Y-96400000D03*
X146400000Y-95600000D03*
X147200000Y-102000000D03*
X147200000Y-101200000D03*
X147200000Y-100400000D03*
X147200000Y-97200000D03*
X147200000Y-96400000D03*
X147200000Y-95600000D03*
X148000000Y-102000000D03*
X148000000Y-101200000D03*
X148000000Y-100400000D03*
X148000000Y-97200000D03*
X148000000Y-96400000D03*
X148000000Y-95600000D03*
%TD*%
D26*
%TO.C,R43*%
X122690000Y-123980000D03*
X122690000Y-125000000D03*
%TD*%
D19*
%TO.C,C4*%
X125775000Y-117700000D03*
X127325000Y-117700000D03*
%TD*%
D23*
%TO.C,R65*%
X107625000Y-73650000D03*
X105975000Y-73650000D03*
%TD*%
D17*
%TO.C,R22*%
X150890000Y-115000000D03*
X151910000Y-115000000D03*
%TD*%
D11*
%TO.C,R51*%
X134097500Y-135247500D03*
X135922500Y-135247500D03*
%TD*%
D14*
%TO.C,C31*%
X134812500Y-70000000D03*
X134812500Y-71550000D03*
%TD*%
D27*
%TO.C,U3*%
X111300000Y-96900000D03*
X112100000Y-96900000D03*
X112900000Y-96900000D03*
X113700000Y-96900000D03*
X114500000Y-96900000D03*
X115300000Y-96900000D03*
X116100000Y-96900000D03*
X116900000Y-96900000D03*
X117700000Y-96900000D03*
X118500000Y-96900000D03*
X119300000Y-96900000D03*
X120100000Y-96900000D03*
X120900000Y-96900000D03*
X121700000Y-96900000D03*
X122500000Y-96900000D03*
X123300000Y-96900000D03*
X111300000Y-97700000D03*
X112100000Y-97700000D03*
X112900000Y-97700000D03*
X113700000Y-97700000D03*
X114500000Y-97700000D03*
X115300000Y-97700000D03*
X116100000Y-97700000D03*
X116900000Y-97700000D03*
X117700000Y-97700000D03*
X118500000Y-97700000D03*
X119300000Y-97700000D03*
X120100000Y-97700000D03*
X120900000Y-97700000D03*
X121700000Y-97700000D03*
X122500000Y-97700000D03*
X123300000Y-97700000D03*
X111300000Y-98500000D03*
X112100000Y-98500000D03*
X112900000Y-98500000D03*
X113700000Y-98500000D03*
X114500000Y-98500000D03*
X115300000Y-98500000D03*
X116100000Y-98500000D03*
X116900000Y-98500000D03*
X117700000Y-98500000D03*
X118500000Y-98500000D03*
X119300000Y-98500000D03*
X120100000Y-98500000D03*
X120900000Y-98500000D03*
X121700000Y-98500000D03*
X122500000Y-98500000D03*
X123300000Y-98500000D03*
X111300000Y-99300000D03*
X112100000Y-99300000D03*
X112900000Y-99300000D03*
X113700000Y-99300000D03*
X114500000Y-99300000D03*
X115300000Y-99300000D03*
X116100000Y-99300000D03*
X116900000Y-99300000D03*
X117700000Y-99300000D03*
X118500000Y-99300000D03*
X119300000Y-99300000D03*
X120100000Y-99300000D03*
X120900000Y-99300000D03*
X121700000Y-99300000D03*
X122500000Y-99300000D03*
X123300000Y-99300000D03*
X111300000Y-100100000D03*
X112100000Y-100100000D03*
X112900000Y-100100000D03*
X113700000Y-100100000D03*
X114500000Y-100100000D03*
X115300000Y-100100000D03*
X116100000Y-100100000D03*
X116900000Y-100100000D03*
X117700000Y-100100000D03*
X118500000Y-100100000D03*
X119300000Y-100100000D03*
X120100000Y-100100000D03*
X120900000Y-100100000D03*
X121700000Y-100100000D03*
X122500000Y-100100000D03*
X123300000Y-100100000D03*
X111300000Y-100900000D03*
X112100000Y-100900000D03*
X112900000Y-100900000D03*
X113700000Y-100900000D03*
X114500000Y-100900000D03*
X115300000Y-100900000D03*
X116100000Y-100900000D03*
X116900000Y-100900000D03*
X117700000Y-100900000D03*
X118500000Y-100900000D03*
X119300000Y-100900000D03*
X120100000Y-100900000D03*
X120900000Y-100900000D03*
X121700000Y-100900000D03*
X122500000Y-100900000D03*
X123300000Y-100900000D03*
X111300000Y-101700000D03*
X112100000Y-101700000D03*
X112900000Y-101700000D03*
X113700000Y-101700000D03*
X114500000Y-101700000D03*
X115300000Y-101700000D03*
X116100000Y-101700000D03*
X116900000Y-101700000D03*
X117700000Y-101700000D03*
X118500000Y-101700000D03*
X119300000Y-101700000D03*
X120100000Y-101700000D03*
X120900000Y-101700000D03*
X121700000Y-101700000D03*
X122500000Y-101700000D03*
X123300000Y-101700000D03*
X111300000Y-102500000D03*
X112100000Y-102500000D03*
X112900000Y-102500000D03*
X113700000Y-102500000D03*
X114500000Y-102500000D03*
X115300000Y-102500000D03*
X116100000Y-102500000D03*
X116900000Y-102500000D03*
X117700000Y-102500000D03*
X118500000Y-102500000D03*
X119300000Y-102500000D03*
X120100000Y-102500000D03*
X120900000Y-102500000D03*
X121700000Y-102500000D03*
X122500000Y-102500000D03*
X123300000Y-102500000D03*
X111300000Y-103300000D03*
X112100000Y-103300000D03*
X112900000Y-103300000D03*
X113700000Y-103300000D03*
X114500000Y-103300000D03*
X115300000Y-103300000D03*
X116100000Y-103300000D03*
X116900000Y-103300000D03*
X117700000Y-103300000D03*
X118500000Y-103300000D03*
X119300000Y-103300000D03*
X120100000Y-103300000D03*
X120900000Y-103300000D03*
X121700000Y-103300000D03*
X122500000Y-103300000D03*
X123300000Y-103300000D03*
X111300000Y-104100000D03*
X112100000Y-104100000D03*
X112900000Y-104100000D03*
X113700000Y-104100000D03*
X114500000Y-104100000D03*
X115300000Y-104100000D03*
X116100000Y-104100000D03*
X116900000Y-104100000D03*
X117700000Y-104100000D03*
X118500000Y-104100000D03*
X119300000Y-104100000D03*
X120100000Y-104100000D03*
X120900000Y-104100000D03*
X121700000Y-104100000D03*
X122500000Y-104100000D03*
X123300000Y-104100000D03*
X111300000Y-104900000D03*
X112100000Y-104900000D03*
X112900000Y-104900000D03*
X113700000Y-104900000D03*
X114500000Y-104900000D03*
X115300000Y-104900000D03*
X116100000Y-104900000D03*
X116900000Y-104900000D03*
X117700000Y-104900000D03*
X118500000Y-104900000D03*
X119300000Y-104900000D03*
X120100000Y-104900000D03*
X120900000Y-104900000D03*
X121700000Y-104900000D03*
X122500000Y-104900000D03*
X123300000Y-104900000D03*
X111300000Y-105700000D03*
X112100000Y-105700000D03*
X112900000Y-105700000D03*
X113700000Y-105700000D03*
X114500000Y-105700000D03*
X115300000Y-105700000D03*
X116100000Y-105700000D03*
X116900000Y-105700000D03*
X117700000Y-105700000D03*
X118500000Y-105700000D03*
X119300000Y-105700000D03*
X120100000Y-105700000D03*
X120900000Y-105700000D03*
X121700000Y-105700000D03*
X122500000Y-105700000D03*
X123300000Y-105700000D03*
X111300000Y-106500000D03*
X112100000Y-106500000D03*
X112900000Y-106500000D03*
X113700000Y-106500000D03*
X114500000Y-106500000D03*
X115300000Y-106500000D03*
X116100000Y-106500000D03*
X116900000Y-106500000D03*
X117700000Y-106500000D03*
X118500000Y-106500000D03*
X119300000Y-106500000D03*
X120100000Y-106500000D03*
X120900000Y-106500000D03*
X121700000Y-106500000D03*
X122500000Y-106500000D03*
X123300000Y-106500000D03*
X111300000Y-107300000D03*
X112100000Y-107300000D03*
X112900000Y-107300000D03*
X113700000Y-107300000D03*
X114500000Y-107300000D03*
X115300000Y-107300000D03*
X116100000Y-107300000D03*
X116900000Y-107300000D03*
X117700000Y-107300000D03*
X118500000Y-107300000D03*
X119300000Y-107300000D03*
X120100000Y-107300000D03*
X120900000Y-107300000D03*
X121700000Y-107300000D03*
X122500000Y-107300000D03*
X123300000Y-107300000D03*
X111300000Y-108100000D03*
X112100000Y-108100000D03*
X112900000Y-108100000D03*
X113700000Y-108100000D03*
X114500000Y-108100000D03*
X115300000Y-108100000D03*
X116100000Y-108100000D03*
X116900000Y-108100000D03*
X117700000Y-108100000D03*
X118500000Y-108100000D03*
X119300000Y-108100000D03*
X120100000Y-108100000D03*
X120900000Y-108100000D03*
X121700000Y-108100000D03*
X122500000Y-108100000D03*
X123300000Y-108100000D03*
X111300000Y-108900000D03*
X112100000Y-108900000D03*
X112900000Y-108900000D03*
X113700000Y-108900000D03*
X114500000Y-108900000D03*
X115300000Y-108900000D03*
X116100000Y-108900000D03*
X116900000Y-108900000D03*
X117700000Y-108900000D03*
X118500000Y-108900000D03*
X119300000Y-108900000D03*
X120100000Y-108900000D03*
X120900000Y-108900000D03*
X121700000Y-108900000D03*
X122500000Y-108900000D03*
X123300000Y-108900000D03*
%TD*%
D26*
%TO.C,R10*%
X146900000Y-119400000D03*
X146900000Y-120420000D03*
%TD*%
D15*
%TO.C,L1*%
X138375000Y-82700000D03*
X136725000Y-82700000D03*
%TD*%
D28*
%TO.C,R34*%
X150010000Y-119500000D03*
X148990000Y-119500000D03*
%TD*%
D11*
%TO.C,R52*%
X134097500Y-133747500D03*
X135922500Y-133747500D03*
%TD*%
D26*
%TO.C,R23*%
X145900000Y-119400000D03*
X145900000Y-120420000D03*
%TD*%
D29*
%TO.C,D2*%
X151312500Y-128200000D03*
X152887500Y-128200000D03*
%TD*%
D16*
%TO.C,R37*%
X139950000Y-81425000D03*
X139950000Y-79775000D03*
%TD*%
D12*
%TO.C,C27*%
X140162500Y-69875000D03*
X142062500Y-69875000D03*
%TD*%
D30*
%TO.C,C52*%
X102625000Y-81300000D03*
X101075000Y-81300000D03*
%TD*%
D12*
%TO.C,C29*%
X126262500Y-83500000D03*
X128162500Y-83500000D03*
%TD*%
D31*
%TO.C,J1*%
X155995000Y-78390000D03*
X155995000Y-72610000D03*
D32*
X154875000Y-78700000D03*
X154875000Y-77900000D03*
D33*
X154875000Y-76750000D03*
X154875000Y-75750000D03*
X154875000Y-75250000D03*
X154875000Y-74250000D03*
D32*
X154875000Y-73100000D03*
X154875000Y-72300000D03*
X154875000Y-72300000D03*
X154875000Y-73100000D03*
D33*
X154875000Y-73750000D03*
X154875000Y-74750000D03*
X154875000Y-76250000D03*
X154875000Y-77250000D03*
D32*
X154875000Y-77900000D03*
X154875000Y-78700000D03*
D34*
X155475000Y-79820000D03*
D35*
X159675000Y-79820000D03*
D34*
X155475000Y-71180000D03*
D35*
X159675000Y-71180000D03*
%TD*%
D20*
%TO.C,R50*%
X123022500Y-132147500D03*
X121197500Y-132147500D03*
%TD*%
D36*
%TO.C,R66*%
X113275000Y-72150000D03*
X114925000Y-72150000D03*
%TD*%
D17*
%TO.C,R16*%
X150890000Y-118000000D03*
X151910000Y-118000000D03*
%TD*%
D13*
%TO.C,C37*%
X134800000Y-83900000D03*
X134800000Y-82350000D03*
%TD*%
D30*
%TO.C,C61*%
X111375000Y-69600000D03*
X109825000Y-69600000D03*
%TD*%
D37*
%TO.C,U4*%
X132200000Y-75200000D03*
X132200000Y-75700000D03*
X132200000Y-76200000D03*
X132200000Y-76700000D03*
X132200000Y-77200000D03*
X132200000Y-77700000D03*
D38*
X132887500Y-78387500D03*
X133387500Y-78387500D03*
X133887500Y-78387500D03*
X134387500Y-78387500D03*
X134887500Y-78387500D03*
X135387500Y-78387500D03*
D37*
X136075000Y-77700000D03*
X136075000Y-77200000D03*
X136075000Y-76700000D03*
X136075000Y-76200000D03*
X136075000Y-75700000D03*
X136075000Y-75200000D03*
D38*
X135387500Y-74512500D03*
X134887500Y-74512500D03*
X134387500Y-74512500D03*
X133887500Y-74512500D03*
X133387500Y-74512500D03*
X132887500Y-74512500D03*
D39*
X134137500Y-76450000D03*
%TD*%
D20*
%TO.C,R49*%
X123022500Y-133647500D03*
X121197500Y-133647500D03*
%TD*%
D18*
%TO.C,R35*%
X126712500Y-80075000D03*
X126712500Y-81725000D03*
%TD*%
D26*
%TO.C,R25*%
X124690000Y-123990000D03*
X124690000Y-125010000D03*
%TD*%
%TO.C,R29*%
X143900000Y-119380000D03*
X143900000Y-120400000D03*
%TD*%
%TO.C,R45*%
X121710000Y-123980000D03*
X121710000Y-125000000D03*
%TD*%
D14*
%TO.C,C47*%
X139200000Y-126335000D03*
X139200000Y-127885000D03*
%TD*%
D26*
%TO.C,R12*%
X147900000Y-119400000D03*
X147900000Y-120420000D03*
%TD*%
D14*
%TO.C,C42*%
X152810000Y-125150000D03*
X152810000Y-126700000D03*
%TD*%
D17*
%TO.C,R20*%
X150890000Y-117000000D03*
X151910000Y-117000000D03*
%TD*%
D36*
%TO.C,R67*%
X113300000Y-73650000D03*
X114950000Y-73650000D03*
%TD*%
D40*
%TO.C,U5*%
X125000000Y-132430000D03*
X125000000Y-133700000D03*
X125000000Y-134970000D03*
X125000000Y-136240000D03*
X132200000Y-136240000D03*
X132200000Y-134970000D03*
X132200000Y-133700000D03*
X132200000Y-132430000D03*
%TD*%
D41*
%TO.C,J4*%
X150220000Y-136100000D03*
D42*
X147680000Y-136100000D03*
X145140000Y-136100000D03*
X142600000Y-136100000D03*
X140060000Y-136100000D03*
%TD*%
D43*
%TO.C,J5*%
X96100000Y-131800000D03*
X96600000Y-131800000D03*
X97100000Y-131800000D03*
X97600000Y-131800000D03*
X98100000Y-131800000D03*
X98600000Y-131800000D03*
X99100000Y-131800000D03*
X99600000Y-131800000D03*
X100100000Y-131800000D03*
X100600000Y-131800000D03*
X101100000Y-131800000D03*
X101600000Y-131800000D03*
X102100000Y-131800000D03*
X102600000Y-131800000D03*
X103100000Y-131800000D03*
X103600000Y-131800000D03*
X104100000Y-131800000D03*
X104600000Y-131800000D03*
X105100000Y-131800000D03*
X105600000Y-131800000D03*
X106100000Y-131800000D03*
X106600000Y-131800000D03*
X107100000Y-131800000D03*
X107600000Y-131800000D03*
X108100000Y-131800000D03*
X108600000Y-131800000D03*
X109100000Y-131800000D03*
X109600000Y-131800000D03*
X110100000Y-131800000D03*
X110600000Y-131800000D03*
X111100000Y-131800000D03*
X111600000Y-131800000D03*
X112100000Y-131800000D03*
X112600000Y-131800000D03*
X113100000Y-131800000D03*
X113600000Y-131800000D03*
X114100000Y-131800000D03*
X114600000Y-131800000D03*
X115100000Y-131800000D03*
X115600000Y-131800000D03*
D44*
X94430000Y-133500000D03*
X117270000Y-133500000D03*
%TD*%
D45*
%TO.C,U15*%
X109300000Y-71700000D03*
X109300000Y-72650000D03*
X109300000Y-73600000D03*
X111575000Y-73600000D03*
X111575000Y-72650000D03*
X111575000Y-71700000D03*
%TD*%
D36*
%TO.C,R6*%
X125725000Y-119200000D03*
X127375000Y-119200000D03*
%TD*%
D46*
%TO.C,C10*%
X140580000Y-107100000D03*
X139620000Y-107100000D03*
%TD*%
D36*
%TO.C,R5*%
X122725000Y-119200000D03*
X124375000Y-119200000D03*
%TD*%
D13*
%TO.C,C32*%
X129212500Y-77150000D03*
X129212500Y-75600000D03*
%TD*%
D19*
%TO.C,C34*%
X92807500Y-123662500D03*
X94357500Y-123662500D03*
%TD*%
D17*
%TO.C,R19*%
X150890000Y-116000000D03*
X151910000Y-116000000D03*
%TD*%
D47*
%TO.C,X1*%
X92592500Y-121992500D03*
X94692500Y-121992500D03*
X94692500Y-120342500D03*
X92592500Y-120342500D03*
%TD*%
D15*
%TO.C,L3*%
X131137500Y-70875000D03*
X129487500Y-70875000D03*
%TD*%
D19*
%TO.C,C53*%
X101100000Y-75500000D03*
X102650000Y-75500000D03*
%TD*%
D14*
%TO.C,C19*%
X143700000Y-126335000D03*
X143700000Y-127885000D03*
%TD*%
D48*
%TO.C,R46*%
X159000000Y-133312500D03*
X159000000Y-131487500D03*
%TD*%
D14*
%TO.C,C25*%
X126512500Y-72100000D03*
X126512500Y-73650000D03*
%TD*%
D18*
%TO.C,R39*%
X140112500Y-71550000D03*
X140112500Y-73200000D03*
%TD*%
D49*
%TO.C,Y1*%
X101000000Y-77300000D03*
X101000000Y-79500000D03*
X102700000Y-79500000D03*
X102700000Y-77300000D03*
%TD*%
D18*
%TO.C,R38*%
X142950000Y-79775000D03*
X142950000Y-81425000D03*
%TD*%
D16*
%TO.C,R36*%
X125212500Y-81725000D03*
X125212500Y-80075000D03*
%TD*%
D14*
%TO.C,C41*%
X140700000Y-126335000D03*
X140700000Y-127885000D03*
%TD*%
D23*
%TO.C,R32*%
X152925000Y-129750000D03*
X151275000Y-129750000D03*
%TD*%
D25*
%TO.C,U2*%
X136000000Y-116400000D03*
X136000000Y-115600000D03*
X136000000Y-114800000D03*
X136000000Y-111600000D03*
X136000000Y-110800000D03*
X136000000Y-110000000D03*
X136800000Y-116400000D03*
X136800000Y-115600000D03*
X136800000Y-114800000D03*
X136800000Y-111600000D03*
X136800000Y-110800000D03*
X136800000Y-110000000D03*
X137600000Y-116400000D03*
X137600000Y-115600000D03*
X137600000Y-114800000D03*
X137600000Y-111600000D03*
X137600000Y-110800000D03*
X137600000Y-110000000D03*
X138400000Y-116400000D03*
X138400000Y-115600000D03*
X138400000Y-114800000D03*
X138400000Y-111600000D03*
X138400000Y-110800000D03*
X138400000Y-110000000D03*
X139200000Y-116400000D03*
X139200000Y-115600000D03*
X139200000Y-114800000D03*
X139200000Y-111600000D03*
X139200000Y-110800000D03*
X139200000Y-110000000D03*
X140000000Y-116400000D03*
X140000000Y-115600000D03*
X140000000Y-114800000D03*
X140000000Y-111600000D03*
X140000000Y-110800000D03*
X140000000Y-110000000D03*
X140800000Y-116400000D03*
X140800000Y-115600000D03*
X140800000Y-114800000D03*
X140800000Y-111600000D03*
X140800000Y-110800000D03*
X140800000Y-110000000D03*
X141600000Y-116400000D03*
X141600000Y-115600000D03*
X141600000Y-114800000D03*
X141600000Y-111600000D03*
X141600000Y-110800000D03*
X141600000Y-110000000D03*
X142400000Y-116400000D03*
X142400000Y-115600000D03*
X142400000Y-114800000D03*
X142400000Y-111600000D03*
X142400000Y-110800000D03*
X142400000Y-110000000D03*
X143200000Y-116400000D03*
X143200000Y-115600000D03*
X143200000Y-114800000D03*
X143200000Y-111600000D03*
X143200000Y-110800000D03*
X143200000Y-110000000D03*
X144000000Y-116400000D03*
X144000000Y-115600000D03*
X144000000Y-114800000D03*
X144000000Y-111600000D03*
X144000000Y-110800000D03*
X144000000Y-110000000D03*
X144800000Y-116400000D03*
X144800000Y-115600000D03*
X144800000Y-114800000D03*
X144800000Y-111600000D03*
X144800000Y-110800000D03*
X144800000Y-110000000D03*
X145600000Y-116400000D03*
X145600000Y-115600000D03*
X145600000Y-114800000D03*
X145600000Y-111600000D03*
X145600000Y-110800000D03*
X145600000Y-110000000D03*
X146400000Y-116400000D03*
X146400000Y-115600000D03*
X146400000Y-114800000D03*
X146400000Y-111600000D03*
X146400000Y-110800000D03*
X146400000Y-110000000D03*
X147200000Y-116400000D03*
X147200000Y-115600000D03*
X147200000Y-114800000D03*
X147200000Y-111600000D03*
X147200000Y-110800000D03*
X147200000Y-110000000D03*
X148000000Y-116400000D03*
X148000000Y-115600000D03*
X148000000Y-114800000D03*
X148000000Y-111600000D03*
X148000000Y-110800000D03*
X148000000Y-110000000D03*
%TD*%
D12*
%TO.C,C28*%
X140000000Y-83100000D03*
X141900000Y-83100000D03*
%TD*%
D15*
%TO.C,L4*%
X136887500Y-70875000D03*
X138537500Y-70875000D03*
%TD*%
D50*
%TO.C,C11*%
X137620000Y-107100000D03*
X138580000Y-107100000D03*
%TD*%
D14*
%TO.C,C23*%
X128212500Y-80125000D03*
X128212500Y-81675000D03*
%TD*%
D26*
%TO.C,R44*%
X123700000Y-123980000D03*
X123700000Y-125000000D03*
%TD*%
D36*
%TO.C,R64*%
X105975000Y-71650000D03*
X107625000Y-71650000D03*
%TD*%
D30*
%TO.C,C35*%
X135725000Y-132150000D03*
X134175000Y-132150000D03*
%TD*%
D26*
%TO.C,R30*%
X142900000Y-119390000D03*
X142900000Y-120410000D03*
%TD*%
D19*
%TO.C,C54*%
X115675000Y-75950000D03*
X117225000Y-75950000D03*
%TD*%
D51*
%TO.C,J3*%
X157200000Y-117000000D03*
D52*
X157200000Y-88800000D03*
%TD*%
D51*
%TO.C,J2*%
X94000000Y-88800000D03*
D52*
X94000000Y-117000000D03*
%TD*%
M02*
