%TF.GenerationSoftware,KiCad,Pcbnew,8.0.6*%
%TF.CreationDate,2025-01-06T00:07:23+08:00*%
%TF.ProjectId,ECP5_DEV_BOARD,45435035-5f44-4455-965f-424f4152442e,rev?*%
%TF.SameCoordinates,Original*%
%TF.FileFunction,Legend,Bot*%
%TF.FilePolarity,Positive*%
%FSLAX46Y46*%
G04 Gerber Fmt 4.6, Leading zero omitted, Abs format (unit mm)*
G04 Created by KiCad (PCBNEW 8.0.6) date 2025-01-06 00:07:23*
%MOMM*%
%LPD*%
G01*
G04 APERTURE LIST*
%ADD10C,0.120000*%
%ADD11C,0.127000*%
%ADD12C,0.200000*%
G04 APERTURE END LIST*
D10*
%TO.C,R26*%
X143370000Y-117903641D02*
X143370000Y-117596359D01*
X144130000Y-117903641D02*
X144130000Y-117596359D01*
%TO.C,R3*%
X143702258Y-121822500D02*
X143227742Y-121822500D01*
X143702258Y-122867500D02*
X143227742Y-122867500D01*
%TO.C,C20*%
X118292164Y-99640000D02*
X118507836Y-99640000D01*
X118292164Y-100360000D02*
X118507836Y-100360000D01*
%TO.C,C39*%
X133265000Y-70638748D02*
X133265000Y-71161252D01*
X134735000Y-70638748D02*
X134735000Y-71161252D01*
%TO.C,R11*%
X151553641Y-111620000D02*
X151246359Y-111620000D01*
X151553641Y-112380000D02*
X151246359Y-112380000D01*
%TO.C,D3*%
X96945000Y-130865000D02*
X96945000Y-132565000D01*
X99605000Y-130865000D02*
X96945000Y-130865000D01*
X99605000Y-132565000D02*
X96945000Y-132565000D01*
%TO.C,R13*%
X151553641Y-110620000D02*
X151246359Y-110620000D01*
X151553641Y-111380000D02*
X151246359Y-111380000D01*
%TO.C,C51*%
X116207836Y-100140000D02*
X115992164Y-100140000D01*
X116207836Y-100860000D02*
X115992164Y-100860000D01*
%TO.C,C60*%
X112690000Y-83059420D02*
X112690000Y-83340580D01*
X113710000Y-83059420D02*
X113710000Y-83340580D01*
%TO.C,C36*%
X114092164Y-102640000D02*
X114307836Y-102640000D01*
X114092164Y-103360000D02*
X114307836Y-103360000D01*
%TO.C,C12*%
X148207836Y-116840000D02*
X147992164Y-116840000D01*
X148207836Y-117560000D02*
X147992164Y-117560000D01*
D11*
%TO.C,J3*%
X154200000Y-88000000D02*
X154200000Y-90730000D01*
X154200000Y-88000000D02*
X156265000Y-88000000D01*
X154200000Y-115070000D02*
X154200000Y-117800000D01*
X158135000Y-88000000D02*
X160200000Y-88000000D01*
X160200000Y-88000000D02*
X160200000Y-90730000D01*
X160200000Y-115070000D02*
X160200000Y-117800000D01*
X160200000Y-117800000D02*
X154200000Y-117800000D01*
D12*
X161100000Y-114500000D02*
G75*
G02*
X160900000Y-114500000I-100000J0D01*
G01*
X160900000Y-114500000D02*
G75*
G02*
X161100000Y-114500000I100000J0D01*
G01*
D10*
%TO.C,R62*%
X117662742Y-80477500D02*
X118137258Y-80477500D01*
X117662742Y-81522500D02*
X118137258Y-81522500D01*
%TO.C,R18*%
X151553641Y-112620000D02*
X151246359Y-112620000D01*
X151553641Y-113380000D02*
X151246359Y-113380000D01*
%TO.C,C50*%
X116127836Y-102640000D02*
X115912164Y-102640000D01*
X116127836Y-103360000D02*
X115912164Y-103360000D01*
%TO.C,R2*%
X144320000Y-113053641D02*
X144320000Y-112746359D01*
X145080000Y-113053641D02*
X145080000Y-112746359D01*
%TO.C,C46*%
X123122164Y-108010000D02*
X123337836Y-108010000D01*
X123122164Y-108730000D02*
X123337836Y-108730000D01*
%TO.C,C8*%
X137792164Y-94240000D02*
X138007836Y-94240000D01*
X137792164Y-94960000D02*
X138007836Y-94960000D01*
%TO.C,C49*%
X114540000Y-104792164D02*
X114540000Y-105007836D01*
X115260000Y-104792164D02*
X115260000Y-105007836D01*
%TO.C,C13*%
X118294213Y-100890000D02*
X118509885Y-100890000D01*
X118294213Y-101610000D02*
X118509885Y-101610000D01*
%TO.C,R21*%
X145520000Y-120063641D02*
X145520000Y-119756359D01*
X146280000Y-120063641D02*
X146280000Y-119756359D01*
%TO.C,C40*%
X133365000Y-82861252D02*
X133365000Y-82338748D01*
X134835000Y-82861252D02*
X134835000Y-82338748D01*
%TO.C,C5*%
X116013485Y-104733408D02*
X116013485Y-104949080D01*
X116733485Y-104733408D02*
X116733485Y-104949080D01*
%TO.C,C58*%
X109140580Y-78390000D02*
X108859420Y-78390000D01*
X109140580Y-79410000D02*
X108859420Y-79410000D01*
%TO.C,R31*%
X142933641Y-112650000D02*
X142626359Y-112650000D01*
X142933641Y-113410000D02*
X142626359Y-113410000D01*
%TO.C,C38*%
X97720000Y-134153748D02*
X97720000Y-134676252D01*
X99190000Y-134153748D02*
X99190000Y-134676252D01*
%TO.C,C45*%
X139512164Y-105340000D02*
X139727836Y-105340000D01*
X139512164Y-106060000D02*
X139727836Y-106060000D01*
%TO.C,C9*%
X139492164Y-117240000D02*
X139707836Y-117240000D01*
X139492164Y-117960000D02*
X139707836Y-117960000D01*
%TO.C,C7*%
X138207836Y-102940000D02*
X137992164Y-102940000D01*
X138207836Y-103660000D02*
X137992164Y-103660000D01*
%TO.C,R28*%
X142520000Y-120053641D02*
X142520000Y-119746359D01*
X143280000Y-120053641D02*
X143280000Y-119746359D01*
%TO.C,R17*%
X144520000Y-120053641D02*
X144520000Y-119746359D01*
X145280000Y-120053641D02*
X145280000Y-119746359D01*
%TO.C,C15*%
X117046417Y-102731315D02*
X117046417Y-102515643D01*
X117766417Y-102731315D02*
X117766417Y-102515643D01*
%TO.C,L5*%
X91010000Y-134600000D02*
X94030000Y-134600000D01*
X91010000Y-137120000D02*
X94030000Y-137120000D01*
%TO.C,C6*%
X141072164Y-94340000D02*
X141287836Y-94340000D01*
X141072164Y-95060000D02*
X141287836Y-95060000D01*
%TO.C,U6*%
X94000000Y-131040000D02*
X94800000Y-131040000D01*
X94000000Y-134160000D02*
X94800000Y-134160000D01*
X95600000Y-131040000D02*
X94800000Y-131040000D01*
X95600000Y-134160000D02*
X94800000Y-134160000D01*
X93740000Y-134440000D02*
X93260000Y-134440000D01*
X93500000Y-134110000D01*
X93740000Y-134440000D01*
G36*
X93740000Y-134440000D02*
G01*
X93260000Y-134440000D01*
X93500000Y-134110000D01*
X93740000Y-134440000D01*
G37*
%TO.C,D4*%
X94680000Y-134565000D02*
X97340000Y-134565000D01*
X94680000Y-136265000D02*
X97340000Y-136265000D01*
X97340000Y-136265000D02*
X97340000Y-134565000D01*
%TO.C,R1*%
X142746359Y-96420000D02*
X143053641Y-96420000D01*
X142746359Y-97180000D02*
X143053641Y-97180000D01*
%TO.C,C18*%
X118692164Y-102940000D02*
X118907836Y-102940000D01*
X118692164Y-103660000D02*
X118907836Y-103660000D01*
%TO.C,R15*%
X151543641Y-109620000D02*
X151236359Y-109620000D01*
X151543641Y-110380000D02*
X151236359Y-110380000D01*
%TO.C,C1*%
X143555580Y-123325000D02*
X143274420Y-123325000D01*
X143555580Y-124345000D02*
X143274420Y-124345000D01*
%TO.C,R33*%
X91432500Y-132252258D02*
X91432500Y-131777742D01*
X92477500Y-132252258D02*
X92477500Y-131777742D01*
D11*
%TO.C,J2*%
X91000000Y-88000000D02*
X97000000Y-88000000D01*
X91000000Y-90730000D02*
X91000000Y-88000000D01*
X91000000Y-117800000D02*
X91000000Y-115070000D01*
X93065000Y-117800000D02*
X91000000Y-117800000D01*
X97000000Y-90730000D02*
X97000000Y-88000000D01*
X97000000Y-117800000D02*
X94935000Y-117800000D01*
X97000000Y-117800000D02*
X97000000Y-115070000D01*
D12*
X90300000Y-91300000D02*
G75*
G02*
X90100000Y-91300000I-100000J0D01*
G01*
X90100000Y-91300000D02*
G75*
G02*
X90300000Y-91300000I100000J0D01*
G01*
D10*
%TO.C,R8*%
X151553641Y-113620000D02*
X151246359Y-113620000D01*
X151553641Y-114380000D02*
X151246359Y-114380000D01*
%TO.C,C14*%
X116137836Y-101090000D02*
X115922164Y-101090000D01*
X116137836Y-101810000D02*
X115922164Y-101810000D01*
%TO.C,R24*%
X151553641Y-108620000D02*
X151246359Y-108620000D01*
X151553641Y-109380000D02*
X151246359Y-109380000D01*
%TO.C,C55*%
X112890000Y-80040580D02*
X112890000Y-79759420D01*
X113910000Y-80040580D02*
X113910000Y-79759420D01*
%TO.C,C2*%
X146555580Y-123325000D02*
X146274420Y-123325000D01*
X146555580Y-124345000D02*
X146274420Y-124345000D01*
%TO.C,C17*%
X118690868Y-102018107D02*
X118906540Y-102018107D01*
X118690868Y-102738107D02*
X118906540Y-102738107D01*
%TO.C,R27*%
X141520000Y-120053641D02*
X141520000Y-119746359D01*
X142280000Y-120053641D02*
X142280000Y-119746359D01*
%TO.C,R9*%
X147520000Y-120063641D02*
X147520000Y-119756359D01*
X148280000Y-120063641D02*
X148280000Y-119756359D01*
%TO.C,R4*%
X146667258Y-121822500D02*
X146192742Y-121822500D01*
X146667258Y-122867500D02*
X146192742Y-122867500D01*
%TO.C,C56*%
X111390000Y-79940580D02*
X111390000Y-79659420D01*
X112410000Y-79940580D02*
X112410000Y-79659420D01*
%TO.C,R61*%
X117662742Y-82077500D02*
X118137258Y-82077500D01*
X117662742Y-83122500D02*
X118137258Y-83122500D01*
%TO.C,C16*%
X116938113Y-104746384D02*
X116938113Y-104962056D01*
X117658113Y-104746384D02*
X117658113Y-104962056D01*
%TO.C,R63*%
X108762742Y-79877500D02*
X109237258Y-79877500D01*
X108762742Y-80922500D02*
X109237258Y-80922500D01*
%TO.C,R7*%
X146520000Y-120063641D02*
X146520000Y-119756359D01*
X147280000Y-120063641D02*
X147280000Y-119756359D01*
%TO.C,C59*%
X109165580Y-83190000D02*
X108884420Y-83190000D01*
X109165580Y-84210000D02*
X108884420Y-84210000D01*
%TD*%
M02*
