M48
; DRILL file {KiCad 8.0.6} date 2025-01-06T00:07:19+0800
; FORMAT={-:-/ absolute / inch / decimal}
; #@! TF.CreationDate,2025-01-06T00:07:19+08:00
; #@! TF.GenerationSoftware,Kicad,Pcbnew,8.0.6
; #@! TF.FileFunction,Plated,1,6,PTH
FMAT,2
INCH
; #@! TA.AperFunction,Plated,PTH,ViaDrill
T1C0.0118
; #@! TA.AperFunction,Plated,PTH,ViaDrill
T2C0.0157
; #@! TA.AperFunction,Plated,PTH,ComponentDrill
T3C0.0236
; #@! TA.AperFunction,Plated,PTH,ComponentDrill
T4C0.0394
%
G90
G05
T1
X3.6454Y-4.7874
X3.6875Y-5.2205
X3.7149Y-4.8666
X3.7854Y-4.1299
X3.7874Y-3.563
X3.7874Y-3.5945
X3.7874Y-3.626
X3.7874Y-3.6575
X3.7874Y-3.752
X3.7874Y-3.7835
X3.7874Y-3.815
X3.7874Y-3.8465
X3.7874Y-3.9409
X3.7874Y-4.0354
X3.7874Y-4.0669
X3.7874Y-4.0984
X3.7874Y-4.1614
X3.7874Y-4.1929
X3.7874Y-4.2244
X3.7874Y-4.3189
X3.7874Y-4.4134
X3.7874Y-4.4449
X3.7874Y-4.4764
X3.7874Y-4.5079
X3.8189Y-4.7087
X3.8425Y-4.9567
X3.878Y-5.2559
X3.8937Y-4.563
X3.9213Y-5.0866
X3.9291Y-4.3583
X3.9409Y-3.9449
X3.9567Y-4.3583
X3.9783Y-4.2402
X3.9793Y-3.2008
X3.9803Y-3.7717
X3.9843Y-3.6457
X3.9921Y-5.2441
X4.0118Y-4.5157
X4.0197Y-5.122
X4.0354Y-5.2362
X4.0394Y-5.0906
X4.0413Y-2.9764
X4.0512Y-4.0768
X4.0669Y-2.7303
X4.0689Y-2.7008
X4.0984Y-5.2323
X4.1181Y-5.122
X4.1319Y-4.2224
X4.1339Y-4.3228
X4.1378Y-3.1496
X4.1378Y-3.2657
X4.1496Y-5.1417
X4.1575Y-4.5591
X4.1575Y-5.2362
X4.1969Y-3.5787
X4.2008Y-4.5472
X4.2165Y-4.4528
X4.2165Y-5.2362
X4.2372Y-2.8996
X4.2382Y-4.5413
X4.2559Y-3.1673
X4.2579Y-3.2933
X4.2618Y-2.9744
X4.2618Y-3.1063
X4.2677Y-4.5433
X4.2717Y-3.5787
X4.2756Y-5.2362
X4.3031Y-2.8602
X4.3226Y-4.1573
X4.3238Y-2.7402
X4.3238Y-3.1654
X4.3307Y-5.126
X4.3573Y-4.0351
X4.3583Y-3.7913
X4.3583Y-5.1339
X4.3661Y-3.9252
X4.3661Y-4.0827
X4.374Y-4.311
X4.3858Y-2.9685
X4.3898Y-5.1417
X4.3922Y-2.8223
X4.3937Y-3.5039
X4.3937Y-3.5472
X4.3937Y-5.2402
X4.3967Y-4.0831
X4.3976Y-3.9252
X4.3976Y-4.2087
X4.3976Y-4.2402
X4.4055Y-3.1122
X4.4291Y-3.5827
X4.4291Y-3.8622
X4.4291Y-3.8937
X4.4291Y-3.9252
X4.4291Y-3.9567
X4.4291Y-3.9882
X4.4291Y-4.1457
X4.4291Y-4.1772
X4.4291Y-4.2087
X4.4291Y-4.2402
X4.4488Y-4.4055
X4.4567Y-3.2441
X4.4567Y-3.6142
X4.4606Y-3.8307
X4.4606Y-3.8622
X4.4606Y-3.9252
X4.4606Y-3.9567
X4.4606Y-4.0512
X4.4606Y-4.0827
X4.4606Y-4.1142
X4.4606Y-4.1457
X4.4606Y-4.1772
X4.4606Y-4.2087
X4.4606Y-4.2402
X4.4626Y-3.1161
X4.4646Y-3.3071
X4.4843Y-4.3465
X4.4921Y-3.8622
X4.4921Y-3.9567
X4.4921Y-4.0197
X4.4921Y-4.0827
X4.4921Y-4.1142
X4.4921Y-4.1457
X4.4921Y-4.1772
X4.4921Y-4.2402
X4.5079Y-4.2874
X4.5236Y-3.8307
X4.5236Y-3.8622
X4.5236Y-3.9232
X4.5236Y-4.0197
X4.5236Y-4.0827
X4.5236Y-4.111
X4.5236Y-4.1488
X4.5236Y-4.1772
X4.5256Y-2.8996
X4.5551Y-3.8622
X4.5551Y-3.9587
X4.5551Y-4.0512
X4.5551Y-4.1772
X4.5669Y-3.2283
X4.5787Y-3.1969
X4.5866Y-3.4055
X4.5866Y-3.8937
X4.5866Y-4.0197
X4.5866Y-4.1457
X4.5866Y-4.1772
X4.5898Y-3.9567
X4.5906Y-3.0709
X4.6102Y-3.189
X4.6102Y-3.2559
X4.6169Y-5.2559
X4.6181Y-4.0531
X4.6181Y-4.111
X4.6181Y-4.1457
X4.6197Y-4.0185
X4.6339Y-3.815
X4.6339Y-3.9094
X4.6476Y-3.9862
X4.6496Y-3.9272
X4.6496Y-4.1772
X4.6496Y-4.2087
X4.6496Y-4.2402
X4.6654Y-3.9094
X4.6654Y-4.0354
X4.6742Y-3.1909
X4.6806Y-4.2717
X4.6811Y-3.9567
X4.6811Y-3.9882
X4.6811Y-4.2087
X4.6811Y-4.2402
X4.6969Y-3.815
X4.6969Y-3.878
X4.6969Y-3.9094
X4.6969Y-4.0354
X4.6969Y-4.0669
X4.7124Y-3.9883
X4.7126Y-3.9252
X4.7126Y-3.9567
X4.7126Y-4.1142
X4.7126Y-4.1457
X4.7126Y-4.1772
X4.7126Y-4.2087
X4.7126Y-4.3071
X4.7283Y-3.815
X4.7283Y-3.878
X4.7441Y-3.9252
X4.7441Y-4.0197
X4.7441Y-4.0512
X4.7441Y-4.0827
X4.7441Y-4.1457
X4.7441Y-4.1772
X4.7441Y-4.2402
X4.7598Y-3.815
X4.7598Y-3.8465
X4.7598Y-3.878
X4.7598Y-3.9094
X4.7716Y-5.2028
X4.7756Y-3.9882
X4.7756Y-4.0197
X4.7756Y-4.1457
X4.7756Y-4.1772
X4.7756Y-4.2717
X4.7783Y-4.0487
X4.7835Y-4.3701
X4.7913Y-3.815
X4.7913Y-3.8465
X4.7917Y-4.9213
X4.8059Y-4.3346
X4.8071Y-3.9252
X4.8071Y-3.9567
X4.8071Y-4.1772
X4.8075Y-4.205
X4.8091Y-4.0177
X4.8107Y-3.8311
X4.8227Y-4.429
X4.8228Y-3.9094
X4.8307Y-4.8819
X4.8386Y-3.9258
X4.8386Y-4.0512
X4.8386Y-4.2087
X4.8386Y-4.6713
X4.8398Y-3.8307
X4.8465Y-5.3228
X4.8664Y-3.9248
X4.8701Y-4.3504
X4.8701Y-4.8819
X4.874Y-4.2087
X4.874Y-4.2638
X4.878Y-4.0433
X4.8898Y-3.7795
X4.8937Y-4.2835
X4.8996Y-3.2539
X4.9016Y-2.7972
X4.9035Y-2.752
X4.9091Y-4.9217
X4.9094Y-4.8819
X4.9213Y-3.2913
X4.9297Y-4.6928
X4.9646Y-4.8799
X5.0197Y-4.7402
X5.0315Y-4.4685
X5.0315Y-4.4961
X5.0399Y-2.7667
X5.0399Y-2.8366
X5.0458Y-3.2874
X5.0477Y-3.2156
X5.065Y-2.8031
X5.0748Y-3.25
X5.0871Y-3.0374
X5.0898Y-2.9791
X5.0979Y-2.7904
X5.0984Y-3.3091
X5.1058Y-3.252
X5.2047Y-5.2138
X5.2126Y-5.2677
X5.2283Y-3.9843
X5.2402Y-3.9252
X5.2515Y-2.8524
X5.2515Y-3.1732
X5.2776Y-2.7559
X5.2776Y-2.8228
X5.2776Y-3.3031
X5.2795Y-3.2028
X5.3031Y-4.3543
X5.3071Y-3.7886
X5.3105Y-2.8524
X5.3105Y-3.1713
X5.3268Y-3.9843
X5.3289Y-3.9536
X5.3307Y-4.2992
X5.3465Y-4.0709
X5.348Y-4.4157
X5.3524Y-3.3937
X5.3543Y-4.622
X5.3701Y-3.9685
X5.3701Y-4.3465
X5.3701Y-4.5354
X5.378Y-4.0906
X5.3858Y-3.8504
X5.3858Y-4.6181
X5.3862Y-4.4154
X5.4016Y-4.0
X5.4016Y-4.3465
X5.4016Y-4.5354
X5.4102Y-3.7244
X5.4165Y-4.4138
X5.4173Y-3.8543
X5.4173Y-4.063
X5.4181Y-4.2165
X5.4331Y-3.937
X5.4331Y-4.5354
X5.4331Y-4.3485
X5.4338Y-3.9685
X5.4478Y-3.2559
X5.4488Y-3.7244
X5.4488Y-3.7953
X5.4488Y-3.8504
X5.4488Y-4.0669
X5.4496Y-4.4283
X5.4542Y-2.7904
X5.4567Y-3.1988
X5.4646Y-3.9685
X5.4646Y-4.5354
X5.4705Y-2.7441
X5.4724Y-4.4134
X5.4744Y-4.2165
X5.4803Y-3.2382
X5.4803Y-3.8543
X5.4803Y-4.6299
X5.4902Y-2.7835
X5.4961Y-3.7795
X5.4961Y-4.315
X5.4961Y-4.3465
X5.4961Y-4.378
X5.4961Y-4.5669
X5.4975Y-3.8119
X5.5Y-4.4882
X5.5098Y-3.2057
X5.5118Y-3.2717
X5.5118Y-4.0709
X5.515Y-4.6299
X5.5157Y-4.1594
X5.5182Y-2.751
X5.5236Y-4.4843
X5.5276Y-4.5669
X5.5295Y-4.752
X5.5394Y-3.7283
X5.5433Y-3.8543
X5.5433Y-4.4331
X5.5433Y-4.6063
X5.5492Y-4.0315
X5.5551Y-4.2539
X5.5591Y-3.9685
X5.5591Y-4.0
X5.5591Y-4.378
X5.5591Y-4.5014
X5.5591Y-4.5669
X5.5591Y-4.3465
X5.5748Y-3.7953
X5.5748Y-3.8268
X5.5748Y-4.6063
X5.5772Y-3.7283
X5.5906Y-3.7795
X5.5906Y-4.5669
X5.591Y-4.3472
X5.6004Y-5.0348
X5.6063Y-3.9528
X5.6063Y-4.5197
X5.609Y-4.4213
X5.6102Y-3.8543
X5.626Y-4.7406
X5.6346Y-4.4205
X5.6358Y-3.2618
X5.6358Y-3.3031
X5.6378Y-3.8543
X5.6378Y-3.9528
X5.6378Y-3.9843
X5.6378Y-4.3307
X5.6378Y-4.3622
X5.6378Y-4.5192
X5.6437Y-2.7402
X5.6535Y-3.748
X5.6535Y-3.7795
X5.6535Y-3.811
X5.6535Y-4.5669
X5.6594Y-4.6559
X5.6693Y-3.8268
X5.6693Y-4.3622
X5.6693Y-4.3937
X5.6693Y-4.5512
X5.6831Y-2.7697
X5.6969Y-4.465
X5.7008Y-3.7638
X5.7008Y-3.7953
X5.7008Y-3.9843
X5.7008Y-4.0157
X5.7008Y-4.3307
X5.7008Y-4.3622
X5.7008Y-4.5512
X5.7008Y-4.5827
X5.7244Y-4.9902
X5.7264Y-4.9547
X5.7323Y-3.7638
X5.7323Y-3.7953
X5.7323Y-3.8543
X5.7323Y-3.9528
X5.7323Y-3.9843
X5.7323Y-4.0157
X5.7323Y-4.311
X5.7323Y-4.3622
X5.7323Y-4.3937
X5.7323Y-4.5197
X5.7323Y-4.5512
X5.7323Y-4.5827
X5.7638Y-3.7638
X5.7638Y-3.7953
X5.7638Y-3.9528
X5.7638Y-3.9843
X5.7638Y-4.0157
X5.7638Y-4.3622
X5.7638Y-4.3937
X5.7638Y-4.5197
X5.7638Y-4.5512
X5.7638Y-4.5827
X5.7854Y-4.7406
X5.7948Y-4.3031
X5.7953Y-3.7638
X5.7953Y-3.7953
X5.7953Y-3.8268
X5.7953Y-4.0669
X5.7953Y-4.3307
X5.7953Y-4.3622
X5.7953Y-4.3937
X5.7974Y-4.8465
X5.8118Y-4.6142
X5.815Y-4.9744
X5.815Y-5.0098
X5.815Y-5.0433
X5.8268Y-3.7638
X5.8268Y-3.7953
X5.8268Y-4.0157
X5.8268Y-4.5512
X5.8307Y-2.7303
X5.8465Y-4.0512
X5.8465Y-4.311
X5.8465Y-4.3425
X5.8496Y-4.6142
X5.8581Y-2.7294
X5.8937Y-3.4291
X5.9055Y-4.7047
X5.9406Y-4.2913
X5.9406Y-4.5276
X5.9406Y-4.5669
X5.9567Y-4.9272
X5.9567Y-5.0177
X5.9807Y-4.5276
X6.0161Y-4.9272
X6.1772Y-4.2559
X6.1772Y-4.3504
X6.1772Y-4.4449
X6.1811Y-3.9724
X6.1811Y-4.0669
X6.1811Y-4.1614
X6.185Y-3.689
X6.185Y-3.7835
X6.185Y-3.878
X6.189Y-3.5945
X6.2573Y-5.311
X6.2573Y-5.3799
X6.2756Y-3.6417
X6.2756Y-3.7323
X6.2756Y-3.8307
X6.2756Y-3.9252
X6.2756Y-4.0197
X6.2756Y-4.1142
X6.2756Y-4.2087
X6.2756Y-4.3031
X6.2756Y-4.3976
X6.2756Y-4.4882
T2
X3.6203Y-5.165
X3.8762Y-5.3293
X3.9843Y-5.311
X5.2815Y-2.9783
X5.2815Y-3.0433
X5.2822Y-3.0111
X5.9547Y-3.0492
X5.9567Y-2.8484
X5.9902Y-2.9035
X5.9921Y-3.0906
X6.0256Y-2.8465
X6.0295Y-3.0472
T4
X5.5142Y-5.3583
X5.6142Y-5.3583
X5.7142Y-5.3583
X5.8142Y-5.3583
X5.9142Y-5.3583
T3
G00X6.0994Y-2.8024
M15
G01X6.1427Y-2.8024
M16
G05
G00X6.0994Y-3.1425
M15
G01X6.1427Y-3.1425
M16
G05
G00X6.2707Y-2.8024
M15
G01X6.3022Y-2.8024
M16
G05
G00X6.2707Y-3.1425
M15
G01X6.3022Y-3.1425
M16
G05
M30
