%TF.GenerationSoftware,KiCad,Pcbnew,8.0.6*%
%TF.CreationDate,2025-01-06T00:07:22+08:00*%
%TF.ProjectId,ECP5_DEV_BOARD,45435035-5f44-4455-965f-424f4152442e,rev?*%
%TF.SameCoordinates,Original*%
%TF.FileFunction,Copper,L3,Inr*%
%TF.FilePolarity,Positive*%
%FSLAX46Y46*%
G04 Gerber Fmt 4.6, Leading zero omitted, Abs format (unit mm)*
G04 Created by KiCad (PCBNEW 8.0.6) date 2025-01-06 00:07:22*
%MOMM*%
%LPD*%
G01*
G04 APERTURE LIST*
%TA.AperFunction,ComponentPad*%
%ADD10O,2.100000X1.000000*%
%TD*%
%TA.AperFunction,ComponentPad*%
%ADD11O,1.800000X1.000000*%
%TD*%
%TA.AperFunction,ComponentPad*%
%ADD12R,1.700000X1.700000*%
%TD*%
%TA.AperFunction,ComponentPad*%
%ADD13O,1.700000X1.700000*%
%TD*%
%TA.AperFunction,ViaPad*%
%ADD14C,0.450000*%
%TD*%
%TA.AperFunction,ViaPad*%
%ADD15C,0.500000*%
%TD*%
%TA.AperFunction,Conductor*%
%ADD16C,0.127000*%
%TD*%
%TA.AperFunction,Conductor*%
%ADD17C,0.156000*%
%TD*%
G04 APERTURE END LIST*
D10*
%TO.N,GND*%
%TO.C,J1*%
X155475000Y-79820000D03*
D11*
X159675000Y-79820000D03*
D10*
X155475000Y-71180000D03*
D11*
X159675000Y-71180000D03*
%TD*%
D12*
%TO.N,TMS*%
%TO.C,J4*%
X150220000Y-136100000D03*
D13*
%TO.N,TCK*%
X147680000Y-136100000D03*
%TO.N,TDO*%
X145140000Y-136100000D03*
%TO.N,TDI*%
X142600000Y-136100000D03*
%TO.N,GND*%
X140060000Y-136100000D03*
%TD*%
D14*
%TO.N,GND*%
X143750000Y-118260000D03*
%TO.N,DDR_#RST*%
X149700000Y-87100000D03*
X135950000Y-86200000D03*
X121700000Y-96900000D03*
X148500000Y-102900000D03*
X148000000Y-115600000D03*
X150000000Y-119500000D03*
%TO.N,DDR_A6*%
X118500000Y-99300000D03*
X147200000Y-110800000D03*
X147200000Y-96400000D03*
%TO.N,DDR1_D1*%
X141200000Y-100800000D03*
X120500000Y-103700000D03*
%TO.N,VREF_MEM*%
X141600000Y-117000000D03*
X144800000Y-96400000D03*
X144800000Y-110800000D03*
X140100000Y-105650000D03*
%TO.N,GND*%
X109300000Y-72650000D03*
X147255000Y-123100000D03*
X122500000Y-99300000D03*
X98500000Y-133500000D03*
X143150000Y-83900000D03*
X140700000Y-94700000D03*
X147700000Y-126350000D03*
X105000000Y-109800000D03*
X137420000Y-94600000D03*
X118500000Y-102500000D03*
X117300000Y-102950000D03*
X96200000Y-92900000D03*
X158935000Y-136650000D03*
X157000000Y-103300000D03*
X109825000Y-69600000D03*
X143150000Y-82850000D03*
X136600000Y-103900000D03*
X105100000Y-82950000D03*
X116600000Y-78000000D03*
X118050000Y-101250000D03*
X117300000Y-104420000D03*
X96200000Y-100100000D03*
X156900000Y-108100000D03*
X142000000Y-116000000D03*
X118100000Y-99750000D03*
X157000000Y-100900000D03*
X117270000Y-133500000D03*
X138000001Y-110452000D03*
X112500000Y-99700000D03*
X100100000Y-100200000D03*
X96200000Y-97700000D03*
X142250000Y-127885000D03*
X111100000Y-109500000D03*
X96200000Y-114500000D03*
X146400000Y-116400000D03*
X119700000Y-109400000D03*
X101075000Y-81300000D03*
X139600000Y-109600000D03*
X135400000Y-109200000D03*
X101200000Y-92600000D03*
X147188500Y-109300000D03*
X134050000Y-70000000D03*
X105100000Y-80000000D03*
X108250000Y-75550000D03*
X124450000Y-82650000D03*
X144800000Y-116400000D03*
X151300000Y-127450000D03*
X123900000Y-102700000D03*
X101900000Y-114700000D03*
X113200000Y-82400000D03*
X143350000Y-69600000D03*
X102900000Y-103550000D03*
X157000000Y-105700000D03*
X122109602Y-106807202D03*
X142011500Y-110420002D03*
X142000000Y-96000000D03*
X140950000Y-102400000D03*
X124690000Y-125010000D03*
X147700000Y-128100000D03*
X148580000Y-117200000D03*
X156900000Y-112900000D03*
X96200000Y-102500000D03*
X144700000Y-113409999D03*
X146400000Y-95600000D03*
X102650000Y-75600000D03*
X111700000Y-106900000D03*
X114900000Y-104420000D03*
X146400000Y-102000000D03*
X96200000Y-90500000D03*
X144350000Y-70350000D03*
X109794585Y-105594585D03*
X98900000Y-115900000D03*
X108500000Y-90900000D03*
X96200000Y-107300000D03*
X93662500Y-132600000D03*
X109825000Y-80400000D03*
X140800000Y-117000000D03*
X124550000Y-69900000D03*
X136400000Y-100800000D03*
X124200000Y-96000000D03*
X96200000Y-112100000D03*
X110675597Y-102491721D03*
X148500000Y-109500000D03*
X138400000Y-96400000D03*
X138400000Y-103300000D03*
X97000000Y-119600000D03*
D15*
X134150000Y-77300000D03*
D14*
X147700000Y-127250000D03*
X134050000Y-83900000D03*
X144800000Y-110000000D03*
X139200000Y-117600000D03*
X101050000Y-107700000D03*
X157100000Y-96100000D03*
X156900000Y-110500000D03*
X144800000Y-102000000D03*
X144800000Y-95600000D03*
X114500000Y-108900000D03*
X116580000Y-100500000D03*
X136400000Y-115200000D03*
X157100000Y-98500000D03*
X96200000Y-109700000D03*
X125000000Y-83600000D03*
X127500000Y-120400000D03*
X124500000Y-71050000D03*
X101100000Y-95800000D03*
X157100000Y-93700000D03*
X139050000Y-107100000D03*
X113300000Y-102900000D03*
X104950000Y-107250000D03*
X96200000Y-95300000D03*
X129212500Y-77150000D03*
X148000000Y-95600000D03*
D15*
X134168750Y-76481250D03*
D14*
X110700000Y-96300000D03*
X157200000Y-91300000D03*
X136800000Y-117300000D03*
X148000000Y-102000000D03*
X96150000Y-104900000D03*
X124300000Y-108800000D03*
X94357500Y-123612500D03*
D15*
X134150000Y-75650000D03*
D14*
%TO.N,+1V5*%
X136000000Y-117400000D03*
X140000000Y-83100000D03*
X135800000Y-103400000D03*
X119300000Y-102500000D03*
X141200000Y-116000000D03*
X139200000Y-82250000D03*
X138400000Y-94600000D03*
X145600000Y-95600000D03*
X138600000Y-81250000D03*
X140800000Y-112600000D03*
X145600000Y-102000000D03*
X147200000Y-103300000D03*
X147200000Y-95600000D03*
X143600000Y-96000000D03*
X143200000Y-110800000D03*
X138375000Y-82700000D03*
X147200000Y-110000000D03*
X143200000Y-101200000D03*
X140450000Y-120700000D03*
X137620000Y-107100000D03*
X141100000Y-108050000D03*
X140000000Y-103400000D03*
X143600000Y-116000000D03*
X137600000Y-103200000D03*
X134700000Y-110600000D03*
X145600000Y-116400000D03*
X145600000Y-109500000D03*
X145400000Y-126750000D03*
X134800000Y-96230000D03*
X122900000Y-118650000D03*
X140080000Y-117600000D03*
X118900000Y-100500000D03*
X139950000Y-81425000D03*
X141200000Y-101600000D03*
X140800000Y-97900000D03*
X147620000Y-117200000D03*
X141660000Y-94700000D03*
X119300000Y-103300000D03*
%TO.N,DDR_A1*%
X146400000Y-111600000D03*
%TO.N,DDR_CKE*%
X143200000Y-110000000D03*
X120900000Y-97700000D03*
X150890000Y-109000000D03*
X143600000Y-95200000D03*
%TO.N,DDR1_D3*%
X119695944Y-101304056D03*
X141600000Y-96400000D03*
%TO.N,VREF_FPGA*%
X123800000Y-108300000D03*
X125213440Y-119196778D03*
X121300000Y-101300000D03*
%TO.N,DDR1_D4*%
X121368268Y-102836586D03*
X141600000Y-97200000D03*
%TO.N,DDR1_D6*%
X139636917Y-96821640D03*
X133100000Y-99700000D03*
%TO.N,Net-(U1-ZQ)*%
X143600000Y-96800000D03*
%TO.N,DDR0_D1*%
X120500000Y-106100000D03*
X137200000Y-115200000D03*
%TO.N,DDR_#CS*%
X144000000Y-115600000D03*
%TO.N,Net-(U2-ZQ)*%
X144000000Y-110800000D03*
%TO.N,DDR_BA1*%
X145600000Y-96400000D03*
X119700000Y-99700000D03*
X145600000Y-110800000D03*
X150890000Y-115000000D03*
%TO.N,DDR_A4*%
X146400000Y-110800000D03*
X119300000Y-98500000D03*
X146400000Y-96400000D03*
%TO.N,DDR_A10*%
X120900000Y-99300000D03*
X144000000Y-97200000D03*
X144000000Y-111600000D03*
%TO.N,DDR_BA0*%
X144800000Y-101200000D03*
X120900000Y-96900000D03*
X144800000Y-115600000D03*
%TO.N,DDR_A11*%
X147200000Y-111600000D03*
X147200000Y-97200000D03*
X117700000Y-96900000D03*
%TO.N,DDR_#CAS*%
X143200000Y-100400000D03*
X143200000Y-114787366D03*
X121700000Y-97700000D03*
%TO.N,DDR_#RAS*%
X120900000Y-98500000D03*
X142400000Y-100400000D03*
X142400000Y-114800000D03*
%TO.N,DDR_A8*%
X117700000Y-99300000D03*
X148500000Y-110300000D03*
X148000000Y-96400000D03*
%TO.N,DDR_A2*%
X146400000Y-100400000D03*
X146400000Y-114800000D03*
X119300000Y-99300000D03*
%TO.N,DDR0_D4*%
X136400000Y-110400000D03*
X120500000Y-105300000D03*
%TO.N,DDR1_D5*%
X122150000Y-102050000D03*
X139600000Y-96000000D03*
%TO.N,DDR0_D5*%
X121300000Y-105300000D03*
X138420000Y-112480000D03*
%TO.N,DDR1_DM*%
X139200000Y-97900000D03*
X122900000Y-102900000D03*
%TO.N,DDR_A5*%
X146400000Y-115600000D03*
X146400000Y-101200000D03*
X119300000Y-96900000D03*
%TO.N,DDR_A12*%
X145600000Y-111600000D03*
X150890000Y-116000000D03*
X120500000Y-99700000D03*
X145600000Y-97900000D03*
%TO.N,DDR1_D2*%
X138800000Y-100800000D03*
X120500000Y-102900000D03*
%TO.N,DDR0_D0*%
X138000000Y-115200000D03*
X121300000Y-106100000D03*
%TO.N,DDR_A3*%
X145600000Y-115600000D03*
X145600000Y-101200000D03*
X120100000Y-98500000D03*
%TO.N,DDR_A0*%
X145600000Y-114800000D03*
X120100000Y-96900000D03*
X145600000Y-100400000D03*
%TO.N,DDR0_D3*%
X122100000Y-106100000D03*
X135840000Y-112160000D03*
%TO.N,DDR0_D6*%
X137200000Y-110400000D03*
X119700000Y-104500000D03*
%TO.N,DDR3_D1*%
X119700000Y-106100000D03*
X139600000Y-110400000D03*
%TO.N,+2V5*%
X116500000Y-105300000D03*
X115700000Y-102900000D03*
X129487500Y-70875000D03*
X118900000Y-101300000D03*
X128012500Y-72050000D03*
X128012500Y-70275000D03*
X114900000Y-99650000D03*
X128650000Y-71200000D03*
%TO.N,DDR3_D3*%
X138800000Y-115200000D03*
X122070000Y-110100000D03*
%TO.N,DDR3_D2*%
X140400000Y-116000000D03*
X121500000Y-111000000D03*
%TO.N,DDR2_D4*%
X135300000Y-101200000D03*
X119700000Y-100500000D03*
%TO.N,+1V1*%
X129687500Y-82600000D03*
X128212500Y-81675000D03*
X117340000Y-102070000D03*
X128162500Y-83500000D03*
X117300000Y-105300000D03*
X129500000Y-84050000D03*
X128900000Y-82550000D03*
X116500000Y-102100000D03*
%TO.N,DDR3_D4*%
X139600000Y-111200000D03*
X120500000Y-107700000D03*
%TO.N,DDR3_D7*%
X141200000Y-111200000D03*
X121300000Y-108500000D03*
%TO.N,+3V3*%
X152810000Y-125150000D03*
X151300000Y-125150000D03*
X97600000Y-125900000D03*
X140162500Y-69875000D03*
X139450000Y-70700000D03*
X114900000Y-105380000D03*
X114900000Y-103700000D03*
X115700000Y-100550000D03*
X138537500Y-70875000D03*
X132200000Y-132430000D03*
X121197500Y-132150000D03*
X121710000Y-125000000D03*
X113300000Y-99700000D03*
X92592500Y-121600000D03*
X138950000Y-69700000D03*
X106600000Y-90900000D03*
%TO.N,DDR2_D1*%
X132800000Y-101200000D03*
X138400000Y-97800000D03*
%TO.N,DDR3_D6*%
X141200000Y-114335973D03*
X123700000Y-110500000D03*
%TO.N,DDR3_D5*%
X139600000Y-116000000D03*
X122495486Y-112495486D03*
%TO.N,DDR2_D5*%
X122100000Y-100500000D03*
X135355094Y-100421640D03*
%TO.N,DDR3_DM*%
X139000000Y-112100000D03*
X119700000Y-106900000D03*
%TO.N,DDR2_D2*%
X138019597Y-100800001D03*
X121300000Y-102100000D03*
%TO.N,DDR2_DM*%
X122100000Y-99700000D03*
X138000000Y-100000000D03*
%TO.N,DDR2_D3*%
X120500000Y-102100000D03*
X137200000Y-101600000D03*
%TO.N,DDR3_D0*%
X119700000Y-105300000D03*
X141200001Y-110400001D03*
%TO.N,DDR_CKP*%
X122930000Y-97300000D03*
X142500000Y-97900000D03*
X142467527Y-112300000D03*
%TO.N,DDR_CKN*%
X122192798Y-97309602D03*
X143200000Y-97900000D03*
X143120000Y-112280000D03*
%TO.N,DDR0_DQSN*%
X136810000Y-112150000D03*
X122900000Y-106900000D03*
%TO.N,DDR0_DQSP*%
X137580000Y-112110000D03*
X123800000Y-106900000D03*
%TO.N,DDR3_DQSN*%
X140300000Y-113900000D03*
X127800000Y-113500000D03*
%TO.N,DDR3_DQSP*%
X127800000Y-114200000D03*
X139700000Y-114000000D03*
%TO.N,DDR2_DQSP*%
X123607202Y-99690398D03*
X137600000Y-97900000D03*
%TO.N,DDR2_DQSN*%
X136800000Y-97800000D03*
X122899760Y-99716081D03*
%TO.N,VTT*%
X146950000Y-120410000D03*
X151910000Y-115000000D03*
X142900000Y-120410000D03*
%TO.N,VCC*%
X159400000Y-109300000D03*
X159400000Y-106900000D03*
X159400000Y-114000000D03*
X159400000Y-102100000D03*
X111900000Y-79050000D03*
X159400000Y-94800000D03*
D15*
X151300000Y-72350000D03*
X151250000Y-77450000D03*
D14*
X134050000Y-71700000D03*
X133387500Y-80600000D03*
X159400000Y-92500000D03*
X159400000Y-99700000D03*
X129281250Y-75668750D03*
D15*
X152200000Y-78500000D03*
D14*
X159400000Y-111700000D03*
D15*
X152150000Y-73750000D03*
D14*
X133387500Y-72450000D03*
X159400000Y-104500000D03*
D15*
X153050000Y-72300000D03*
D14*
X134887500Y-72450000D03*
X159400000Y-97300000D03*
D15*
X101200000Y-134900000D03*
D14*
X134100000Y-81350000D03*
D15*
X153150000Y-77400000D03*
D14*
X134887500Y-80550000D03*
%TO.N,DONE*%
X118100000Y-107700000D03*
X126100000Y-123950000D03*
X158935000Y-134900000D03*
%TO.N,CFG_0*%
X118100000Y-106900000D03*
X124700000Y-124000000D03*
%TO.N,CFG_1*%
X122700000Y-124000000D03*
X118900000Y-106900000D03*
%TO.N,CFG_2*%
X118900000Y-107700000D03*
X123700000Y-124000000D03*
%TO.N,SD_IO2*%
X123100000Y-135200000D03*
X115700000Y-106100000D03*
%TO.N,SD_IO3*%
X132400000Y-133800000D03*
X116500000Y-106100000D03*
%TO.N,Net-(U9-REFIN)*%
X145450000Y-125850000D03*
%TO.N,Net-(U11-VCCCORE)*%
X113350000Y-79150000D03*
%TO.N,+3V3_FT232*%
X111562500Y-71687500D03*
X114950000Y-73650000D03*
X108150000Y-83650000D03*
X113400000Y-84000000D03*
X108250000Y-78900000D03*
X118725000Y-81050000D03*
%TO.N,Net-(U11-REF)*%
X108100000Y-80450000D03*
%TO.N,EEDAT*%
X107625000Y-73650000D03*
X111400000Y-75400000D03*
%TO.N,FT232_DP*%
X148795563Y-69326619D03*
X103350000Y-68600000D03*
%TO.N,Net-(U11-ACBUS4)*%
X117100000Y-82700000D03*
%TO.N,Net-(U11-ACBUS7)*%
X117100000Y-81000000D03*
%TO.N,FT232_CLKOUT*%
X115700000Y-98100000D03*
X116000000Y-82000000D03*
%TO.N,FT232_D4*%
X113300000Y-98100000D03*
X111600000Y-89000000D03*
%TO.N,FT232_D5*%
X111600000Y-90100000D03*
X113300000Y-97300000D03*
%TO.N,FT232_D7*%
X114900000Y-97300000D03*
X113200000Y-91800000D03*
%TO.N,FT232_D6*%
X114100000Y-98100000D03*
X112500000Y-91000000D03*
%TO.N,FT232_#WR*%
X116500000Y-86500000D03*
X116500000Y-98900000D03*
%TO.N,FT232_#OE*%
X114900000Y-98100000D03*
X116300000Y-81200000D03*
%TO.N,LVDS_CLKP*%
X110900000Y-103700000D03*
%TO.N,LVDS_CLKN*%
X111675370Y-103711076D03*
%TO.N,LVDS_D7N*%
X100500000Y-110700000D03*
%TO.N,LVDS_D8N*%
X96200000Y-113700000D03*
X113300000Y-104500000D03*
%TO.N,LVDS_D8P*%
X96200000Y-112900000D03*
X113300000Y-103700000D03*
%TO.N,LVDS_D0N*%
X96200000Y-92100000D03*
%TO.N,LVDS_D2N*%
X96200000Y-96900000D03*
%TO.N,LVDS_D1P*%
X112500000Y-98100000D03*
%TO.N,LVDS_D7P*%
X99800000Y-110700000D03*
%TO.N,LVDS_D1N*%
X112500000Y-98900000D03*
%TO.N,LVDS_D0P*%
X96200000Y-91300000D03*
%TO.N,LVDS_D4N*%
X111700000Y-99700000D03*
X96200000Y-104100000D03*
%TO.N,LVDS_D6P*%
X114900000Y-102100000D03*
%TO.N,LVDS_D3N*%
X112500000Y-101300000D03*
%TO.N,LVDS_D3P*%
X112500000Y-100500000D03*
%TO.N,LVDS_D2P*%
X96200000Y-96100000D03*
%TO.N,LVDS_D5N*%
X96200000Y-106500000D03*
X114100000Y-100500000D03*
%TO.N,LVDS_D5P*%
X113300000Y-100500000D03*
X96200000Y-105700000D03*
%TO.N,LVDS_D6N*%
X114100000Y-102100000D03*
%TO.N,LVDS_D4P*%
X96200000Y-103300000D03*
X110900000Y-99700000D03*
%TO.N,LCD_R3*%
X99600000Y-129200000D03*
X114100000Y-104500000D03*
%TO.N,LCD_G1*%
X106700000Y-115500000D03*
X102600000Y-129300000D03*
X112500000Y-106100000D03*
%TO.N,LCD_G7*%
X105600000Y-133000000D03*
X112500000Y-107700000D03*
%TO.N,LCD_R2*%
X114100000Y-103700000D03*
X107100000Y-113100000D03*
%TO.N,LCD_G0*%
X112500000Y-105300000D03*
X102100000Y-130100000D03*
X105600000Y-115800000D03*
%TO.N,LCD_B2*%
X113300000Y-107700000D03*
X107100000Y-133000000D03*
%TO.N,LCD_G5*%
X104600000Y-130100000D03*
X112500000Y-106900000D03*
%TO.N,LCD_R4*%
X108400000Y-115400000D03*
X113300000Y-105300000D03*
%TO.N,LCD_R7*%
X102500000Y-133000000D03*
X111700000Y-107700000D03*
%TO.N,LCD_B5*%
X113000000Y-111900000D03*
X108600000Y-133000000D03*
%TO.N,LCD_R5*%
X101400000Y-133200000D03*
X114100000Y-105300000D03*
X107650000Y-115350000D03*
%TO.N,LCD_DISP*%
X111500000Y-130600000D03*
X114100000Y-107700000D03*
D15*
%TO.N,LCD_BACKLIGHT_PWR*%
X98455000Y-135365000D03*
D14*
%TO.N,LCD_HSYNC*%
X111600000Y-133100000D03*
X114900000Y-106100000D03*
%TO.N,LCD_B7*%
X110000000Y-130200000D03*
X113900000Y-110400000D03*
%TO.N,LCD_G4*%
X113300000Y-106100000D03*
X104100000Y-132900000D03*
%TO.N,LCD_DCLK*%
X114100000Y-106100000D03*
X110700000Y-130400000D03*
%TO.N,LCD_G6*%
X113300000Y-106900000D03*
X105400000Y-130600000D03*
%TO.N,TDI*%
X118888500Y-108500000D03*
%TO.N,TDO*%
X118100000Y-106100000D03*
%TO.N,FT232_DN*%
X103300000Y-69350000D03*
X148100000Y-69350000D03*
D15*
%TO.N,LCD_BACKLIGHT_GND*%
X91955000Y-131190000D03*
%TD*%
D16*
%TO.N,DDR_A0*%
X147400000Y-104600000D02*
X147400000Y-105600000D01*
X146750000Y-103473000D02*
X146750000Y-103950000D01*
X146000000Y-102723000D02*
X146750000Y-103473000D01*
X146000000Y-100800000D02*
X146000000Y-102723000D01*
X146750000Y-103950000D02*
X147400000Y-104600000D01*
X145600000Y-100400000D02*
X146000000Y-100800000D01*
%TO.N,DDR_CKE*%
X142074000Y-91280000D02*
X142520000Y-91280000D01*
X143460000Y-107469063D02*
X143740000Y-107469063D01*
X143460000Y-106489063D02*
X143740000Y-106489063D01*
X140182000Y-91728000D02*
X140182000Y-90832000D01*
X122603529Y-93223578D02*
X122545548Y-93281560D01*
X129870000Y-91470000D02*
X135297671Y-91470000D01*
X141644000Y-91900000D02*
X141730000Y-91900000D01*
X136501671Y-90850000D02*
X136587671Y-90850000D01*
X144400000Y-96900000D02*
X144400000Y-97700000D01*
X141042000Y-91728000D02*
X141042000Y-90832000D01*
X121300000Y-95137698D02*
X121300000Y-97300000D01*
X141472000Y-90832000D02*
X141472000Y-91728000D01*
X143406710Y-92166710D02*
X143600000Y-92360000D01*
X143320000Y-107119063D02*
X143320000Y-107329063D01*
X139752000Y-90832000D02*
X139752000Y-91728000D01*
X137619671Y-91022000D02*
X137619671Y-91918000D01*
X140354000Y-90660000D02*
X140440000Y-90660000D01*
X144400000Y-97700000D02*
X143600000Y-98500000D01*
X136071671Y-92090000D02*
X136157671Y-92090000D01*
X122771822Y-92348178D02*
X123900000Y-91220000D01*
X143600000Y-108589063D02*
X143600000Y-109300000D01*
X138479671Y-91022000D02*
X138479671Y-91298000D01*
X138221671Y-90850000D02*
X138307671Y-90850000D01*
X141214000Y-90660000D02*
X141300000Y-90660000D01*
X143460000Y-106979063D02*
X143740000Y-106979063D01*
X136329671Y-91918000D02*
X136329671Y-91022000D01*
X122128353Y-92516468D02*
X122365940Y-92754055D01*
X137189671Y-91918000D02*
X137189671Y-91022000D01*
X143600000Y-92360000D02*
X143600000Y-95200000D01*
X123900000Y-91220000D02*
X123900000Y-91200000D01*
X122186336Y-92226555D02*
X122128353Y-92284537D01*
X121838439Y-92806385D02*
X122076027Y-93043973D01*
X143600000Y-95200000D02*
X143988500Y-95588500D01*
X136931671Y-92090000D02*
X137017671Y-92090000D01*
X143460000Y-107959063D02*
X143740000Y-107959063D01*
X143460000Y-105999063D02*
X143740000Y-105999063D01*
X140784000Y-91900000D02*
X140870000Y-91900000D01*
X143880000Y-107609063D02*
X143880000Y-107819063D01*
X121300000Y-95018000D02*
X121300000Y-95100000D01*
X121606508Y-92806385D02*
X121548525Y-92864367D01*
X138651671Y-91470000D02*
X138960000Y-91470000D01*
X120964000Y-94854000D02*
X121136000Y-94854000D01*
X135641671Y-90850000D02*
X135727671Y-90850000D01*
X143988500Y-96488500D02*
X144400000Y-96900000D01*
X143200000Y-109700000D02*
X143200000Y-110000000D01*
X143541061Y-91424249D02*
X143601872Y-91485060D01*
X121300000Y-97300000D02*
X120900000Y-97700000D01*
X143320000Y-108099063D02*
X143320000Y-108309063D01*
X143880000Y-106629063D02*
X143880000Y-106839063D01*
X121548525Y-93096298D02*
X121670147Y-93217920D01*
X139924000Y-91900000D02*
X140010000Y-91900000D01*
X143102655Y-91619411D02*
X143297817Y-91424250D01*
X136759671Y-91022000D02*
X136759671Y-91918000D01*
X122539890Y-92348178D02*
X122418267Y-92226555D01*
X142520000Y-91280000D02*
X142859411Y-91619411D01*
X129600000Y-91200000D02*
X129870000Y-91470000D01*
X140612000Y-90832000D02*
X140612000Y-91728000D01*
X135469671Y-91298000D02*
X135469671Y-91022000D01*
X143600000Y-109300000D02*
X143200000Y-109700000D01*
X120800000Y-94608000D02*
X120800000Y-94690000D01*
X122365942Y-92754058D02*
X122603530Y-92991646D01*
X135899671Y-91022000D02*
X135899671Y-91918000D01*
X137791671Y-92090000D02*
X137877671Y-92090000D01*
X139494000Y-90660000D02*
X139580000Y-90660000D01*
X138049671Y-91918000D02*
X138049671Y-91022000D01*
X143320000Y-106139063D02*
X143320000Y-106349063D01*
X139322000Y-91108000D02*
X139322000Y-90832000D01*
X141902000Y-91728000D02*
X141902000Y-91452000D01*
X121300000Y-93820000D02*
X121670147Y-93449851D01*
X138960000Y-91470000D02*
X139150000Y-91280000D01*
X122365940Y-92754055D02*
X122365942Y-92754058D01*
X143601872Y-91728304D02*
X143406711Y-91923466D01*
X143600000Y-98500000D02*
X143600000Y-105369063D01*
X137361671Y-90850000D02*
X137447671Y-90850000D01*
X143880000Y-105649063D02*
X143880000Y-105859063D01*
X122076029Y-93043974D02*
X122076027Y-93043973D01*
X121300000Y-93820000D02*
X121300000Y-94280000D01*
X121136000Y-94444000D02*
X120964000Y-94444000D01*
X121300000Y-95100000D02*
X121300000Y-95137698D01*
X123900000Y-91200000D02*
X129600000Y-91200000D01*
X122313616Y-93281561D02*
X122076029Y-93043974D01*
X143988500Y-95588500D02*
X143988500Y-96488500D01*
X136157671Y-92090000D02*
G75*
G03*
X136329700Y-91918000I29J172000D01*
G01*
X143460000Y-105999063D02*
G75*
G03*
X143319963Y-106139063I0J-140037D01*
G01*
X121548525Y-92864367D02*
G75*
G03*
X121548557Y-93096265I115975J-115933D01*
G01*
X142859411Y-91619411D02*
G75*
G03*
X143102655Y-91619411I121622J121620D01*
G01*
X120964000Y-94444000D02*
G75*
G03*
X120800000Y-94608000I0J-164000D01*
G01*
X143320000Y-107329063D02*
G75*
G03*
X143460000Y-107469100I140000J-37D01*
G01*
X143320000Y-106349063D02*
G75*
G03*
X143460000Y-106489100I140000J-37D01*
G01*
X137017671Y-92090000D02*
G75*
G03*
X137189700Y-91918000I29J172000D01*
G01*
X137877671Y-92090000D02*
G75*
G03*
X138049700Y-91918000I29J172000D01*
G01*
X143880000Y-106839063D02*
G75*
G02*
X143740000Y-106979100I-140000J-37D01*
G01*
X143601872Y-91485060D02*
G75*
G02*
X143601890Y-91728322I-121572J-121640D01*
G01*
X135727671Y-90850000D02*
G75*
G02*
X135899700Y-91022000I29J-172000D01*
G01*
X141730000Y-91900000D02*
G75*
G03*
X141902000Y-91728000I0J172000D01*
G01*
X143460000Y-108449063D02*
G75*
G02*
X143600037Y-108589063I0J-140037D01*
G01*
X138307671Y-90850000D02*
G75*
G02*
X138479700Y-91022000I29J-172000D01*
G01*
X121300000Y-94280000D02*
G75*
G02*
X121136000Y-94444000I-164000J0D01*
G01*
X143460000Y-107959063D02*
G75*
G03*
X143319963Y-108099063I0J-140037D01*
G01*
X135297671Y-91470000D02*
G75*
G03*
X135469700Y-91298000I29J172000D01*
G01*
X143740000Y-105509063D02*
G75*
G02*
X143880037Y-105649063I0J-140037D01*
G01*
X143460000Y-106979063D02*
G75*
G03*
X143319963Y-107119063I0J-140037D01*
G01*
X141902000Y-91452000D02*
G75*
G02*
X142074000Y-91280000I172000J0D01*
G01*
X143297817Y-91424250D02*
G75*
G02*
X143541022Y-91424288I121583J-121650D01*
G01*
X122418267Y-92226555D02*
G75*
G03*
X122186337Y-92226555I-115965J-115964D01*
G01*
X122603530Y-92991646D02*
G75*
G02*
X122603518Y-93223566I-115930J-115954D01*
G01*
X140010000Y-91900000D02*
G75*
G03*
X140182000Y-91728000I0J172000D01*
G01*
X143740000Y-107469063D02*
G75*
G02*
X143880037Y-107609063I0J-140037D01*
G01*
X140440000Y-90660000D02*
G75*
G02*
X140612000Y-90832000I0J-172000D01*
G01*
X140870000Y-91900000D02*
G75*
G03*
X141042000Y-91728000I0J172000D01*
G01*
X121838439Y-92806385D02*
G75*
G03*
X121606509Y-92806385I-115965J-115964D01*
G01*
X143406711Y-91923466D02*
G75*
G03*
X143406698Y-92166722I121589J-121634D01*
G01*
X138049671Y-91022000D02*
G75*
G02*
X138221671Y-90849971I172029J0D01*
G01*
X143880000Y-105859063D02*
G75*
G02*
X143740000Y-105999100I-140000J-37D01*
G01*
X136759671Y-91918000D02*
G75*
G03*
X136931671Y-92090029I172029J0D01*
G01*
X143320000Y-108309063D02*
G75*
G03*
X143460000Y-108449100I140000J-37D01*
G01*
X143600000Y-105369063D02*
G75*
G03*
X143740000Y-105509100I140000J-37D01*
G01*
X141300000Y-90660000D02*
G75*
G02*
X141472000Y-90832000I0J-172000D01*
G01*
X137619671Y-91918000D02*
G75*
G03*
X137791671Y-92090029I172029J0D01*
G01*
X135469671Y-91022000D02*
G75*
G02*
X135641671Y-90849971I172029J0D01*
G01*
X137447671Y-90850000D02*
G75*
G02*
X137619700Y-91022000I29J-172000D01*
G01*
X140612000Y-91728000D02*
G75*
G03*
X140784000Y-91900000I172000J0D01*
G01*
X138479671Y-91298000D02*
G75*
G03*
X138651671Y-91470029I172029J0D01*
G01*
X121136000Y-94854000D02*
G75*
G02*
X121300000Y-95018000I0J-164000D01*
G01*
X122128353Y-92284537D02*
G75*
G03*
X122128355Y-92516465I115947J-115963D01*
G01*
X141472000Y-91728000D02*
G75*
G03*
X141644000Y-91900000I172000J0D01*
G01*
X139580000Y-90660000D02*
G75*
G02*
X139752000Y-90832000I0J-172000D01*
G01*
X136587671Y-90850000D02*
G75*
G02*
X136759700Y-91022000I29J-172000D01*
G01*
X143880000Y-107819063D02*
G75*
G02*
X143740000Y-107959100I-140000J-37D01*
G01*
X136329671Y-91022000D02*
G75*
G02*
X136501671Y-90849971I172029J0D01*
G01*
X139150000Y-91280000D02*
G75*
G03*
X139322000Y-91108000I0J172000D01*
G01*
X121670147Y-93217920D02*
G75*
G02*
X121670162Y-93449866I-115947J-115980D01*
G01*
X120800000Y-94690000D02*
G75*
G03*
X120964000Y-94854000I164000J0D01*
G01*
X141042000Y-90832000D02*
G75*
G02*
X141214000Y-90660000I172000J0D01*
G01*
X122545548Y-93281560D02*
G75*
G02*
X122313635Y-93281543I-115948J115960D01*
G01*
X143740000Y-106489063D02*
G75*
G02*
X143880037Y-106629063I0J-140037D01*
G01*
X137189671Y-91022000D02*
G75*
G02*
X137361671Y-90849971I172029J0D01*
G01*
X122771822Y-92348178D02*
G75*
G02*
X122539890Y-92348178I-115966J115965D01*
G01*
X135899671Y-91918000D02*
G75*
G03*
X136071671Y-92090029I172029J0D01*
G01*
X140182000Y-90832000D02*
G75*
G02*
X140354000Y-90660000I172000J0D01*
G01*
X139752000Y-91728000D02*
G75*
G03*
X139924000Y-91900000I172000J0D01*
G01*
X139322000Y-90832000D02*
G75*
G02*
X139494000Y-90660000I172000J0D01*
G01*
D17*
%TO.N,DDR0_D1*%
X118990000Y-115580000D02*
X121430000Y-118020000D01*
X120097000Y-107303000D02*
X120097000Y-108043000D01*
X120130000Y-106470000D02*
X120130000Y-107270000D01*
X118990000Y-109150000D02*
X118990000Y-115580000D01*
X120500000Y-106100000D02*
X120130000Y-106470000D01*
X121430000Y-118020000D02*
X134380000Y-118020000D01*
X134380000Y-118020000D02*
X137200000Y-115200000D01*
X120097000Y-108043000D02*
X118990000Y-109150000D01*
X120130000Y-107270000D02*
X120097000Y-107303000D01*
D16*
%TO.N,DDR_BA0*%
X145000000Y-103800000D02*
X145000000Y-104137294D01*
X126418136Y-90492000D02*
X126418136Y-89968000D01*
X144800000Y-101200000D02*
X144410000Y-101590000D01*
X124538136Y-90042000D02*
X124538136Y-89968000D01*
X125948136Y-89968000D02*
X125948136Y-90492000D01*
X144780000Y-106857294D02*
X144780000Y-107137294D01*
X144411500Y-91841500D02*
X144411500Y-93230750D01*
X144890000Y-106247294D02*
X145110000Y-106247294D01*
X144890000Y-105747294D02*
X145110000Y-105747294D01*
X120900000Y-95710000D02*
X120900000Y-96900000D01*
X125478136Y-90492000D02*
X125478136Y-89968000D01*
X144410000Y-112000000D02*
X144400000Y-112000000D01*
X121658084Y-91936892D02*
X121552017Y-92042960D01*
X144388500Y-98911500D02*
X144388500Y-100788500D01*
X125008136Y-89968000D02*
X125008136Y-90492000D01*
X121887894Y-91212106D02*
X121764150Y-91088362D01*
X122011639Y-91335851D02*
X121887896Y-91212108D01*
X127828136Y-89968000D02*
X127828136Y-90492000D01*
X144400000Y-112000000D02*
X144100000Y-112300000D01*
X120230000Y-92870000D02*
X120230000Y-95040000D01*
X120230000Y-95040000D02*
X120900000Y-95710000D01*
X144741500Y-93560750D02*
X144741500Y-93780750D01*
X127076136Y-90680000D02*
X127170136Y-90680000D01*
X127358136Y-90492000D02*
X127358136Y-89968000D01*
X144410000Y-108600000D02*
X145000000Y-108010000D01*
X144100000Y-113880000D02*
X144800000Y-114580000D01*
X144780000Y-105857294D02*
X144780000Y-106137294D01*
X142800000Y-90230000D02*
X144411500Y-91841500D01*
X126606136Y-89780000D02*
X126700136Y-89780000D01*
X144890000Y-105247294D02*
X145110000Y-105247294D01*
X144100000Y-112300000D02*
X144100000Y-113880000D01*
X121534338Y-91565658D02*
X121534340Y-91565660D01*
X128486136Y-90230000D02*
X142800000Y-90230000D01*
X144780000Y-104857294D02*
X144780000Y-105137294D01*
X145000000Y-107357294D02*
X145000000Y-108010000D01*
X125196136Y-90680000D02*
X125290136Y-90680000D01*
X121180788Y-91919216D02*
X121180786Y-91919214D01*
X121887896Y-91212108D02*
X121887894Y-91212106D01*
X122365192Y-91229784D02*
X122259125Y-91335852D01*
X126888136Y-89968000D02*
X126888136Y-90492000D01*
X145220000Y-105357294D02*
X145220000Y-105637294D01*
X120809554Y-91795470D02*
X120703487Y-91901536D01*
X122870000Y-90230000D02*
X124350136Y-90230000D01*
X145220000Y-104357294D02*
X145220000Y-104637294D01*
X144410000Y-103210000D02*
X145000000Y-103800000D01*
X124726136Y-89780000D02*
X124820136Y-89780000D01*
X144890000Y-106747294D02*
X145110000Y-106747294D01*
X121304531Y-92042959D02*
X121180788Y-91919216D01*
X125666136Y-89780000D02*
X125760136Y-89780000D01*
X145220000Y-106357294D02*
X145220000Y-106637294D01*
X144411500Y-96560922D02*
X144700000Y-96849422D01*
X144410000Y-101590000D02*
X144410000Y-103210000D01*
X144388500Y-100788500D02*
X144800000Y-101200000D01*
X144700000Y-98600000D02*
X144388500Y-98911500D01*
X121534340Y-91565660D02*
X121658084Y-91689404D01*
X128298136Y-90492000D02*
X128298136Y-90418000D01*
X122365192Y-90734808D02*
X122870000Y-90230000D01*
X144410000Y-108600000D02*
X144410000Y-112000000D01*
X120230000Y-92870000D02*
X120703487Y-92396510D01*
X144890000Y-104747294D02*
X145110000Y-104747294D01*
X128016136Y-90680000D02*
X128110136Y-90680000D01*
X144800000Y-114580000D02*
X144800000Y-115600000D01*
X144700000Y-96849422D02*
X144700000Y-98600000D01*
X121180786Y-91919214D02*
X121057042Y-91795470D01*
X126136136Y-90680000D02*
X126230136Y-90680000D01*
X121516662Y-91088362D02*
X121410595Y-91194428D01*
X144411500Y-94110750D02*
X144411500Y-96560922D01*
X127546136Y-89780000D02*
X127640136Y-89780000D01*
X121410595Y-91441915D02*
X121534338Y-91565658D01*
X126700136Y-89780000D02*
G75*
G02*
X126888100Y-89968000I-36J-188000D01*
G01*
X144780000Y-106137294D02*
G75*
G03*
X144890000Y-106247300I110000J-6D01*
G01*
X145110000Y-106247294D02*
G75*
G02*
X145220006Y-106357294I0J-110006D01*
G01*
X125008136Y-90492000D02*
G75*
G03*
X125196136Y-90679964I187964J0D01*
G01*
X121057042Y-91795470D02*
G75*
G03*
X120809554Y-91795470I-123744J-123746D01*
G01*
X126230136Y-90680000D02*
G75*
G03*
X126418100Y-90492000I-36J188000D01*
G01*
X125290136Y-90680000D02*
G75*
G03*
X125478100Y-90492000I-36J188000D01*
G01*
X145110000Y-104247294D02*
G75*
G02*
X145220006Y-104357294I0J-110006D01*
G01*
X128110136Y-90680000D02*
G75*
G03*
X128298100Y-90492000I-36J188000D01*
G01*
X144576500Y-93395750D02*
G75*
G02*
X144741450Y-93560750I0J-164950D01*
G01*
X145220000Y-105637294D02*
G75*
G02*
X145110000Y-105747300I-110000J-6D01*
G01*
X121658084Y-91689404D02*
G75*
G02*
X121658036Y-91936844I-123784J-123696D01*
G01*
X121410595Y-91194428D02*
G75*
G03*
X121410566Y-91441944I123705J-123772D01*
G01*
X127358136Y-89968000D02*
G75*
G02*
X127546136Y-89780036I187964J0D01*
G01*
X125478136Y-89968000D02*
G75*
G02*
X125666136Y-89780036I187964J0D01*
G01*
X125948136Y-90492000D02*
G75*
G03*
X126136136Y-90679964I187964J0D01*
G01*
X122365192Y-90734808D02*
G75*
G03*
X122365144Y-90982344I123708J-123792D01*
G01*
X124820136Y-89780000D02*
G75*
G02*
X125008100Y-89968000I-36J-188000D01*
G01*
X124538136Y-89968000D02*
G75*
G02*
X124726136Y-89780036I187964J0D01*
G01*
X124350136Y-90230000D02*
G75*
G03*
X124538100Y-90042000I-36J188000D01*
G01*
X120703487Y-91901536D02*
G75*
G03*
X120703466Y-92149044I123713J-123764D01*
G01*
X144780000Y-107137294D02*
G75*
G03*
X144890000Y-107247300I110000J-6D01*
G01*
X145220000Y-106637294D02*
G75*
G02*
X145110000Y-106747300I-110000J-6D01*
G01*
X127170136Y-90680000D02*
G75*
G03*
X127358100Y-90492000I-36J188000D01*
G01*
X126888136Y-90492000D02*
G75*
G03*
X127076136Y-90679964I187964J0D01*
G01*
X144741500Y-93780750D02*
G75*
G02*
X144576500Y-93945800I-165000J-50D01*
G01*
X127828136Y-90492000D02*
G75*
G03*
X128016136Y-90679964I187964J0D01*
G01*
X145220000Y-104637294D02*
G75*
G02*
X145110000Y-104747300I-110000J-6D01*
G01*
X144890000Y-104747294D02*
G75*
G03*
X144779994Y-104857294I0J-110006D01*
G01*
X126418136Y-89968000D02*
G75*
G02*
X126606136Y-89780036I187964J0D01*
G01*
X122365192Y-90982296D02*
G75*
G02*
X122365152Y-91229744I-123792J-123704D01*
G01*
X121552017Y-92042960D02*
G75*
G02*
X121304556Y-92042934I-123717J123760D01*
G01*
X144890000Y-106747294D02*
G75*
G03*
X144779994Y-106857294I0J-110006D01*
G01*
X125760136Y-89780000D02*
G75*
G02*
X125948100Y-89968000I-36J-188000D01*
G01*
X145110000Y-105247294D02*
G75*
G02*
X145220006Y-105357294I0J-110006D01*
G01*
X145000000Y-104137294D02*
G75*
G03*
X145110000Y-104247300I110000J-6D01*
G01*
X144890000Y-105747294D02*
G75*
G03*
X144779994Y-105857294I0J-110006D01*
G01*
X144576500Y-93945750D02*
G75*
G03*
X144411550Y-94110750I0J-164950D01*
G01*
X144780000Y-105137294D02*
G75*
G03*
X144890000Y-105247300I110000J-6D01*
G01*
X144890000Y-107247294D02*
G75*
G02*
X145000006Y-107357294I0J-110006D01*
G01*
X127640136Y-89780000D02*
G75*
G02*
X127828100Y-89968000I-36J-188000D01*
G01*
X144411500Y-93230750D02*
G75*
G03*
X144576500Y-93395800I165000J-50D01*
G01*
X120703487Y-92149023D02*
G75*
G02*
X120703521Y-92396543I-123787J-123777D01*
G01*
X128298136Y-90418000D02*
G75*
G02*
X128486136Y-90230036I187964J0D01*
G01*
X121764150Y-91088362D02*
G75*
G03*
X121516662Y-91088362I-123744J-123746D01*
G01*
X122259125Y-91335852D02*
G75*
G02*
X122011657Y-91335834I-123725J123752D01*
G01*
%TO.N,DDR_A11*%
X147200000Y-97200000D02*
X147400000Y-97200000D01*
X149400000Y-101750000D02*
X149400000Y-107600000D01*
X145000000Y-87200000D02*
X120000000Y-87200000D01*
X149400000Y-107600000D02*
X147588500Y-109411500D01*
X147611500Y-96988500D02*
X147611500Y-94388500D01*
X147500000Y-97200000D02*
X149400000Y-99100000D01*
X149400000Y-99100000D02*
X149400000Y-100200000D01*
X117000000Y-90200000D02*
X117000000Y-96200000D01*
X117000000Y-96200000D02*
X117700000Y-96900000D01*
X148100000Y-93900000D02*
X148100000Y-90300000D01*
X149225000Y-100975000D02*
X149575000Y-100975000D01*
X147200000Y-97200000D02*
X147500000Y-97200000D01*
X147588500Y-111211500D02*
X147200000Y-111600000D01*
X149050000Y-101150000D02*
X149050000Y-101400000D01*
X147400000Y-97200000D02*
X147611500Y-96988500D01*
X147611500Y-94388500D02*
X148100000Y-93900000D01*
X147588500Y-109411500D02*
X147588500Y-111211500D01*
X148100000Y-90300000D02*
X145000000Y-87200000D01*
X149750000Y-100550000D02*
X149750000Y-100800000D01*
X120000000Y-87200000D02*
X117000000Y-90200000D01*
X149225000Y-100975000D02*
G75*
G03*
X149050000Y-101150000I0J-175000D01*
G01*
X149750000Y-100800000D02*
G75*
G02*
X149575000Y-100975000I-175000J0D01*
G01*
X149400000Y-100200000D02*
G75*
G03*
X149575000Y-100375000I175000J0D01*
G01*
X149575000Y-100375000D02*
G75*
G02*
X149750000Y-100550000I0J-175000D01*
G01*
X149050000Y-101400000D02*
G75*
G03*
X149225000Y-101575000I175000J0D01*
G01*
X149225000Y-101575000D02*
G75*
G02*
X149400000Y-101750000I0J-175000D01*
G01*
%TO.N,DDR_#CAS*%
X137813580Y-95700000D02*
X138200000Y-95700000D01*
X138660000Y-95240000D02*
X138651769Y-95248231D01*
X136733580Y-95470000D02*
X136733580Y-95930000D01*
X127359731Y-94542000D02*
X127359731Y-95258000D01*
X138200000Y-95700000D02*
X138651769Y-95248231D01*
X135203580Y-95700000D02*
X134800000Y-95700000D01*
X123100000Y-97900000D02*
X124961771Y-96038229D01*
X136283580Y-95930000D02*
X136283580Y-95470000D01*
X141905971Y-99226803D02*
X141961125Y-99281957D01*
X143600000Y-111900000D02*
X143600000Y-114387366D01*
X142370000Y-103835969D02*
X142630000Y-103835969D01*
X140600000Y-95730000D02*
X140600000Y-95680000D01*
X136913580Y-96110000D02*
X137003580Y-96110000D01*
X126100000Y-94900000D02*
X126757731Y-94900000D01*
X142370000Y-103235969D02*
X142630000Y-103235969D01*
X142760000Y-103965969D02*
X142760000Y-104305969D01*
X142500000Y-106965969D02*
X142500000Y-110800000D01*
X135833580Y-95520000D02*
X135833580Y-95930000D01*
X124381944Y-94779580D02*
X124466798Y-94694727D01*
X141475000Y-98315000D02*
X141475000Y-97775000D01*
X140600000Y-96900000D02*
X141475000Y-97775000D01*
X129079731Y-94542000D02*
X129079731Y-95258000D01*
X140600000Y-95860000D02*
X140600000Y-95730000D01*
X135383580Y-95520000D02*
X135383580Y-95470000D01*
X142311849Y-99151849D02*
X142441955Y-99021740D01*
X128219731Y-94542000D02*
X128219731Y-95258000D01*
X142760000Y-106365969D02*
X142760000Y-106705969D01*
X140160000Y-95240000D02*
X138660000Y-95240000D01*
X130369731Y-95258000D02*
X130369731Y-94542000D01*
X128649731Y-95258000D02*
X128649731Y-94542000D01*
X142370000Y-106235969D02*
X142630000Y-106235969D01*
X132519731Y-94542000D02*
X132519731Y-95258000D01*
X142973698Y-99813698D02*
X143190000Y-100030000D01*
X129509731Y-95258000D02*
X129509731Y-94542000D01*
X142760000Y-102765969D02*
X142760000Y-103105969D01*
X132949731Y-95258000D02*
X132949731Y-94542000D01*
X130197731Y-94370000D02*
X130111731Y-94370000D01*
X128907731Y-95430000D02*
X128821731Y-95430000D01*
X130799731Y-94542000D02*
X130799731Y-95258000D01*
X129939731Y-94542000D02*
X129939731Y-95258000D01*
X142111033Y-98470201D02*
X142166187Y-98525355D01*
X124961772Y-95698817D02*
X124381945Y-95118990D01*
X142370000Y-105635969D02*
X142630000Y-105635969D01*
X142760000Y-105165969D02*
X142760000Y-105505969D01*
X142181742Y-99281957D02*
X142311849Y-99151849D01*
X142370000Y-105035969D02*
X142630000Y-105035969D01*
X128477731Y-94370000D02*
X128391731Y-94370000D01*
X140470000Y-96380000D02*
X140730000Y-96380000D01*
X131659731Y-94542000D02*
X131659731Y-95258000D01*
X135833580Y-95470000D02*
X135833580Y-95520000D01*
X124806210Y-94694727D02*
X125386038Y-95274555D01*
X132777731Y-94370000D02*
X132691731Y-94370000D01*
X137183580Y-95930000D02*
X137183580Y-95520000D01*
X131229731Y-95258000D02*
X131229731Y-94542000D01*
X131057731Y-94370000D02*
X130971731Y-94370000D01*
X141905971Y-99006186D02*
X142146388Y-98765770D01*
X127789731Y-95258000D02*
X127789731Y-94542000D01*
X140860000Y-96250000D02*
X140860000Y-96120000D01*
X136013580Y-96110000D02*
X136103580Y-96110000D01*
X137183580Y-95520000D02*
X137183580Y-95470000D01*
X132089731Y-95258000D02*
X132089731Y-94542000D01*
X132347731Y-95430000D02*
X132261731Y-95430000D01*
X142500000Y-110800000D02*
X143600000Y-111900000D01*
X142477310Y-99537927D02*
X142717728Y-99297513D01*
X142500000Y-101100000D02*
X142500000Y-102505969D01*
X126929731Y-95258000D02*
X126929731Y-95072000D01*
X142370000Y-104435969D02*
X142630000Y-104435969D01*
X141870618Y-98490001D02*
X141890415Y-98470201D01*
X131487731Y-95430000D02*
X131401731Y-95430000D01*
X130627731Y-95430000D02*
X130541731Y-95430000D01*
X143600000Y-114387366D02*
X143200000Y-114787366D01*
X142166188Y-98745973D02*
X142146388Y-98765770D01*
X121700000Y-97700000D02*
X121900000Y-97900000D01*
X134800000Y-95700000D02*
X134000000Y-94900000D01*
X142477310Y-99537927D02*
X142457511Y-99557726D01*
X136463580Y-95290000D02*
X136553580Y-95290000D01*
X128047731Y-95430000D02*
X127961731Y-95430000D01*
X142662573Y-99021741D02*
X142717727Y-99076895D01*
X140340000Y-96640000D02*
X140340000Y-96510000D01*
X137363580Y-95290000D02*
X137453580Y-95290000D01*
X142240000Y-104565969D02*
X142240000Y-104905969D01*
X135563580Y-95290000D02*
X135653580Y-95290000D01*
X127187731Y-95430000D02*
X127101731Y-95430000D01*
X134000000Y-94900000D02*
X133551731Y-94900000D01*
X140160000Y-95240000D02*
X140600000Y-95680000D01*
X127617731Y-94370000D02*
X127531731Y-94370000D01*
X143190000Y-100030000D02*
X143200000Y-100030000D01*
X121900000Y-97900000D02*
X123100000Y-97900000D01*
X133207731Y-95430000D02*
X133121731Y-95430000D01*
X129767731Y-95430000D02*
X129681731Y-95430000D01*
X142240000Y-105765969D02*
X142240000Y-106105969D01*
X142240000Y-103365969D02*
X142240000Y-103705969D01*
X133379731Y-95072000D02*
X133379731Y-95258000D01*
X141650000Y-98490000D02*
X141475000Y-98315000D01*
X131917731Y-94370000D02*
X131831731Y-94370000D01*
X137633580Y-95470000D02*
X137633580Y-95520000D01*
X143200000Y-100030000D02*
X143200000Y-100400000D01*
X129337731Y-94370000D02*
X129251731Y-94370000D01*
X125725448Y-95274556D02*
X125810301Y-95189700D01*
X142733282Y-99833497D02*
X142753080Y-99813698D01*
X142457511Y-99778343D02*
X142512665Y-99833497D01*
X125810301Y-95189700D02*
X126100000Y-94900000D01*
X143200000Y-100400000D02*
X142500000Y-101100000D01*
X142240000Y-106105969D02*
G75*
G03*
X142370000Y-106236000I130000J-31D01*
G01*
X142760000Y-103105969D02*
G75*
G02*
X142630000Y-103236000I-130000J-31D01*
G01*
X128821731Y-95430000D02*
G75*
G02*
X128649700Y-95258000I-31J172000D01*
G01*
X137633580Y-95520000D02*
G75*
G03*
X137813580Y-95700020I180020J0D01*
G01*
X127531731Y-94370000D02*
G75*
G03*
X127359700Y-94542000I-31J-172000D01*
G01*
X142717727Y-99076895D02*
G75*
G02*
X142717723Y-99297509I-110327J-110305D01*
G01*
X142166187Y-98525355D02*
G75*
G02*
X142166224Y-98746009I-110287J-110345D01*
G01*
X136103580Y-96110000D02*
G75*
G03*
X136283600Y-95930000I20J180000D01*
G01*
X142760000Y-105505969D02*
G75*
G02*
X142630000Y-105636000I-130000J-31D01*
G01*
X142457511Y-99557726D02*
G75*
G03*
X142457545Y-99778308I110289J-110274D01*
G01*
X137003580Y-96110000D02*
G75*
G03*
X137183600Y-95930000I20J180000D01*
G01*
X133121731Y-95430000D02*
G75*
G02*
X132949700Y-95258000I-31J172000D01*
G01*
X142753080Y-99813698D02*
G75*
G02*
X142973698Y-99813698I110309J-110311D01*
G01*
X136283580Y-95470000D02*
G75*
G02*
X136463580Y-95289980I180020J0D01*
G01*
X131229731Y-94542000D02*
G75*
G03*
X131057731Y-94369969I-172031J0D01*
G01*
X132519731Y-95258000D02*
G75*
G02*
X132347731Y-95430031I-172031J0D01*
G01*
X142630000Y-106835969D02*
G75*
G03*
X142499969Y-106965969I0J-130031D01*
G01*
X124381945Y-95118990D02*
G75*
G02*
X124381959Y-94779595I169755J169690D01*
G01*
X129939731Y-95258000D02*
G75*
G02*
X129767731Y-95430031I-172031J0D01*
G01*
X131401731Y-95430000D02*
G75*
G02*
X131229700Y-95258000I-31J172000D01*
G01*
X127961731Y-95430000D02*
G75*
G02*
X127789700Y-95258000I-31J172000D01*
G01*
X141650000Y-98490000D02*
G75*
G03*
X141870608Y-98489992I110300J110300D01*
G01*
X130799731Y-95258000D02*
G75*
G02*
X130627731Y-95430031I-172031J0D01*
G01*
X135653580Y-95290000D02*
G75*
G02*
X135833600Y-95470000I20J-180000D01*
G01*
X142370000Y-103235969D02*
G75*
G03*
X142239969Y-103365969I0J-130031D01*
G01*
X135383580Y-95470000D02*
G75*
G02*
X135563580Y-95289980I180020J0D01*
G01*
X130971731Y-94370000D02*
G75*
G03*
X130799700Y-94542000I-31J-172000D01*
G01*
X127101731Y-95430000D02*
G75*
G02*
X126929700Y-95258000I-31J172000D01*
G01*
X127359731Y-95258000D02*
G75*
G02*
X127187731Y-95430031I-172031J0D01*
G01*
X140600000Y-96900000D02*
G75*
G03*
X140470000Y-96770000I-130000J0D01*
G01*
X135203580Y-95700000D02*
G75*
G03*
X135383600Y-95520000I20J180000D01*
G01*
X129681731Y-95430000D02*
G75*
G02*
X129509700Y-95258000I-31J172000D01*
G01*
X142370000Y-105635969D02*
G75*
G03*
X142239969Y-105765969I0J-130031D01*
G01*
X142630000Y-106235969D02*
G75*
G02*
X142760031Y-106365969I0J-130031D01*
G01*
X142240000Y-103705969D02*
G75*
G03*
X142370000Y-103836000I130000J-31D01*
G01*
X128391731Y-94370000D02*
G75*
G03*
X128219700Y-94542000I-31J-172000D01*
G01*
X125386038Y-95274555D02*
G75*
G03*
X125725404Y-95274513I169662J169655D01*
G01*
X140340000Y-96510000D02*
G75*
G02*
X140470000Y-96380000I130000J0D01*
G01*
X132949731Y-94542000D02*
G75*
G03*
X132777731Y-94369969I-172031J0D01*
G01*
X141961125Y-99281957D02*
G75*
G03*
X142181742Y-99281958I110309J110309D01*
G01*
X142441955Y-99021740D02*
G75*
G02*
X142662609Y-99021704I110345J-110360D01*
G01*
X131831731Y-94370000D02*
G75*
G03*
X131659700Y-94542000I-31J-172000D01*
G01*
X135833580Y-95930000D02*
G75*
G03*
X136013580Y-96110020I180020J0D01*
G01*
X140860000Y-96120000D02*
G75*
G03*
X140730000Y-95990000I-130000J0D01*
G01*
X128219731Y-95258000D02*
G75*
G02*
X128047731Y-95430031I-172031J0D01*
G01*
X132691731Y-94370000D02*
G75*
G03*
X132519700Y-94542000I-31J-172000D01*
G01*
X128649731Y-94542000D02*
G75*
G03*
X128477731Y-94369969I-172031J0D01*
G01*
X124466798Y-94694727D02*
G75*
G02*
X124806210Y-94694727I169706J-169708D01*
G01*
X140470000Y-96770000D02*
G75*
G02*
X140340000Y-96640000I0J130000D01*
G01*
X142500000Y-102505969D02*
G75*
G03*
X142630000Y-102636000I130000J-31D01*
G01*
X142630000Y-103835969D02*
G75*
G02*
X142760031Y-103965969I0J-130031D01*
G01*
X126929731Y-95072000D02*
G75*
G03*
X126757731Y-94899969I-172031J0D01*
G01*
X142630000Y-102635969D02*
G75*
G02*
X142760031Y-102765969I0J-130031D01*
G01*
X130369731Y-94542000D02*
G75*
G03*
X130197731Y-94369969I-172031J0D01*
G01*
X136733580Y-95930000D02*
G75*
G03*
X136913580Y-96110020I180020J0D01*
G01*
X140730000Y-95990000D02*
G75*
G02*
X140600000Y-95860000I0J130000D01*
G01*
X137183580Y-95470000D02*
G75*
G02*
X137363580Y-95289980I180020J0D01*
G01*
X130541731Y-95430000D02*
G75*
G02*
X130369700Y-95258000I-31J172000D01*
G01*
X129251731Y-94370000D02*
G75*
G03*
X129079700Y-94542000I-31J-172000D01*
G01*
X137453580Y-95290000D02*
G75*
G02*
X137633600Y-95470000I20J-180000D01*
G01*
X141905971Y-99006186D02*
G75*
G03*
X141905965Y-99226808I110329J-110314D01*
G01*
X132089731Y-94542000D02*
G75*
G03*
X131917731Y-94369969I-172031J0D01*
G01*
X124961771Y-96038229D02*
G75*
G03*
X124961795Y-95698794I-169671J169729D01*
G01*
X142760000Y-104305969D02*
G75*
G02*
X142630000Y-104436000I-130000J-31D01*
G01*
X130111731Y-94370000D02*
G75*
G03*
X129939700Y-94542000I-31J-172000D01*
G01*
X142240000Y-104905969D02*
G75*
G03*
X142370000Y-105036000I130000J-31D01*
G01*
X129509731Y-94542000D02*
G75*
G03*
X129337731Y-94369969I-172031J0D01*
G01*
X142512665Y-99833497D02*
G75*
G03*
X142733282Y-99833498I110309J110309D01*
G01*
X142370000Y-104435969D02*
G75*
G03*
X142239969Y-104565969I0J-130031D01*
G01*
X141890415Y-98470201D02*
G75*
G02*
X142111033Y-98470201I110309J-110311D01*
G01*
X132261731Y-95430000D02*
G75*
G02*
X132089700Y-95258000I-31J172000D01*
G01*
X136553580Y-95290000D02*
G75*
G02*
X136733600Y-95470000I20J-180000D01*
G01*
X142760000Y-106705969D02*
G75*
G02*
X142630000Y-106836000I-130000J-31D01*
G01*
X131659731Y-95258000D02*
G75*
G02*
X131487731Y-95430031I-172031J0D01*
G01*
X129079731Y-95258000D02*
G75*
G02*
X128907731Y-95430031I-172031J0D01*
G01*
X133379731Y-95258000D02*
G75*
G02*
X133207731Y-95430031I-172031J0D01*
G01*
X133551731Y-94900000D02*
G75*
G03*
X133379700Y-95072000I-31J-172000D01*
G01*
X140730000Y-96380000D02*
G75*
G03*
X140860000Y-96250000I0J130000D01*
G01*
X127789731Y-94542000D02*
G75*
G03*
X127617731Y-94369969I-172031J0D01*
G01*
X142630000Y-105035969D02*
G75*
G02*
X142760031Y-105165969I0J-130031D01*
G01*
%TO.N,DDR_#RAS*%
X141490000Y-100400000D02*
X142167472Y-100400000D01*
X141035000Y-105261575D02*
X141365000Y-105261575D01*
X136477642Y-97090000D02*
X136647642Y-97090000D01*
X131106627Y-97062000D02*
X131106627Y-95938000D01*
X129978627Y-95750000D02*
X129884627Y-95750000D01*
X121700000Y-98400000D02*
X121600000Y-98500000D01*
X125600000Y-96500000D02*
X126218627Y-96500000D01*
X138000000Y-96860000D02*
X138300000Y-97160000D01*
X140287486Y-99593465D02*
X140612755Y-99268197D01*
X136362642Y-96745000D02*
X136362642Y-96975000D01*
X140040000Y-97840000D02*
X140040000Y-98950000D01*
X127816627Y-95938000D02*
X127816627Y-97062000D01*
X126688627Y-97250000D02*
X126594627Y-97250000D01*
X141256221Y-99515683D02*
X141319860Y-99579322D01*
X142167472Y-100400000D02*
X142400000Y-100400000D01*
X141600000Y-106900000D02*
X141600000Y-112200000D01*
X125400000Y-96700000D02*
X125100000Y-96700000D01*
X128568627Y-97250000D02*
X128474627Y-97250000D01*
X127346627Y-97062000D02*
X127346627Y-95938000D01*
X141249150Y-100159151D02*
X141490000Y-100400000D01*
X132046627Y-97062000D02*
X132046627Y-95938000D01*
X140294558Y-98950000D02*
X140365269Y-98879290D01*
X137162642Y-96745000D02*
X137162642Y-96975000D01*
X128756627Y-95938000D02*
X128756627Y-97062000D01*
X141200000Y-105916575D02*
X141200000Y-106500000D01*
X141600000Y-103100000D02*
X141200000Y-103500000D01*
X131858627Y-95750000D02*
X131764627Y-95750000D01*
X133268627Y-97250000D02*
X133174627Y-97250000D01*
X133456627Y-96688000D02*
X133456627Y-97062000D01*
X129696627Y-95938000D02*
X129696627Y-97062000D01*
X141530000Y-104936575D02*
X141530000Y-105096575D01*
X121600000Y-98500000D02*
X120900000Y-98500000D01*
X141600000Y-101200000D02*
X141600000Y-103100000D01*
X142200000Y-112800000D02*
X142200000Y-114600000D01*
X132516627Y-95938000D02*
X132516627Y-97062000D01*
X140870000Y-104446575D02*
X140870000Y-104606575D01*
X142400000Y-100400000D02*
X141600000Y-101200000D01*
X140619827Y-98879289D02*
X140683466Y-98942928D01*
X136077642Y-96630000D02*
X136247642Y-96630000D01*
X141600000Y-112200000D02*
X142200000Y-112800000D01*
X140803673Y-99713673D02*
X141001661Y-99515682D01*
X128286627Y-97062000D02*
X128286627Y-95938000D01*
X137677642Y-96860000D02*
X138000000Y-96860000D01*
X130166627Y-97062000D02*
X130166627Y-95938000D01*
X132328627Y-97250000D02*
X132234627Y-97250000D01*
X142200000Y-114600000D02*
X142400000Y-114800000D01*
X138300000Y-97160000D02*
X139360000Y-97160000D01*
X136762642Y-96975000D02*
X136762642Y-96745000D01*
X132986627Y-97062000D02*
X132986627Y-95938000D01*
X136877642Y-96630000D02*
X137047642Y-96630000D01*
X129226627Y-97062000D02*
X129226627Y-95938000D01*
X129038627Y-95750000D02*
X128944627Y-95750000D01*
X135847642Y-96860000D02*
X135680000Y-96860000D01*
X129508627Y-97250000D02*
X129414627Y-97250000D01*
X141035000Y-104281575D02*
X141365000Y-104281575D01*
X137277642Y-97090000D02*
X137447642Y-97090000D01*
X140870000Y-105426575D02*
X140870000Y-105586575D01*
X126876627Y-95938000D02*
X126876627Y-97062000D01*
X130448627Y-97250000D02*
X130354627Y-97250000D01*
X135680000Y-96860000D02*
X135380000Y-97160000D01*
X141200000Y-106500000D02*
X141600000Y-106900000D01*
X131576627Y-95938000D02*
X131576627Y-97062000D01*
X125600000Y-96500000D02*
X125400000Y-96700000D01*
X126406627Y-97062000D02*
X126406627Y-96688000D01*
X130918627Y-95750000D02*
X130824627Y-95750000D01*
X141200000Y-103500000D02*
X141200000Y-103626575D01*
X140287486Y-99848024D02*
X140351125Y-99911663D01*
X123400000Y-98400000D02*
X121700000Y-98400000D01*
X130636627Y-95938000D02*
X130636627Y-97062000D01*
X125100000Y-96700000D02*
X123400000Y-98400000D01*
X127628627Y-97250000D02*
X127534627Y-97250000D01*
X141035000Y-104771575D02*
X141365000Y-104771575D01*
X128098627Y-95750000D02*
X128004627Y-95750000D01*
X139360000Y-97160000D02*
X140040000Y-97840000D01*
X140683467Y-99197488D02*
X140612755Y-99268197D01*
X127158627Y-95750000D02*
X127064627Y-95750000D01*
X131388627Y-97250000D02*
X131294627Y-97250000D01*
X134660000Y-97160000D02*
X134000000Y-96500000D01*
X134000000Y-96500000D02*
X133644627Y-96500000D01*
X135380000Y-97160000D02*
X134660000Y-97160000D01*
X132798627Y-95750000D02*
X132704627Y-95750000D01*
X141319861Y-99833882D02*
X141249149Y-99904591D01*
X141530000Y-103956575D02*
X141530000Y-104116575D01*
X140605684Y-99911663D02*
X140803673Y-99713673D01*
X140683466Y-98942928D02*
G75*
G02*
X140683459Y-99197479I-127266J-127272D01*
G01*
X130166627Y-95938000D02*
G75*
G03*
X129978627Y-95749973I-188027J0D01*
G01*
X131764627Y-95750000D02*
G75*
G03*
X131576600Y-95938000I-27J-188000D01*
G01*
X137562642Y-96975000D02*
G75*
G02*
X137677642Y-96860042I114958J0D01*
G01*
X128756627Y-97062000D02*
G75*
G02*
X128568627Y-97250027I-188027J0D01*
G01*
X141530000Y-105096575D02*
G75*
G02*
X141365000Y-105261600I-165000J-25D01*
G01*
X141365000Y-104771575D02*
G75*
G02*
X141530025Y-104936575I0J-165025D01*
G01*
X131106627Y-95938000D02*
G75*
G03*
X130918627Y-95749973I-188027J0D01*
G01*
X140870000Y-104606575D02*
G75*
G03*
X141035000Y-104771600I165000J-25D01*
G01*
X141035000Y-104281575D02*
G75*
G03*
X140869975Y-104446575I0J-165025D01*
G01*
X141365000Y-103791575D02*
G75*
G02*
X141530025Y-103956575I0J-165025D01*
G01*
X141035000Y-105751575D02*
G75*
G02*
X141200025Y-105916575I0J-165025D01*
G01*
X132234627Y-97250000D02*
G75*
G02*
X132046600Y-97062000I-27J188000D01*
G01*
X135962642Y-96745000D02*
G75*
G02*
X136077642Y-96630042I114958J0D01*
G01*
X137047642Y-96630000D02*
G75*
G02*
X137162600Y-96745000I-42J-115000D01*
G01*
X141001661Y-99515682D02*
G75*
G02*
X141256181Y-99515723I127239J-127318D01*
G01*
X133456627Y-97062000D02*
G75*
G02*
X133268627Y-97250027I-188027J0D01*
G01*
X126406627Y-96688000D02*
G75*
G03*
X126218627Y-96499973I-188027J0D01*
G01*
X140040000Y-98950000D02*
G75*
G03*
X140294558Y-98950000I127279J127278D01*
G01*
X131294627Y-97250000D02*
G75*
G02*
X131106600Y-97062000I-27J188000D01*
G01*
X132046627Y-95938000D02*
G75*
G03*
X131858627Y-95749973I-188027J0D01*
G01*
X141249149Y-99904591D02*
G75*
G03*
X141249120Y-100159181I127251J-127309D01*
G01*
X128474627Y-97250000D02*
G75*
G02*
X128286600Y-97062000I-27J188000D01*
G01*
X141200000Y-103626575D02*
G75*
G03*
X141365000Y-103791600I165000J-25D01*
G01*
X126594627Y-97250000D02*
G75*
G02*
X126406600Y-97062000I-27J188000D01*
G01*
X128004627Y-95750000D02*
G75*
G03*
X127816600Y-95938000I-27J-188000D01*
G01*
X136647642Y-97090000D02*
G75*
G03*
X136762600Y-96975000I-42J115000D01*
G01*
X140287486Y-99593465D02*
G75*
G03*
X140287530Y-99847980I127314J-127235D01*
G01*
X127816627Y-97062000D02*
G75*
G02*
X127628627Y-97250027I-188027J0D01*
G01*
X129226627Y-95938000D02*
G75*
G03*
X129038627Y-95749973I-188027J0D01*
G01*
X130824627Y-95750000D02*
G75*
G03*
X130636600Y-95938000I-27J-188000D01*
G01*
X132704627Y-95750000D02*
G75*
G03*
X132516600Y-95938000I-27J-188000D01*
G01*
X127534627Y-97250000D02*
G75*
G02*
X127346600Y-97062000I-27J188000D01*
G01*
X128286627Y-95938000D02*
G75*
G03*
X128098627Y-95749973I-188027J0D01*
G01*
X127346627Y-95938000D02*
G75*
G03*
X127158627Y-95749973I-188027J0D01*
G01*
X136362642Y-96975000D02*
G75*
G03*
X136477642Y-97089958I114958J0D01*
G01*
X129696627Y-97062000D02*
G75*
G02*
X129508627Y-97250027I-188027J0D01*
G01*
X140870000Y-105586575D02*
G75*
G03*
X141035000Y-105751600I165000J-25D01*
G01*
X141035000Y-105261575D02*
G75*
G03*
X140869975Y-105426575I0J-165025D01*
G01*
X132986627Y-95938000D02*
G75*
G03*
X132798627Y-95749973I-188027J0D01*
G01*
X137447642Y-97090000D02*
G75*
G03*
X137562600Y-96975000I-42J115000D01*
G01*
X136247642Y-96630000D02*
G75*
G02*
X136362600Y-96745000I-42J-115000D01*
G01*
X133644627Y-96500000D02*
G75*
G03*
X133456600Y-96688000I-27J-188000D01*
G01*
X131576627Y-97062000D02*
G75*
G02*
X131388627Y-97250027I-188027J0D01*
G01*
X132516627Y-97062000D02*
G75*
G02*
X132328627Y-97250027I-188027J0D01*
G01*
X129884627Y-95750000D02*
G75*
G03*
X129696600Y-95938000I-27J-188000D01*
G01*
X126876627Y-97062000D02*
G75*
G02*
X126688627Y-97250027I-188027J0D01*
G01*
X133174627Y-97250000D02*
G75*
G02*
X132986600Y-97062000I-27J188000D01*
G01*
X128944627Y-95750000D02*
G75*
G03*
X128756600Y-95938000I-27J-188000D01*
G01*
X127064627Y-95750000D02*
G75*
G03*
X126876600Y-95938000I-27J-188000D01*
G01*
X141530000Y-104116575D02*
G75*
G02*
X141365000Y-104281600I-165000J-25D01*
G01*
X135847642Y-96860000D02*
G75*
G03*
X135962600Y-96745000I-42J115000D01*
G01*
X141319860Y-99579322D02*
G75*
G02*
X141319859Y-99833879I-127260J-127278D01*
G01*
X140351125Y-99911663D02*
G75*
G03*
X140605684Y-99911664I127280J127283D01*
G01*
X130354627Y-97250000D02*
G75*
G02*
X130166600Y-97062000I-27J188000D01*
G01*
X136762642Y-96745000D02*
G75*
G02*
X136877642Y-96630042I114958J0D01*
G01*
X129414627Y-97250000D02*
G75*
G02*
X129226600Y-97062000I-27J188000D01*
G01*
X137162642Y-96975000D02*
G75*
G03*
X137277642Y-97089958I114958J0D01*
G01*
X130636627Y-97062000D02*
G75*
G02*
X130448627Y-97250027I-188027J0D01*
G01*
X140365269Y-98879290D02*
G75*
G02*
X140619779Y-98879337I127231J-127310D01*
G01*
D17*
%TO.N,DDR0_D4*%
X131000000Y-112900000D02*
X131374766Y-112525234D01*
X132042277Y-111292038D02*
X132110159Y-111224157D01*
X132721102Y-110613213D02*
X132788984Y-110545332D01*
X131702865Y-111902981D02*
X131714179Y-111914295D01*
X127700000Y-111600000D02*
X127700000Y-112300000D01*
X132528767Y-111371233D02*
X132675845Y-111518311D01*
X131849942Y-112050058D02*
X131997020Y-112197136D01*
X133207593Y-110692410D02*
X133207592Y-110692408D01*
X128300000Y-105800000D02*
X128300000Y-111000000D01*
X132189354Y-111710646D02*
X132042276Y-111563568D01*
X133343356Y-110828172D02*
X133354670Y-110839486D01*
X133972445Y-109927555D02*
X134000000Y-109900000D01*
X133682767Y-110217231D02*
X133972445Y-109927555D01*
X132868179Y-111031821D02*
X132721101Y-110884743D01*
X131849944Y-112050060D02*
X131849942Y-112050058D01*
X129964000Y-113300000D02*
X130060000Y-113300000D01*
X131363453Y-111970863D02*
X131431337Y-111902980D01*
X132868177Y-111031820D02*
X132868179Y-111031821D01*
X133207592Y-110692408D02*
X133343356Y-110828172D01*
X129772000Y-112692000D02*
X129772000Y-112708000D01*
X128300000Y-112900000D02*
X129100000Y-112900000D01*
X132268549Y-112197136D02*
X132336431Y-112129253D01*
X135900000Y-109900000D02*
X136400000Y-110400000D01*
X121200000Y-104600000D02*
X127100000Y-104600000D01*
X130444000Y-112900000D02*
X131000000Y-112900000D01*
X132528768Y-111371235D02*
X132528767Y-111371233D01*
X129292000Y-112708000D02*
X129292000Y-112692000D01*
X127700000Y-112300000D02*
X128300000Y-112900000D01*
X131374767Y-112253704D02*
X131363454Y-112242391D01*
X133060514Y-110545331D02*
X133207593Y-110692410D01*
X132189352Y-111710645D02*
X132189354Y-111710646D01*
X133015256Y-111178899D02*
X132868177Y-111031820D01*
X128300000Y-111000000D02*
X127700000Y-111600000D01*
X131714179Y-111914295D02*
X131849944Y-112050060D01*
X134000000Y-109900000D02*
X135900000Y-109900000D01*
X132947374Y-111518311D02*
X133015256Y-111450428D01*
X127100000Y-104600000D02*
X128300000Y-105800000D01*
X129484000Y-112500000D02*
X129580000Y-112500000D01*
X120500000Y-105300000D02*
X121200000Y-104600000D01*
X129772000Y-112708000D02*
X129772000Y-113108000D01*
X133626199Y-110839486D02*
X133694081Y-110771603D01*
X132336431Y-111857724D02*
X132189352Y-111710645D01*
X132381689Y-111224156D02*
X132528768Y-111371235D01*
X133694081Y-110500074D02*
X133682767Y-110488760D01*
X130252000Y-113108000D02*
X130252000Y-113092000D01*
X132336431Y-112129253D02*
G75*
G03*
X132336420Y-111857736I-135731J135753D01*
G01*
X129292000Y-112692000D02*
G75*
G02*
X129484000Y-112500000I192000J0D01*
G01*
X129580000Y-112500000D02*
G75*
G02*
X129772000Y-112692000I0J-192000D01*
G01*
X132042276Y-111563568D02*
G75*
G02*
X132042274Y-111292034I135724J135768D01*
G01*
X132675845Y-111518311D02*
G75*
G03*
X132947374Y-111518311I135764J135766D01*
G01*
X133682767Y-110488760D02*
G75*
G02*
X133682771Y-110217236I135733J135760D01*
G01*
X133354670Y-110839486D02*
G75*
G03*
X133626199Y-110839487I135765J135766D01*
G01*
X131997020Y-112197136D02*
G75*
G03*
X132268549Y-112197137I135765J135766D01*
G01*
X129100000Y-112900000D02*
G75*
G03*
X129292000Y-112708000I0J192000D01*
G01*
X131363454Y-112242391D02*
G75*
G02*
X131363426Y-111970836I135746J135791D01*
G01*
X132721101Y-110884743D02*
G75*
G02*
X132721123Y-110613234I135799J135743D01*
G01*
X131431337Y-111902980D02*
G75*
G02*
X131702864Y-111902982I135763J-135720D01*
G01*
X130252000Y-113092000D02*
G75*
G02*
X130444000Y-112900000I192000J0D01*
G01*
X132110159Y-111224157D02*
G75*
G02*
X132381664Y-111224180I135741J-135743D01*
G01*
X132788984Y-110545332D02*
G75*
G02*
X133060464Y-110545380I135716J-135768D01*
G01*
X131374766Y-112525234D02*
G75*
G03*
X131374736Y-112253736I-135766J135734D01*
G01*
X133694081Y-110771603D02*
G75*
G03*
X133694120Y-110500036I-135781J135803D01*
G01*
X130060000Y-113300000D02*
G75*
G03*
X130252000Y-113108000I0J192000D01*
G01*
X133015256Y-111450428D02*
G75*
G03*
X133015220Y-111178936I-135756J135728D01*
G01*
X129772000Y-113108000D02*
G75*
G03*
X129964000Y-113300000I192000J0D01*
G01*
%TO.N,DDR0_D5*%
X126300000Y-111710000D02*
X126300000Y-114100000D01*
X138420000Y-112480000D02*
X138400000Y-112460000D01*
X127000000Y-114800000D02*
X130700000Y-114800000D01*
X134200000Y-111300000D02*
X138100000Y-111300000D01*
X121300000Y-105300000D02*
X126530000Y-105300000D01*
X127380000Y-106150000D02*
X127380000Y-110630000D01*
X126300000Y-114100000D02*
X127000000Y-114800000D01*
X127380000Y-110630000D02*
X126300000Y-111710000D01*
X138400000Y-112460000D02*
X138400000Y-111600000D01*
X138400000Y-111600000D02*
X138100000Y-111300000D01*
X126530000Y-105300000D02*
X127380000Y-106150000D01*
X130700000Y-114800000D02*
X134200000Y-111300000D01*
D16*
%TO.N,DDR_A5*%
X148000000Y-102800000D02*
X148000000Y-103300000D01*
X146800000Y-112700000D02*
X146011500Y-113488500D01*
X118300000Y-90300000D02*
X118300000Y-95900000D01*
X146011500Y-115211500D02*
X146400000Y-115600000D01*
X147100000Y-94800000D02*
X147100000Y-91100000D01*
X148500000Y-103800000D02*
X148500000Y-104700000D01*
X148930000Y-105130000D02*
X148930000Y-105300000D01*
X147100000Y-91100000D02*
X143900000Y-87900000D01*
X118300000Y-95900000D02*
X119300000Y-96900000D01*
X147755750Y-108444250D02*
X147144250Y-108444250D01*
X148500000Y-105730000D02*
X148500000Y-107700000D01*
X148500000Y-107700000D02*
X147755750Y-108444250D01*
X143900000Y-87900000D02*
X120700000Y-87900000D01*
X120700000Y-87900000D02*
X118300000Y-90300000D01*
X146800000Y-108788500D02*
X146800000Y-112700000D01*
X146400000Y-101200000D02*
X148000000Y-102800000D01*
X146811500Y-100788500D02*
X146811500Y-95088500D01*
X148000000Y-103300000D02*
X148500000Y-103800000D01*
X146811500Y-95088500D02*
X147100000Y-94800000D01*
X146400000Y-101200000D02*
X146811500Y-100788500D01*
X146011500Y-113488500D02*
X146011500Y-115211500D01*
X147144250Y-108444250D02*
X146800000Y-108788500D01*
X148930000Y-105300000D02*
G75*
G02*
X148715000Y-105515000I-215000J0D01*
G01*
X148715000Y-105515000D02*
G75*
G03*
X148500000Y-105730000I0J-215000D01*
G01*
X148500000Y-104700000D02*
G75*
G03*
X148715000Y-104915000I215000J0D01*
G01*
X148715000Y-104915000D02*
G75*
G02*
X148930000Y-105130000I0J-215000D01*
G01*
D17*
%TO.N,DDR0_D0*%
X119840000Y-111860000D02*
X119840000Y-115040000D01*
X120440000Y-111260000D02*
X119840000Y-111860000D01*
X121300000Y-107680000D02*
X120440000Y-108540000D01*
X136150000Y-114420000D02*
X137220000Y-114420000D01*
X137220000Y-114420000D02*
X138000000Y-115200000D01*
X134110000Y-117210000D02*
X135670000Y-115650000D01*
X120440000Y-108540000D02*
X120440000Y-111260000D01*
X135670000Y-115650000D02*
X135670000Y-114900000D01*
X121300000Y-106100000D02*
X121300000Y-107680000D01*
X119840000Y-115040000D02*
X122010000Y-117210000D01*
X122010000Y-117210000D02*
X134110000Y-117210000D01*
X135670000Y-114900000D02*
X136150000Y-114420000D01*
D16*
%TO.N,DDR_A3*%
X144831179Y-90831179D02*
X144961285Y-90701070D01*
X145970000Y-106287809D02*
X146230000Y-106287809D01*
X145700000Y-93037999D02*
X145700000Y-94438500D01*
X145211500Y-109311500D02*
X145211500Y-113288500D01*
X144685516Y-90976843D02*
X144831179Y-90831179D01*
X145286555Y-91286556D02*
X145700000Y-91700000D01*
X120100000Y-98500000D02*
X120488500Y-98111500D01*
X146100000Y-106907809D02*
X146100000Y-107800000D01*
X145970000Y-105797809D02*
X146230000Y-105797809D01*
X119440000Y-92460000D02*
X122500000Y-89400000D01*
X145600000Y-101200000D02*
X145200000Y-101600000D01*
X146360000Y-104457809D02*
X146360000Y-104687809D01*
X144001040Y-89709713D02*
X143985482Y-89725268D01*
X145237059Y-90685516D02*
X145302112Y-90750569D01*
X120488500Y-96400000D02*
X119440000Y-95351500D01*
X146100000Y-107800000D02*
X145200000Y-108700000D01*
X146360000Y-106417809D02*
X146360000Y-106647809D01*
X145200000Y-109300000D02*
X145211500Y-109311500D01*
X122500000Y-89400000D02*
X143360000Y-89400000D01*
X144586523Y-90034980D02*
X144651576Y-90100033D01*
X146100000Y-103700000D02*
X146100000Y-104197809D01*
X145188500Y-100788500D02*
X145600000Y-101200000D01*
X145970000Y-104817809D02*
X146230000Y-104817809D01*
X145840000Y-105927809D02*
X145840000Y-106157809D01*
X143709711Y-90001038D02*
X143985482Y-89725268D01*
X145906000Y-92853999D02*
X145884000Y-92853999D01*
X143660216Y-89400001D02*
X143675771Y-89384443D01*
X145970000Y-105307809D02*
X146230000Y-105307809D01*
X119440000Y-95351500D02*
X119440000Y-92460000D01*
X145211500Y-113288500D02*
X145200000Y-113300000D01*
X143935987Y-89384444D02*
X144001040Y-89449497D01*
X144651576Y-90360249D02*
X144505911Y-90505911D01*
X145840000Y-104947809D02*
X145840000Y-105177809D01*
X144961285Y-90701070D02*
X144976841Y-90685514D01*
X144505911Y-90505911D02*
X144360247Y-90651574D01*
X146090000Y-92577999D02*
X146090000Y-92669999D01*
X145200000Y-102800000D02*
X146100000Y-103700000D01*
X145188500Y-94950000D02*
X145188500Y-100788500D01*
X145200000Y-113300000D02*
X145200000Y-115200000D01*
X145700000Y-91700000D02*
X145700000Y-92209999D01*
X143360000Y-89400000D02*
X143400000Y-89400000D01*
X146360000Y-105437809D02*
X146360000Y-105667809D01*
X145200000Y-101600000D02*
X145200000Y-102800000D01*
X120488500Y-98111500D02*
X120488500Y-96400000D01*
X145200000Y-108700000D02*
X145200000Y-109300000D01*
X143709711Y-90261254D02*
X143774764Y-90326307D01*
X145884000Y-92393999D02*
X145906000Y-92393999D01*
X144034980Y-90326307D02*
X144180643Y-90180643D01*
X145200000Y-115200000D02*
X145600000Y-115600000D01*
X145302112Y-91010785D02*
X145286554Y-91026340D01*
X145700000Y-94438500D02*
X145188500Y-94950000D01*
X144180643Y-90180643D02*
X144326305Y-90034978D01*
X144360247Y-90911790D02*
X144425300Y-90976843D01*
X146230000Y-106777809D02*
G75*
G03*
X146100009Y-106907809I0J-129991D01*
G01*
X145840000Y-105177809D02*
G75*
G03*
X145970000Y-105307800I130000J9D01*
G01*
X146360000Y-105667809D02*
G75*
G02*
X146230000Y-105797800I-130000J9D01*
G01*
X145700000Y-92209999D02*
G75*
G03*
X145884000Y-92394000I184000J-1D01*
G01*
X145884000Y-92853999D02*
G75*
G03*
X145699999Y-93037999I0J-184001D01*
G01*
X146090000Y-92669999D02*
G75*
G02*
X145906000Y-92854000I-184000J-1D01*
G01*
X144360247Y-90651574D02*
G75*
G03*
X144360229Y-90911808I130153J-130126D01*
G01*
X144651576Y-90100033D02*
G75*
G02*
X144651535Y-90360208I-130076J-130067D01*
G01*
X144425300Y-90976843D02*
G75*
G03*
X144685516Y-90976843I130108J130110D01*
G01*
X144976841Y-90685514D02*
G75*
G02*
X145237010Y-90685565I130059J-130086D01*
G01*
X146230000Y-105307809D02*
G75*
G02*
X146359991Y-105437809I0J-129991D01*
G01*
X143400000Y-89400000D02*
G75*
G03*
X143660207Y-89399993I130100J130100D01*
G01*
X145906000Y-92393999D02*
G75*
G02*
X146090001Y-92577999I0J-184001D01*
G01*
X146100000Y-104197809D02*
G75*
G03*
X146230000Y-104327800I130000J9D01*
G01*
X145970000Y-105797809D02*
G75*
G03*
X145840009Y-105927809I0J-129991D01*
G01*
X146230000Y-106287809D02*
G75*
G02*
X146359991Y-106417809I0J-129991D01*
G01*
X145840000Y-106157809D02*
G75*
G03*
X145970000Y-106287800I130000J9D01*
G01*
X146230000Y-104327809D02*
G75*
G02*
X146359991Y-104457809I0J-129991D01*
G01*
X146360000Y-106647809D02*
G75*
G02*
X146230000Y-106777800I-130000J9D01*
G01*
X146360000Y-104687809D02*
G75*
G02*
X146230000Y-104817800I-130000J9D01*
G01*
X143774764Y-90326307D02*
G75*
G03*
X144034980Y-90326307I130108J130110D01*
G01*
X143675771Y-89384443D02*
G75*
G02*
X143936008Y-89384422I130129J-130157D01*
G01*
X145302112Y-90750569D02*
G75*
G02*
X145302135Y-91010808I-130112J-130131D01*
G01*
X144001040Y-89449497D02*
G75*
G02*
X144001035Y-89709708I-130140J-130103D01*
G01*
X143709711Y-90001038D02*
G75*
G03*
X143709757Y-90261208I130089J-130062D01*
G01*
X145286554Y-91026340D02*
G75*
G03*
X145286602Y-91286509I130146J-130060D01*
G01*
X144326305Y-90034978D02*
G75*
G02*
X144586510Y-90034993I130095J-130122D01*
G01*
X145970000Y-104817809D02*
G75*
G03*
X145840009Y-104947809I0J-129991D01*
G01*
%TO.N,DDR_A0*%
X120575167Y-89874833D02*
X120774571Y-90074237D01*
X121142266Y-89706541D02*
X121089940Y-89654215D01*
X120406873Y-90441934D02*
X120207468Y-90242529D01*
X120207470Y-90242530D02*
X120008066Y-90043126D01*
X120000000Y-96800000D02*
X120000000Y-96550000D01*
X120375763Y-89675430D02*
X120575168Y-89874835D01*
X146950000Y-106446000D02*
X146950000Y-106540000D01*
X147588000Y-105788000D02*
X147662000Y-105788000D01*
X121068727Y-90074237D02*
X121142266Y-90000697D01*
X147400000Y-107600000D02*
X147000000Y-108000000D01*
X145600000Y-112600000D02*
X145600000Y-114800000D01*
X146011500Y-112188500D02*
X145600000Y-112600000D01*
X143800000Y-88750000D02*
X146600000Y-91550000D01*
X146600000Y-94338500D02*
X145988500Y-94950000D01*
X146600000Y-91550000D02*
X146600000Y-94338500D01*
X121089940Y-89360058D02*
X121325000Y-89125000D01*
X119640371Y-90410823D02*
X119839776Y-90610228D01*
X147000000Y-108000000D02*
X146723000Y-108000000D01*
X118800000Y-95350000D02*
X118800000Y-91650000D01*
X119839774Y-90610226D02*
X120039178Y-90809630D01*
X147138000Y-106258000D02*
X147662000Y-106258000D01*
X119839776Y-90610228D02*
X119839774Y-90610226D01*
X119325000Y-90830844D02*
X119272675Y-90778519D01*
X119272676Y-90484361D02*
X119346215Y-90410823D01*
X120000000Y-96550000D02*
X118800000Y-95350000D01*
X121325000Y-89125000D02*
X121700000Y-88750000D01*
X147850000Y-105976000D02*
X147850000Y-106070000D01*
X120100000Y-96900000D02*
X120000000Y-96800000D01*
X146723000Y-108000000D02*
X146011500Y-108711500D01*
X118800000Y-91650000D02*
X119325000Y-91125000D01*
X147400000Y-106916000D02*
X147400000Y-107600000D01*
X146011500Y-108711500D02*
X146011500Y-112188500D01*
X120333334Y-90809630D02*
X120406873Y-90736090D01*
X145988500Y-94950000D02*
X145988500Y-100011500D01*
X120207468Y-90242529D02*
X120207470Y-90242530D01*
X120008066Y-89748970D02*
X120081607Y-89675430D01*
X145988500Y-100011500D02*
X145600000Y-100400000D01*
X120575168Y-89874835D02*
X120575167Y-89874833D01*
X147138000Y-106728000D02*
X147212000Y-106728000D01*
X121700000Y-88750000D02*
X143800000Y-88750000D01*
X121142266Y-90000697D02*
G75*
G03*
X121142285Y-89706522I-147066J147097D01*
G01*
X147138000Y-106258000D02*
G75*
G03*
X146950000Y-106446000I0J-188000D01*
G01*
X119346215Y-90410823D02*
G75*
G02*
X119640371Y-90410823I147078J-147077D01*
G01*
X120008066Y-90043126D02*
G75*
G02*
X120008018Y-89748922I147034J147126D01*
G01*
X119272675Y-90778519D02*
G75*
G02*
X119272635Y-90484321I147125J147119D01*
G01*
X120039178Y-90809630D02*
G75*
G03*
X120333334Y-90809630I147078J147077D01*
G01*
X120081607Y-89675430D02*
G75*
G02*
X120375763Y-89675430I147078J-147077D01*
G01*
X147662000Y-105788000D02*
G75*
G02*
X147850000Y-105976000I0J-188000D01*
G01*
X120774571Y-90074237D02*
G75*
G03*
X121068727Y-90074237I147078J147077D01*
G01*
X120406873Y-90736090D02*
G75*
G03*
X120406885Y-90441922I-147073J147090D01*
G01*
X121089940Y-89654215D02*
G75*
G02*
X121089903Y-89360021I147060J147115D01*
G01*
X147850000Y-106070000D02*
G75*
G02*
X147662000Y-106258000I-188000J0D01*
G01*
X147400000Y-105600000D02*
G75*
G03*
X147588000Y-105788000I188000J0D01*
G01*
X147212000Y-106728000D02*
G75*
G02*
X147400000Y-106916000I0J-188000D01*
G01*
X146950000Y-106540000D02*
G75*
G03*
X147138000Y-106728000I188000J0D01*
G01*
X119325000Y-91125000D02*
G75*
G03*
X119325022Y-90830822I-147100J147100D01*
G01*
D17*
%TO.N,DDR0_D3*%
X124490000Y-115470000D02*
X124764488Y-115470000D01*
X125610000Y-111130000D02*
X125610000Y-110400000D01*
X122810000Y-105790000D02*
X122500000Y-106100000D01*
X125790488Y-115470000D02*
X131670000Y-115470000D01*
X124480000Y-115460000D02*
X124490000Y-115470000D01*
X123600000Y-114730000D02*
X124330000Y-115460000D01*
X125970000Y-105790000D02*
X122810000Y-105790000D01*
X131670000Y-115470000D02*
X134990000Y-112150000D01*
X123600000Y-113140000D02*
X125610000Y-111130000D01*
X135830000Y-112150000D02*
X135840000Y-112160000D01*
X124330000Y-115460000D02*
X124480000Y-115460000D01*
X126700000Y-109310000D02*
X126700000Y-106520000D01*
X122500000Y-106100000D02*
X122100000Y-106100000D01*
X123600000Y-113140000D02*
X123600000Y-114730000D01*
X134990000Y-112150000D02*
X135830000Y-112150000D01*
X125562488Y-115008000D02*
X125562488Y-115242000D01*
X125220488Y-114780000D02*
X125334488Y-114780000D01*
X124992488Y-115242000D02*
X124992488Y-115008000D01*
X126700000Y-106520000D02*
X125970000Y-105790000D01*
X125610000Y-110400000D02*
X126700000Y-109310000D01*
X124764488Y-115470000D02*
G75*
G03*
X124992500Y-115242000I12J228000D01*
G01*
X125562488Y-115242000D02*
G75*
G03*
X125790488Y-115470012I228012J0D01*
G01*
X124992488Y-115008000D02*
G75*
G02*
X125220488Y-114779988I228012J0D01*
G01*
X125334488Y-114780000D02*
G75*
G02*
X125562500Y-115008000I12J-228000D01*
G01*
%TO.N,DDR0_D6*%
X129420000Y-107793177D02*
X129420000Y-108333177D01*
X135415000Y-108355000D02*
X135415000Y-108045000D01*
X133033883Y-109185318D02*
X132924281Y-109075716D01*
X135570000Y-107890000D02*
X135730000Y-107890000D01*
X132591943Y-109408059D02*
X132591942Y-109408058D01*
X129700000Y-110400000D02*
X131600000Y-110400000D01*
X133800000Y-108200000D02*
X134320000Y-108200000D01*
X133366228Y-108633775D02*
X133800000Y-108200000D01*
X128780000Y-106933177D02*
X128780000Y-107473177D01*
X132924281Y-109075716D02*
X132924283Y-109075717D01*
X120804056Y-104100000D02*
X127800000Y-104100000D01*
X136800000Y-108200000D02*
X137170000Y-108570000D01*
X137170000Y-108570000D02*
X137170000Y-110370000D01*
X132482341Y-109298457D02*
X132591943Y-109408059D01*
X134630000Y-107890000D02*
X134790000Y-107890000D01*
X131600000Y-110400000D02*
X132150000Y-109850000D01*
X136040000Y-108200000D02*
X136800000Y-108200000D01*
X129420000Y-106073177D02*
X129420000Y-106613177D01*
X128940000Y-106773177D02*
X129260000Y-106773177D01*
X119700000Y-104500000D02*
X120404056Y-104500000D01*
X129100000Y-108653177D02*
X129100000Y-109800000D01*
X128940000Y-107633177D02*
X129260000Y-107633177D01*
X129100000Y-109800000D02*
X129700000Y-110400000D01*
X132150000Y-109411594D02*
X132263139Y-109298456D01*
X127800000Y-104100000D02*
X129100000Y-105400000D01*
X135100000Y-108510000D02*
X135260000Y-108510000D01*
X132920746Y-109517659D02*
X133033883Y-109404521D01*
X132591942Y-109408058D02*
X132701543Y-109517659D01*
X120404056Y-104500000D02*
X120804056Y-104100000D01*
X134945000Y-108045000D02*
X134945000Y-108355000D01*
X132814683Y-108746912D02*
X132927820Y-108633776D01*
X129100000Y-105400000D02*
X129100000Y-105753177D01*
X137170000Y-110370000D02*
X137200000Y-110400000D01*
X132924283Y-109075717D02*
X132814682Y-108966116D01*
X129260000Y-108493177D02*
G75*
G03*
X129099977Y-108653177I0J-160023D01*
G01*
X129420000Y-108333177D02*
G75*
G02*
X129260000Y-108493200I-160000J-23D01*
G01*
X129420000Y-106613177D02*
G75*
G02*
X129260000Y-106773200I-160000J-23D01*
G01*
X133033883Y-109404521D02*
G75*
G03*
X133033903Y-109185298I-109583J109621D01*
G01*
X135415000Y-108045000D02*
G75*
G02*
X135570000Y-107890000I155000J0D01*
G01*
X132150000Y-109850000D02*
G75*
G03*
X132149999Y-109630799I-109600J109600D01*
G01*
X128780000Y-107473177D02*
G75*
G03*
X128940000Y-107633200I160000J-23D01*
G01*
X135885000Y-108045000D02*
G75*
G03*
X136040000Y-108200000I155000J0D01*
G01*
X129100000Y-105753177D02*
G75*
G03*
X129260000Y-105913200I160000J-23D01*
G01*
X134790000Y-107890000D02*
G75*
G02*
X134945000Y-108045000I0J-155000D01*
G01*
X129260000Y-105913177D02*
G75*
G02*
X129420023Y-106073177I0J-160023D01*
G01*
X132150001Y-109630796D02*
G75*
G02*
X132150005Y-109411600I109599J109596D01*
G01*
X135260000Y-108510000D02*
G75*
G03*
X135415000Y-108355000I0J155000D01*
G01*
X129260000Y-107633177D02*
G75*
G02*
X129420023Y-107793177I0J-160023D01*
G01*
X134320000Y-108200000D02*
G75*
G03*
X134475000Y-108045000I0J155000D01*
G01*
X132927820Y-108633776D02*
G75*
G02*
X133147002Y-108633797I109580J-109624D01*
G01*
X132701543Y-109517659D02*
G75*
G03*
X132920746Y-109517660I109602J109603D01*
G01*
X135730000Y-107890000D02*
G75*
G02*
X135885000Y-108045000I0J-155000D01*
G01*
X133147024Y-108633775D02*
G75*
G03*
X133366228Y-108633775I109602J109597D01*
G01*
X132814682Y-108966116D02*
G75*
G02*
X132814668Y-108746898I109618J109616D01*
G01*
X134475000Y-108045000D02*
G75*
G02*
X134630000Y-107890000I155000J0D01*
G01*
X132263139Y-109298456D02*
G75*
G02*
X132482302Y-109298496I109561J-109644D01*
G01*
X134945000Y-108355000D02*
G75*
G03*
X135100000Y-108510000I155000J0D01*
G01*
X128940000Y-106773177D02*
G75*
G03*
X128779977Y-106933177I0J-160023D01*
G01*
%TO.N,DDR2_D4*%
X135580000Y-102019105D02*
X135580000Y-102179105D01*
X134530073Y-104969924D02*
X134530074Y-104969926D01*
X135300000Y-104200000D02*
X135198290Y-104301710D01*
X134632604Y-105277519D02*
X134554824Y-105355300D01*
X135160000Y-102319105D02*
X135440000Y-102319105D01*
X122691888Y-101700000D02*
X122500000Y-101700000D01*
X123571888Y-101670000D02*
X122721888Y-101670000D01*
X125600000Y-102100000D02*
X125120000Y-101620000D01*
X132700000Y-106800000D02*
X134066919Y-105433082D01*
X135020000Y-102459105D02*
X135020000Y-102619105D01*
X131300000Y-103600000D02*
X129800000Y-102100000D01*
X134427543Y-104867394D02*
X134530073Y-104969924D01*
X131800000Y-106800000D02*
X131300000Y-106300000D01*
X134144702Y-105355301D02*
X134066919Y-105433082D01*
X122721888Y-101670000D02*
X122691888Y-101700000D01*
X134812917Y-104687083D02*
X134710386Y-104584552D01*
X129800000Y-102100000D02*
X125600000Y-102100000D01*
X135300000Y-101200000D02*
X135300000Y-101739105D01*
X131300000Y-106300000D02*
X131300000Y-103600000D01*
X134530074Y-104969926D02*
X134632605Y-105072457D01*
X135198290Y-104711832D02*
X135120508Y-104789615D01*
X121300000Y-100500000D02*
X119700000Y-100500000D01*
X135300000Y-102899105D02*
X135300000Y-104200000D01*
X134812918Y-104687084D02*
X134812917Y-104687083D01*
X122500000Y-101700000D02*
X121300000Y-100500000D01*
X132700000Y-106800000D02*
X131800000Y-106800000D01*
X123621888Y-101620000D02*
X123571888Y-101670000D01*
X134505325Y-104584552D02*
X134427543Y-104662333D01*
X125120000Y-101620000D02*
X123621888Y-101620000D01*
X134915448Y-104789614D02*
X134812918Y-104687084D01*
X135160000Y-102319105D02*
G75*
G03*
X135020005Y-102459105I0J-139995D01*
G01*
X135440000Y-101879105D02*
G75*
G02*
X135579995Y-102019105I0J-139995D01*
G01*
X135198289Y-104506772D02*
G75*
G02*
X135198288Y-104711829I-102489J-102528D01*
G01*
X135198290Y-104301710D02*
G75*
G03*
X135198330Y-104506730I102510J-102490D01*
G01*
X134632605Y-105072457D02*
G75*
G02*
X134632617Y-105277532I-102505J-102543D01*
G01*
X135120508Y-104789615D02*
G75*
G02*
X134915470Y-104789593I-102508J102515D01*
G01*
X134427543Y-104662333D02*
G75*
G03*
X134427506Y-104867430I102557J-102567D01*
G01*
X134710386Y-104584552D02*
G75*
G03*
X134505326Y-104584552I-102530J-102529D01*
G01*
X135160000Y-102759105D02*
G75*
G02*
X135299995Y-102899105I0J-139995D01*
G01*
X134349762Y-105355301D02*
G75*
G03*
X134144702Y-105355301I-102530J-102528D01*
G01*
X134554824Y-105355300D02*
G75*
G02*
X134349770Y-105355294I-102524J102500D01*
G01*
X135020000Y-102619105D02*
G75*
G03*
X135160000Y-102759100I140000J5D01*
G01*
X135580000Y-102179105D02*
G75*
G02*
X135440000Y-102319100I-140000J5D01*
G01*
X135300000Y-101739105D02*
G75*
G03*
X135440000Y-101879100I140000J5D01*
G01*
%TO.N,DDR2_D1*%
X132800000Y-101200000D02*
X134500000Y-99500000D01*
X134500000Y-99500000D02*
X137400000Y-99500000D01*
X137400000Y-99500000D02*
X138400000Y-98500000D01*
X138400000Y-98500000D02*
X138400000Y-97800000D01*
%TO.N,DDR2_D5*%
X134700000Y-103700000D02*
X134700000Y-100700000D01*
X131295791Y-102195791D02*
X131411755Y-102079824D01*
X133300000Y-105400000D02*
X133450000Y-105400000D01*
X131900000Y-102800000D02*
X131900000Y-106200000D01*
X131107701Y-102383882D02*
X131295791Y-102195791D01*
X131005878Y-101905879D02*
X131193968Y-101717788D01*
X131701670Y-102601669D02*
X131900000Y-102800000D01*
X131005878Y-101905879D02*
X131005879Y-101905879D01*
X132600000Y-106000000D02*
X132600000Y-104600000D01*
X131005879Y-101905879D02*
X130817788Y-102093969D01*
X131411755Y-102079824D02*
X131483880Y-102007699D01*
X132600000Y-104600000D02*
X132700000Y-104500000D01*
X130500000Y-101400000D02*
X130600000Y-101500000D01*
X133900000Y-104950000D02*
X133900000Y-104500000D01*
X133200000Y-105300000D02*
X133300000Y-105400000D01*
X122100000Y-100500000D02*
X122200000Y-100600000D01*
X133000000Y-104500000D02*
X133200000Y-104700000D01*
X134700000Y-100700000D02*
X135000000Y-100400000D01*
X133200000Y-104700000D02*
X133200000Y-105300000D01*
X131773795Y-102297614D02*
X131701669Y-102369737D01*
X132700000Y-104500000D02*
X133000000Y-104500000D01*
X130817788Y-102325900D02*
X130875770Y-102383882D01*
X130831932Y-101500001D02*
X130904055Y-101427875D01*
X131900000Y-106200000D02*
X132000000Y-106300000D01*
X132300000Y-106300000D02*
X132600000Y-106000000D01*
X131715812Y-102007700D02*
X131773794Y-102065682D01*
X122200000Y-100600000D02*
X124900000Y-100600000D01*
X133900000Y-104500000D02*
X134700000Y-103700000D01*
X135000000Y-100400000D02*
X135400000Y-100400000D01*
X133450000Y-105400000D02*
X133900000Y-104950000D01*
X131135987Y-101427876D02*
X131193969Y-101485858D01*
X132000000Y-106300000D02*
X132300000Y-106300000D01*
X124900000Y-100600000D02*
X125700000Y-101400000D01*
X125700000Y-101400000D02*
X130500000Y-101400000D01*
X130600000Y-101500000D02*
G75*
G03*
X130831965Y-101500035I116000J116000D01*
G01*
X131193969Y-101485858D02*
G75*
G02*
X131193946Y-101717765I-115969J-115942D01*
G01*
X130904055Y-101427875D02*
G75*
G02*
X131135966Y-101427896I115945J-115925D01*
G01*
X130817788Y-102093969D02*
G75*
G03*
X130817822Y-102325866I116012J-115931D01*
G01*
X131773794Y-102065682D02*
G75*
G02*
X131773747Y-102297566I-115994J-115918D01*
G01*
X130875770Y-102383882D02*
G75*
G03*
X131107701Y-102383883I115966J115967D01*
G01*
X131701669Y-102369737D02*
G75*
G03*
X131701673Y-102601666I115931J-115963D01*
G01*
X131483880Y-102007699D02*
G75*
G02*
X131715767Y-102007745I115920J-116001D01*
G01*
%TO.N,DDR2_D2*%
X134899475Y-105900526D02*
X134951076Y-105848924D01*
X130600000Y-104100000D02*
X129200000Y-102700000D01*
X131303772Y-107200000D02*
X131300000Y-107200000D01*
X136203000Y-103139505D02*
X136203000Y-103419505D01*
X130900000Y-106800000D02*
X131300000Y-107200000D01*
X138019597Y-100800001D02*
X137391887Y-100800001D01*
X136203000Y-101988888D02*
X136203000Y-102219505D01*
X132133772Y-107570000D02*
X131903772Y-107570000D01*
X121730000Y-102530000D02*
X121300000Y-102100000D01*
X136197000Y-104603000D02*
X136197000Y-103503000D01*
X129200000Y-102700000D02*
X125000000Y-102700000D01*
X130900000Y-104600000D02*
X130600000Y-104300000D01*
X136203000Y-103419505D02*
X136203000Y-103497000D01*
X134765125Y-106034878D02*
X134899475Y-105900526D01*
X124500000Y-102200000D02*
X122800000Y-102200000D01*
X136197000Y-103503000D02*
X136203000Y-103497000D01*
X137391887Y-100800001D02*
X136203000Y-101988888D01*
X122470000Y-102530000D02*
X121730000Y-102530000D01*
X125000000Y-102700000D02*
X124500000Y-102200000D01*
X134050945Y-106169229D02*
X134185297Y-106034878D01*
X132503772Y-107200000D02*
X133600000Y-107200000D01*
X136523000Y-102539505D02*
X136523000Y-102819505D01*
X130900000Y-106800000D02*
X130900000Y-104600000D01*
X122800000Y-102200000D02*
X122470000Y-102530000D01*
X130600000Y-104300000D02*
X130600000Y-104100000D01*
X134951076Y-105848924D02*
X136197000Y-104603000D01*
X131533772Y-107200000D02*
X131303772Y-107200000D01*
X133600000Y-107200000D02*
X134050945Y-106749055D01*
X136203000Y-102219505D02*
G75*
G03*
X136363000Y-102379500I160000J5D01*
G01*
X132503772Y-107200000D02*
G75*
G03*
X132318800Y-107385000I28J-185000D01*
G01*
X136363000Y-102979505D02*
G75*
G03*
X136203005Y-103139505I0J-159995D01*
G01*
X131718772Y-107385000D02*
G75*
G03*
X131533772Y-107200028I-184972J0D01*
G01*
X131903772Y-107570000D02*
G75*
G02*
X131718800Y-107385000I28J185000D01*
G01*
X134050946Y-106459141D02*
G75*
G02*
X134050960Y-106169245I144954J144941D01*
G01*
X134185297Y-106034878D02*
G75*
G02*
X134475211Y-106034878I144957J-144958D01*
G01*
X136523000Y-102819505D02*
G75*
G02*
X136363000Y-102979500I-160000J5D01*
G01*
X134050945Y-106749055D02*
G75*
G03*
X134050944Y-106459144I-144945J144955D01*
G01*
X136363000Y-102379505D02*
G75*
G02*
X136522995Y-102539505I0J-159995D01*
G01*
X134475211Y-106034878D02*
G75*
G03*
X134765125Y-106034878I144957J144958D01*
G01*
X132318772Y-107385000D02*
G75*
G02*
X132133772Y-107569972I-184972J0D01*
G01*
%TO.N,DDR2_DM*%
X126762000Y-100622000D02*
X126762000Y-100212000D01*
X138000000Y-100000000D02*
X134662038Y-100000000D01*
X127232000Y-100178000D02*
X127232000Y-100622000D01*
X128172000Y-100178000D02*
X128172000Y-100622000D01*
X125500000Y-100400000D02*
X126104000Y-100400000D01*
X125246081Y-100146081D02*
X122546081Y-100146081D01*
X128454000Y-99990000D02*
X128360000Y-99990000D01*
X128924000Y-100810000D02*
X128830000Y-100810000D01*
X127514000Y-99990000D02*
X127420000Y-99990000D01*
X132500000Y-103800000D02*
X132500000Y-101900000D01*
X128642000Y-100588000D02*
X128642000Y-100178000D01*
X127702000Y-100622000D02*
X127702000Y-100178000D01*
X127984000Y-100810000D02*
X127890000Y-100810000D01*
X132800000Y-104100000D02*
X132500000Y-103800000D01*
X134231019Y-103168981D02*
X133300000Y-104100000D01*
X127044000Y-100810000D02*
X126950000Y-100810000D01*
X128642000Y-100622000D02*
X128642000Y-100588000D01*
X126292000Y-100178000D02*
X126292000Y-100212000D01*
X132500000Y-101900000D02*
X131000000Y-100400000D01*
X131000000Y-100400000D02*
X129300000Y-100400000D01*
X129112000Y-100588000D02*
X129112000Y-100622000D01*
X122546081Y-100146081D02*
X122100000Y-99700000D01*
X126574000Y-99990000D02*
X126480000Y-99990000D01*
X126762000Y-100212000D02*
X126762000Y-100178000D01*
X134231019Y-100431019D02*
X134231019Y-103168981D01*
X134662038Y-100000000D02*
X134231019Y-100431019D01*
X125500000Y-100400000D02*
X125246081Y-100146081D01*
X133300000Y-104100000D02*
X132800000Y-104100000D01*
X127232000Y-100622000D02*
G75*
G02*
X127044000Y-100810000I-188000J0D01*
G01*
X128830000Y-100810000D02*
G75*
G02*
X128642000Y-100622000I0J188000D01*
G01*
X127702000Y-100178000D02*
G75*
G03*
X127514000Y-99990000I-188000J0D01*
G01*
X126480000Y-99990000D02*
G75*
G03*
X126292000Y-100178000I0J-188000D01*
G01*
X128642000Y-100178000D02*
G75*
G03*
X128454000Y-99990000I-188000J0D01*
G01*
X129300000Y-100400000D02*
G75*
G03*
X129112000Y-100588000I0J-188000D01*
G01*
X129112000Y-100622000D02*
G75*
G02*
X128924000Y-100810000I-188000J0D01*
G01*
X127890000Y-100810000D02*
G75*
G02*
X127702000Y-100622000I0J188000D01*
G01*
X126950000Y-100810000D02*
G75*
G02*
X126762000Y-100622000I0J188000D01*
G01*
X126292000Y-100212000D02*
G75*
G02*
X126104000Y-100400000I-188000J0D01*
G01*
X127420000Y-99990000D02*
G75*
G03*
X127232000Y-100178000I0J-188000D01*
G01*
X126762000Y-100178000D02*
G75*
G03*
X126574000Y-99990000I-188000J0D01*
G01*
X128172000Y-100622000D02*
G75*
G02*
X127984000Y-100810000I-188000J0D01*
G01*
X128360000Y-99990000D02*
G75*
G03*
X128172000Y-100178000I0J-188000D01*
G01*
%TO.N,DDR2_D3*%
X123500000Y-103600000D02*
X122800000Y-103600000D01*
X122300000Y-103100000D02*
X121800000Y-103100000D01*
X121600000Y-103300000D02*
X121200000Y-103300000D01*
X137003000Y-101797000D02*
X137003000Y-103403000D01*
X137100000Y-103500000D02*
X137100000Y-104500000D01*
X130300000Y-104900000D02*
X128700000Y-103300000D01*
X120930000Y-103030000D02*
X120930000Y-102530000D01*
X121200000Y-103300000D02*
X120930000Y-103030000D01*
X137003000Y-103403000D02*
X137100000Y-103500000D01*
X132600000Y-108100000D02*
X130700000Y-108100000D01*
X133800000Y-107800000D02*
X132900000Y-107800000D01*
X120930000Y-102530000D02*
X120500000Y-102100000D01*
X130700000Y-108100000D02*
X130300000Y-107700000D01*
X137100000Y-104500000D02*
X133800000Y-107800000D01*
X130300000Y-107700000D02*
X130300000Y-104900000D01*
X132900000Y-107800000D02*
X132600000Y-108100000D01*
X137200000Y-101600000D02*
X137003000Y-101797000D01*
X121800000Y-103100000D02*
X121600000Y-103300000D01*
X123800000Y-103300000D02*
X123500000Y-103600000D01*
X122800000Y-103600000D02*
X122300000Y-103100000D01*
X128700000Y-103300000D02*
X123800000Y-103300000D01*
%TO.N,DDR_CKP*%
X122707701Y-96744877D02*
X122707701Y-97077701D01*
D16*
X137024568Y-92871500D02*
X137024568Y-93528500D01*
D17*
X123641500Y-94588612D02*
X123641500Y-93958500D01*
D16*
X127123000Y-92423000D02*
X127123000Y-93577000D01*
X134327000Y-93327000D02*
X134909068Y-93327000D01*
X131127000Y-93577000D02*
X131127000Y-92423000D01*
X138684568Y-92871500D02*
X138684568Y-93528500D01*
X125127000Y-92700000D02*
X125127000Y-92423000D01*
D17*
X122707701Y-97077701D02*
X122930000Y-97300000D01*
D16*
X131623000Y-92423000D02*
X131623000Y-93577000D01*
X129627000Y-93577000D02*
X129627000Y-92423000D01*
D17*
X122943701Y-95918877D02*
X123111701Y-95918877D01*
D16*
X136569068Y-93984000D02*
X136396068Y-93984000D01*
X142722999Y-97677001D02*
X142722999Y-94772605D01*
X125623000Y-92423000D02*
X125623000Y-93577000D01*
X138229068Y-93984000D02*
X138056068Y-93984000D01*
X126050000Y-94004000D02*
X126200000Y-94004000D01*
X131300000Y-92250000D02*
X131450000Y-92250000D01*
X130123000Y-92423000D02*
X130123000Y-93577000D01*
X128623000Y-92423000D02*
X128623000Y-93577000D01*
X137399068Y-92670000D02*
X137226068Y-92670000D01*
X129050000Y-94004000D02*
X129200000Y-94004000D01*
X124281131Y-93318981D02*
X124473112Y-93127000D01*
X126800000Y-92250000D02*
X126950000Y-92250000D01*
X127550000Y-94004000D02*
X127700000Y-94004000D01*
X132800000Y-93127000D02*
X134127000Y-93127000D01*
X128127000Y-93577000D02*
X128127000Y-92423000D01*
D17*
X122707701Y-95682877D02*
X122707701Y-95522411D01*
D16*
X137600568Y-93528500D02*
X137600568Y-92871500D01*
X142722999Y-94772605D02*
X141277394Y-93327000D01*
X142500000Y-97900000D02*
X142722999Y-97677001D01*
X139260568Y-93528500D02*
X139260568Y-92871500D01*
X128300000Y-92250000D02*
X128450000Y-92250000D01*
X132050000Y-94004000D02*
X132200000Y-94004000D01*
X134127000Y-93127000D02*
X134327000Y-93327000D01*
X129800000Y-92250000D02*
X129950000Y-92250000D01*
D17*
X124000000Y-93600000D02*
X124000112Y-93600000D01*
D16*
X124473112Y-93127000D02*
X124700000Y-93127000D01*
X139889068Y-93984000D02*
X139716068Y-93984000D01*
X135940568Y-93528500D02*
X135940568Y-92871500D01*
D17*
X124000112Y-93600000D02*
X124281131Y-93318981D01*
D16*
X126627000Y-93577000D02*
X126627000Y-92423000D01*
D17*
X123347701Y-96154877D02*
X123347701Y-96272877D01*
X122707701Y-95522411D02*
X123641500Y-94588612D01*
D16*
X135739068Y-92670000D02*
X135566068Y-92670000D01*
X141277394Y-93327000D02*
X140546068Y-93327000D01*
X130550000Y-94004000D02*
X130700000Y-94004000D01*
X132627000Y-93577000D02*
X132627000Y-93300000D01*
X125300000Y-92250000D02*
X125450000Y-92250000D01*
D17*
X123641500Y-93958500D02*
X124000000Y-93600000D01*
X123111701Y-96508877D02*
X122943701Y-96508877D01*
D16*
X139059068Y-92670000D02*
X138886068Y-92670000D01*
X130700000Y-94004000D02*
G75*
G03*
X131127000Y-93577000I0J427000D01*
G01*
X135364568Y-92871500D02*
G75*
G02*
X134909068Y-93326968I-455468J0D01*
G01*
X125623000Y-93577000D02*
G75*
G03*
X126050000Y-94004000I427000J0D01*
G01*
X129627000Y-92423000D02*
G75*
G02*
X129800000Y-92250000I173000J0D01*
G01*
X132200000Y-94004000D02*
G75*
G03*
X132627000Y-93577000I0J427000D01*
G01*
D17*
X122943701Y-96508877D02*
G75*
G03*
X122707677Y-96744877I-1J-236023D01*
G01*
D16*
X129200000Y-94004000D02*
G75*
G03*
X129627000Y-93577000I0J427000D01*
G01*
X136396068Y-93984000D02*
G75*
G02*
X135940600Y-93528500I32J455500D01*
G01*
X139260568Y-92871500D02*
G75*
G03*
X139059068Y-92670032I-201468J0D01*
G01*
X137226068Y-92670000D02*
G75*
G03*
X137024600Y-92871500I32J-201500D01*
G01*
X131450000Y-92250000D02*
G75*
G02*
X131623000Y-92423000I0J-173000D01*
G01*
X135940568Y-92871500D02*
G75*
G03*
X135739068Y-92670032I-201468J0D01*
G01*
X135566068Y-92670000D02*
G75*
G03*
X135364600Y-92871500I32J-201500D01*
G01*
D17*
X122707701Y-95682877D02*
G75*
G03*
X122943701Y-95918899I235999J-23D01*
G01*
D16*
X140344568Y-93528500D02*
G75*
G02*
X139889068Y-93983968I-455468J0D01*
G01*
X138684568Y-93528500D02*
G75*
G02*
X138229068Y-93983968I-455468J0D01*
G01*
X140546068Y-93327000D02*
G75*
G03*
X140344600Y-93528500I32J-201500D01*
G01*
X131623000Y-93577000D02*
G75*
G03*
X132050000Y-94004000I427000J0D01*
G01*
X137600568Y-92871500D02*
G75*
G03*
X137399068Y-92670032I-201468J0D01*
G01*
X139716068Y-93984000D02*
G75*
G02*
X139260600Y-93528500I32J455500D01*
G01*
X129950000Y-92250000D02*
G75*
G02*
X130123000Y-92423000I0J-173000D01*
G01*
X128127000Y-92423000D02*
G75*
G02*
X128300000Y-92250000I173000J0D01*
G01*
X132627000Y-93300000D02*
G75*
G02*
X132800000Y-93127000I173000J0D01*
G01*
X127123000Y-93577000D02*
G75*
G03*
X127550000Y-94004000I427000J0D01*
G01*
X124700000Y-93127000D02*
G75*
G03*
X125127000Y-92700000I0J427000D01*
G01*
D17*
X123111701Y-95918877D02*
G75*
G02*
X123347723Y-96154877I-1J-236023D01*
G01*
D16*
X128450000Y-92250000D02*
G75*
G02*
X128623000Y-92423000I0J-173000D01*
G01*
X138056068Y-93984000D02*
G75*
G02*
X137600600Y-93528500I32J455500D01*
G01*
X126200000Y-94004000D02*
G75*
G03*
X126627000Y-93577000I0J427000D01*
G01*
X127700000Y-94004000D02*
G75*
G03*
X128127000Y-93577000I0J427000D01*
G01*
X126950000Y-92250000D02*
G75*
G02*
X127123000Y-92423000I0J-173000D01*
G01*
X138886068Y-92670000D02*
G75*
G03*
X138684600Y-92871500I32J-201500D01*
G01*
D17*
X123347701Y-96272877D02*
G75*
G02*
X123111701Y-96508901I-236001J-23D01*
G01*
D16*
X128623000Y-93577000D02*
G75*
G03*
X129050000Y-94004000I427000J0D01*
G01*
X125450000Y-92250000D02*
G75*
G02*
X125623000Y-92423000I0J-173000D01*
G01*
X137024568Y-93528500D02*
G75*
G02*
X136569068Y-93983968I-455468J0D01*
G01*
X131127000Y-92423000D02*
G75*
G02*
X131300000Y-92250000I173000J0D01*
G01*
X126627000Y-92423000D02*
G75*
G02*
X126800000Y-92250000I173000J0D01*
G01*
X130123000Y-93577000D02*
G75*
G03*
X130550000Y-94004000I427000J0D01*
G01*
X125127000Y-92423000D02*
G75*
G02*
X125300000Y-92250000I173000J0D01*
G01*
%TO.N,DDR_CKN*%
X128877000Y-92423000D02*
X128877000Y-93577000D01*
X132800000Y-92873000D02*
X134200000Y-92873000D01*
X125877000Y-92423000D02*
X125877000Y-93577000D01*
D17*
X123358500Y-93841500D02*
X123876578Y-93323422D01*
D16*
X132373000Y-93577000D02*
X132373000Y-93300000D01*
X129373000Y-93577000D02*
X129373000Y-92423000D01*
X127873000Y-93577000D02*
X127873000Y-92423000D01*
X136770568Y-92871500D02*
X136770568Y-93528500D01*
X137854568Y-93528500D02*
X137854568Y-92871500D01*
X124873000Y-92700000D02*
X124873000Y-92423000D01*
X138229068Y-93730000D02*
X138056068Y-93730000D01*
X131877000Y-92423000D02*
X131877000Y-93577000D01*
X134200000Y-92873000D02*
X134400000Y-93073000D01*
X127377000Y-92423000D02*
X127377000Y-93577000D01*
X128300000Y-91996000D02*
X128450000Y-91996000D01*
D17*
X122424699Y-97077701D02*
X122424699Y-95405189D01*
D16*
X130873000Y-93577000D02*
X130873000Y-92423000D01*
X141382606Y-93073000D02*
X140546068Y-93073000D01*
X131300000Y-91996000D02*
X131450000Y-91996000D01*
D17*
X123876578Y-93323422D02*
X123876578Y-93323310D01*
D16*
X138430568Y-92871500D02*
X138430568Y-93528500D01*
X130550000Y-93750000D02*
X130700000Y-93750000D01*
X127550000Y-93750000D02*
X127700000Y-93750000D01*
X142977001Y-94667395D02*
X141382606Y-93073000D01*
X142977001Y-97677001D02*
X142977001Y-94667395D01*
D17*
X123876578Y-93323310D02*
X124081019Y-93118869D01*
D16*
X132050000Y-93750000D02*
X132200000Y-93750000D01*
X136569068Y-93730000D02*
X136396068Y-93730000D01*
D17*
X122424699Y-95405189D02*
X123358500Y-94471388D01*
D16*
X126800000Y-91996000D02*
X126950000Y-91996000D01*
X129800000Y-91996000D02*
X129950000Y-91996000D01*
X124081019Y-93118869D02*
X124326888Y-92873000D01*
X139514568Y-93528500D02*
X139514568Y-92871500D01*
X135739068Y-92416000D02*
X135566068Y-92416000D01*
X143200000Y-97900000D02*
X142977001Y-97677001D01*
X139059068Y-92416000D02*
X138886068Y-92416000D01*
D17*
X123358500Y-94471388D02*
X123358500Y-93841500D01*
D16*
X134400000Y-93073000D02*
X134909068Y-93073000D01*
X126050000Y-93750000D02*
X126200000Y-93750000D01*
X139889068Y-93730000D02*
X139716068Y-93730000D01*
X124326888Y-92873000D02*
X124700000Y-92873000D01*
X130377000Y-92423000D02*
X130377000Y-93577000D01*
X137399068Y-92416000D02*
X137226068Y-92416000D01*
X136194568Y-93528500D02*
X136194568Y-92871500D01*
X126373000Y-93577000D02*
X126373000Y-92423000D01*
X129050000Y-93750000D02*
X129200000Y-93750000D01*
X125300000Y-91996000D02*
X125450000Y-91996000D01*
D17*
X122192798Y-97309602D02*
X122424699Y-97077701D01*
D16*
X132373000Y-93300000D02*
G75*
G02*
X132800000Y-92873000I427000J0D01*
G01*
X126373000Y-92423000D02*
G75*
G02*
X126800000Y-91996000I427000J0D01*
G01*
X139716068Y-93730000D02*
G75*
G02*
X139514600Y-93528500I32J201500D01*
G01*
X136770568Y-93528500D02*
G75*
G02*
X136569068Y-93729968I-201468J0D01*
G01*
X137226068Y-92416000D02*
G75*
G03*
X136770600Y-92871500I32J-455500D01*
G01*
X138430568Y-93528500D02*
G75*
G02*
X138229068Y-93729968I-201468J0D01*
G01*
X131877000Y-93577000D02*
G75*
G03*
X132050000Y-93750000I173000J0D01*
G01*
X135566068Y-92416000D02*
G75*
G03*
X135110600Y-92871500I32J-455500D01*
G01*
X124700000Y-92873000D02*
G75*
G03*
X124873000Y-92700000I0J173000D01*
G01*
X131450000Y-91996000D02*
G75*
G02*
X131877000Y-92423000I0J-427000D01*
G01*
X130873000Y-92423000D02*
G75*
G02*
X131300000Y-91996000I427000J0D01*
G01*
X129950000Y-91996000D02*
G75*
G02*
X130377000Y-92423000I0J-427000D01*
G01*
X129200000Y-93750000D02*
G75*
G03*
X129373000Y-93577000I0J173000D01*
G01*
X136194568Y-92871500D02*
G75*
G03*
X135739068Y-92416032I-455468J0D01*
G01*
X130700000Y-93750000D02*
G75*
G03*
X130873000Y-93577000I0J173000D01*
G01*
X135110568Y-92871500D02*
G75*
G02*
X134909068Y-93072968I-201468J0D01*
G01*
X126950000Y-91996000D02*
G75*
G02*
X127377000Y-92423000I0J-427000D01*
G01*
X138886068Y-92416000D02*
G75*
G03*
X138430600Y-92871500I32J-455500D01*
G01*
X138056068Y-93730000D02*
G75*
G02*
X137854600Y-93528500I32J201500D01*
G01*
X140090568Y-93528500D02*
G75*
G02*
X139889068Y-93729968I-201468J0D01*
G01*
X125877000Y-93577000D02*
G75*
G03*
X126050000Y-93750000I173000J0D01*
G01*
X127873000Y-92423000D02*
G75*
G02*
X128300000Y-91996000I427000J0D01*
G01*
X139514568Y-92871500D02*
G75*
G03*
X139059068Y-92416032I-455468J0D01*
G01*
X136396068Y-93730000D02*
G75*
G02*
X136194600Y-93528500I32J201500D01*
G01*
X127377000Y-93577000D02*
G75*
G03*
X127550000Y-93750000I173000J0D01*
G01*
X129373000Y-92423000D02*
G75*
G02*
X129800000Y-91996000I427000J0D01*
G01*
X137854568Y-92871500D02*
G75*
G03*
X137399068Y-92416032I-455468J0D01*
G01*
X132200000Y-93750000D02*
G75*
G03*
X132373000Y-93577000I0J173000D01*
G01*
X126200000Y-93750000D02*
G75*
G03*
X126373000Y-93577000I0J173000D01*
G01*
X130377000Y-93577000D02*
G75*
G03*
X130550000Y-93750000I173000J0D01*
G01*
X128450000Y-91996000D02*
G75*
G02*
X128877000Y-92423000I0J-427000D01*
G01*
X125450000Y-91996000D02*
G75*
G02*
X125877000Y-92423000I0J-427000D01*
G01*
X128877000Y-93577000D02*
G75*
G03*
X129050000Y-93750000I173000J0D01*
G01*
X140546068Y-93073000D02*
G75*
G03*
X140090600Y-93528500I32J-455500D01*
G01*
X124873000Y-92423000D02*
G75*
G02*
X125300000Y-91996000I427000J0D01*
G01*
X127700000Y-93750000D02*
G75*
G03*
X127873000Y-93577000I0J173000D01*
G01*
%TO.N,DDR0_DQSN*%
X124767000Y-111163000D02*
X124767000Y-109712606D01*
X124668675Y-106241213D02*
X124599944Y-106309944D01*
X135447394Y-113463000D02*
X132767394Y-116143000D01*
X136627394Y-113463000D02*
X135447394Y-113463000D01*
X122640000Y-113290000D02*
X124767000Y-111163000D01*
D17*
X122900000Y-106900000D02*
X123303000Y-106497000D01*
D16*
X136810000Y-112150000D02*
X137113000Y-112453000D01*
X125927000Y-106797394D02*
X125370819Y-106241213D01*
X123433000Y-116143000D02*
X122640000Y-115350000D01*
X124767000Y-109712606D02*
X125927000Y-108552606D01*
X137113000Y-112977394D02*
X136627394Y-113463000D01*
D17*
X123303000Y-106497000D02*
X124412888Y-106497000D01*
D16*
X125927000Y-108552606D02*
X125927000Y-106797394D01*
X132767394Y-116143000D02*
X123433000Y-116143000D01*
D17*
X124412888Y-106497000D02*
X124599944Y-106309944D01*
D16*
X137113000Y-112453000D02*
X137113000Y-112977394D01*
X125370819Y-106241213D02*
X124668675Y-106241213D01*
X122640000Y-115350000D02*
X122640000Y-113290000D01*
%TO.N,DDR0_DQSP*%
X136732606Y-113717000D02*
X137367000Y-113082606D01*
X123315974Y-116397000D02*
X132872606Y-116397000D01*
X132872606Y-116397000D02*
X135552606Y-113717000D01*
X124800056Y-106510056D02*
X125280450Y-106510056D01*
X124513000Y-109607394D02*
X125673000Y-108447394D01*
D17*
X123800000Y-106900000D02*
X124410112Y-106900000D01*
D16*
X124513000Y-109607394D02*
X124513000Y-111027394D01*
X122383000Y-113157394D02*
X122383000Y-115464026D01*
X125280450Y-106510056D02*
X125673000Y-106902606D01*
X135552606Y-113717000D02*
X136732606Y-113717000D01*
X125203000Y-107572135D02*
X125203000Y-107702135D01*
X122383000Y-115464026D02*
X123315974Y-116397000D01*
X124513000Y-111027394D02*
X122383000Y-113157394D01*
X125673000Y-108172135D02*
X125673000Y-108447394D01*
X137367000Y-112323000D02*
X137580000Y-112110000D01*
D17*
X124410112Y-106900000D02*
X124800056Y-106510056D01*
D16*
X125673000Y-106902606D02*
X125673000Y-107102135D01*
X137367000Y-113082606D02*
X137367000Y-112323000D01*
X125673000Y-107102135D02*
G75*
G02*
X125438000Y-107337100I-235000J35D01*
G01*
X125438000Y-107337135D02*
G75*
G03*
X125203035Y-107572135I0J-234965D01*
G01*
X125203000Y-107702135D02*
G75*
G03*
X125438000Y-107937100I235000J35D01*
G01*
X125438000Y-107937135D02*
G75*
G02*
X125672965Y-108172135I0J-234965D01*
G01*
D17*
%TO.N,DDR2_DQSP*%
X130665940Y-99400000D02*
X130497940Y-99400000D01*
X123607202Y-99690398D02*
X124459602Y-99690398D01*
X133371940Y-98886000D02*
X133371940Y-98186000D01*
X128145940Y-98000000D02*
X127977940Y-98000000D01*
X133185940Y-98000000D02*
X133017940Y-98000000D01*
X130011940Y-98914000D02*
X130011940Y-98186000D01*
X126111940Y-98186000D02*
X126111940Y-98214000D01*
X131691940Y-98914000D02*
X131691940Y-98186000D01*
X133371940Y-98914000D02*
X133371940Y-98886000D01*
X127791940Y-98186000D02*
X127791940Y-98914000D01*
X124800000Y-98700000D02*
X125625940Y-98700000D01*
X132345940Y-99400000D02*
X132177940Y-99400000D01*
X134511940Y-98886000D02*
X134511940Y-98914000D01*
X137000000Y-98700000D02*
X134697940Y-98700000D01*
X128331940Y-98914000D02*
X128331940Y-98186000D01*
X124500000Y-99330000D02*
X124500000Y-99000000D01*
X129825940Y-98000000D02*
X129657940Y-98000000D01*
X128985940Y-99400000D02*
X128817940Y-99400000D01*
X132831940Y-98186000D02*
X132831940Y-98914000D01*
X126651940Y-98914000D02*
X126651940Y-98186000D01*
X129471940Y-98186000D02*
X129471940Y-98914000D01*
X137383000Y-98117000D02*
X137383000Y-98317000D01*
X124459602Y-99690398D02*
X124610000Y-99540000D01*
X137383000Y-98317000D02*
X137000000Y-98700000D01*
X127305940Y-99400000D02*
X127137940Y-99400000D01*
X131151940Y-98186000D02*
X131151940Y-98914000D01*
X124610000Y-99440000D02*
X124500000Y-99330000D01*
X124500000Y-99000000D02*
X124800000Y-98700000D01*
X137600000Y-97900000D02*
X137383000Y-98117000D01*
X124610000Y-99540000D02*
X124610000Y-99440000D01*
X131505940Y-98000000D02*
X131337940Y-98000000D01*
X126465940Y-98000000D02*
X126297940Y-98000000D01*
X134025940Y-99400000D02*
X133857940Y-99400000D01*
X131337940Y-98000000D02*
G75*
G03*
X131151900Y-98186000I-40J-186000D01*
G01*
X127791940Y-98914000D02*
G75*
G02*
X127305940Y-99400040I-486040J0D01*
G01*
X128331940Y-98186000D02*
G75*
G03*
X128145940Y-97999960I-186040J0D01*
G01*
X134697940Y-98700000D02*
G75*
G03*
X134511900Y-98886000I-40J-186000D01*
G01*
X131691940Y-98186000D02*
G75*
G03*
X131505940Y-97999960I-186040J0D01*
G01*
X130497940Y-99400000D02*
G75*
G02*
X130011900Y-98914000I-40J486000D01*
G01*
X133017940Y-98000000D02*
G75*
G03*
X132831900Y-98186000I-40J-186000D01*
G01*
X126297940Y-98000000D02*
G75*
G03*
X126111900Y-98186000I-40J-186000D01*
G01*
X127137940Y-99400000D02*
G75*
G02*
X126651900Y-98914000I-40J486000D01*
G01*
X129471940Y-98914000D02*
G75*
G02*
X128985940Y-99400040I-486040J0D01*
G01*
X132831940Y-98914000D02*
G75*
G02*
X132345940Y-99400040I-486040J0D01*
G01*
X131151940Y-98914000D02*
G75*
G02*
X130665940Y-99400040I-486040J0D01*
G01*
X132177940Y-99400000D02*
G75*
G02*
X131691900Y-98914000I-40J486000D01*
G01*
X130011940Y-98186000D02*
G75*
G03*
X129825940Y-97999960I-186040J0D01*
G01*
X129657940Y-98000000D02*
G75*
G03*
X129471900Y-98186000I-40J-186000D01*
G01*
X126651940Y-98186000D02*
G75*
G03*
X126465940Y-97999960I-186040J0D01*
G01*
X134511940Y-98914000D02*
G75*
G02*
X134025940Y-99400040I-486040J0D01*
G01*
X133857940Y-99400000D02*
G75*
G02*
X133371900Y-98914000I-40J486000D01*
G01*
X133371940Y-98186000D02*
G75*
G03*
X133185940Y-97999960I-186040J0D01*
G01*
X128817940Y-99400000D02*
G75*
G02*
X128331900Y-98914000I-40J486000D01*
G01*
X126111940Y-98214000D02*
G75*
G02*
X125625940Y-98700040I-486040J0D01*
G01*
X127977940Y-98000000D02*
G75*
G03*
X127791900Y-98186000I-40J-186000D01*
G01*
%TO.N,DDR2_DQSN*%
X127305940Y-99100000D02*
X127137940Y-99100000D01*
X137100000Y-98100000D02*
X137100000Y-98200000D01*
X129171940Y-98186000D02*
X129171940Y-98914000D01*
X127491940Y-98186000D02*
X127491940Y-98914000D01*
X129825940Y-97700000D02*
X129657940Y-97700000D01*
X126951940Y-98914000D02*
X126951940Y-98186000D01*
X130311940Y-98914000D02*
X130311940Y-98186000D01*
X132345940Y-99100000D02*
X132177940Y-99100000D01*
X126465940Y-97700000D02*
X126297940Y-97700000D01*
X124215841Y-98400000D02*
X122899760Y-99716081D01*
X137100000Y-98200000D02*
X136900000Y-98400000D01*
X133671940Y-98886000D02*
X133671940Y-98186000D01*
X131991940Y-98914000D02*
X131991940Y-98186000D01*
X128145940Y-97700000D02*
X127977940Y-97700000D01*
X125811940Y-98186000D02*
X125811940Y-98214000D01*
X124215841Y-98400000D02*
X125625940Y-98400000D01*
X136800000Y-97800000D02*
X137100000Y-98100000D01*
X131505940Y-97700000D02*
X131337940Y-97700000D01*
X132531940Y-98186000D02*
X132531940Y-98914000D01*
X128985940Y-99100000D02*
X128817940Y-99100000D01*
X134025940Y-99100000D02*
X133857940Y-99100000D01*
X136900000Y-98400000D02*
X134697940Y-98400000D01*
X130851940Y-98186000D02*
X130851940Y-98914000D01*
X128631940Y-98914000D02*
X128631940Y-98186000D01*
X134211940Y-98886000D02*
X134211940Y-98914000D01*
X133671940Y-98914000D02*
X133671940Y-98886000D01*
X130665940Y-99100000D02*
X130497940Y-99100000D01*
X133185940Y-97700000D02*
X133017940Y-97700000D01*
X129171940Y-98914000D02*
G75*
G02*
X128985940Y-99100040I-186040J0D01*
G01*
X133017940Y-97700000D02*
G75*
G03*
X132531900Y-98186000I-40J-486000D01*
G01*
X130851940Y-98914000D02*
G75*
G02*
X130665940Y-99100040I-186040J0D01*
G01*
X130497940Y-99100000D02*
G75*
G02*
X130311900Y-98914000I-40J186000D01*
G01*
X126951940Y-98186000D02*
G75*
G03*
X126465940Y-97699960I-486040J0D01*
G01*
X128817940Y-99100000D02*
G75*
G02*
X128631900Y-98914000I-40J186000D01*
G01*
X128631940Y-98186000D02*
G75*
G03*
X128145940Y-97699960I-486040J0D01*
G01*
X132531940Y-98914000D02*
G75*
G02*
X132345940Y-99100040I-186040J0D01*
G01*
X125811940Y-98214000D02*
G75*
G02*
X125625940Y-98400040I-186040J0D01*
G01*
X127977940Y-97700000D02*
G75*
G03*
X127491900Y-98186000I-40J-486000D01*
G01*
X129657940Y-97700000D02*
G75*
G03*
X129171900Y-98186000I-40J-486000D01*
G01*
X133857940Y-99100000D02*
G75*
G02*
X133671900Y-98914000I-40J186000D01*
G01*
X132177940Y-99100000D02*
G75*
G02*
X131991900Y-98914000I-40J186000D01*
G01*
X127491940Y-98914000D02*
G75*
G02*
X127305940Y-99100040I-186040J0D01*
G01*
X130311940Y-98186000D02*
G75*
G03*
X129825940Y-97699960I-486040J0D01*
G01*
X133671940Y-98186000D02*
G75*
G03*
X133185940Y-97699960I-486040J0D01*
G01*
X126297940Y-97700000D02*
G75*
G03*
X125811900Y-98186000I-40J-486000D01*
G01*
X134697940Y-98400000D02*
G75*
G03*
X134211900Y-98886000I-40J-486000D01*
G01*
X134211940Y-98914000D02*
G75*
G02*
X134025940Y-99100040I-186040J0D01*
G01*
X131991940Y-98186000D02*
G75*
G03*
X131505940Y-97699960I-486040J0D01*
G01*
X127137940Y-99100000D02*
G75*
G02*
X126951900Y-98914000I-40J186000D01*
G01*
X131337940Y-97700000D02*
G75*
G03*
X130851900Y-98186000I-40J-486000D01*
G01*
D16*
%TO.N,DONE*%
X133300000Y-131150000D02*
X126100000Y-123950000D01*
X153100000Y-133500000D02*
X150750000Y-131150000D01*
X158935000Y-134900000D02*
X157535000Y-133500000D01*
X157535000Y-133500000D02*
X153100000Y-133500000D01*
X150750000Y-131150000D02*
X133300000Y-131150000D01*
%TO.N,CFG_1*%
X117800000Y-107300000D02*
X118500000Y-107300000D01*
X122700000Y-123000000D02*
X122700000Y-124000000D01*
X117800000Y-107300000D02*
X117600000Y-107500000D01*
X117600000Y-117900000D02*
X122700000Y-123000000D01*
X117600000Y-107500000D02*
X117600000Y-117900000D01*
X118900000Y-106900000D02*
X118500000Y-107300000D01*
%TO.N,CFG_2*%
X118100000Y-116900000D02*
X123700000Y-122500000D01*
X118100000Y-108500000D02*
X118100000Y-116900000D01*
X123700000Y-122500000D02*
X123700000Y-124000000D01*
X118900000Y-107700000D02*
X118100000Y-108500000D01*
%TO.N,LVDS_D8N*%
X113027001Y-104227001D02*
X113300000Y-104500000D01*
X112652605Y-104227001D02*
X113027001Y-104227001D01*
X99730802Y-112420000D02*
X99930802Y-112420000D01*
X100203802Y-112693000D02*
X100203802Y-113907000D01*
X96200000Y-113700000D02*
X96472999Y-113427001D01*
X101730802Y-113427000D02*
X103452606Y-113427000D01*
X101457802Y-113907000D02*
X101457802Y-113700000D01*
X100730802Y-114434000D02*
X100930802Y-114434000D01*
X98000000Y-113427000D02*
X98930802Y-113427000D01*
X97999999Y-113427001D02*
X98000000Y-113427000D01*
X99457802Y-112900000D02*
X99457802Y-112693000D01*
X96472999Y-113427001D02*
X97999999Y-113427001D01*
X103452606Y-113427000D02*
X112652605Y-104227001D01*
X98930802Y-113427000D02*
G75*
G03*
X99457800Y-112900000I-2J527000D01*
G01*
X99930802Y-112420000D02*
G75*
G02*
X100203800Y-112693000I-2J-273000D01*
G01*
X100203802Y-113907000D02*
G75*
G03*
X100730802Y-114433998I526998J0D01*
G01*
X101457802Y-113700000D02*
G75*
G02*
X101730802Y-113427002I272998J0D01*
G01*
X99457802Y-112693000D02*
G75*
G02*
X99730802Y-112420002I272998J0D01*
G01*
X100930802Y-114434000D02*
G75*
G03*
X101457800Y-113907000I-2J527000D01*
G01*
%TO.N,LVDS_D8P*%
X101203802Y-113907000D02*
X101203802Y-113700000D01*
X100730802Y-114180000D02*
X100930802Y-114180000D01*
X113027001Y-103972999D02*
X113300000Y-103700000D01*
X112547395Y-103972999D02*
X113027001Y-103972999D01*
X98000000Y-113173000D02*
X98930802Y-113173000D01*
X100457802Y-112693000D02*
X100457802Y-113907000D01*
X96200000Y-112900000D02*
X96472999Y-113172999D01*
X103347394Y-113173000D02*
X112547395Y-103972999D01*
X99203802Y-112900000D02*
X99203802Y-112693000D01*
X96472999Y-113172999D02*
X97999999Y-113172999D01*
X97999999Y-113172999D02*
X98000000Y-113173000D01*
X99730802Y-112166000D02*
X99930802Y-112166000D01*
X101730802Y-113173000D02*
X103347394Y-113173000D01*
X98930802Y-113173000D02*
G75*
G03*
X99203800Y-112900000I-2J273000D01*
G01*
X100457802Y-113907000D02*
G75*
G03*
X100730802Y-114179998I272998J0D01*
G01*
X99930802Y-112166000D02*
G75*
G02*
X100457800Y-112693000I-2J-527000D01*
G01*
X100930802Y-114180000D02*
G75*
G03*
X101203800Y-113907000I-2J273000D01*
G01*
X101203802Y-113700000D02*
G75*
G02*
X101730802Y-113173002I526998J0D01*
G01*
X99203802Y-112693000D02*
G75*
G02*
X99730802Y-112166002I526998J0D01*
G01*
%TO.N,LVDS_D4N*%
X104134397Y-100690000D02*
X104338397Y-100690000D01*
X96200000Y-104100000D02*
X96472999Y-103827001D01*
X101813397Y-101192000D02*
X101813397Y-100971000D01*
X106174397Y-101727000D02*
X110152606Y-101727000D01*
X111327001Y-100552605D02*
X111327001Y-100072999D01*
X98573000Y-103827000D02*
X100673000Y-101727000D01*
X102579397Y-100971000D02*
X102579397Y-102229000D01*
X103114397Y-102764000D02*
X103318397Y-102764000D01*
X103853397Y-102229000D02*
X103853397Y-100971000D01*
X110152606Y-101727000D02*
X111327001Y-100552605D01*
X97900000Y-103827000D02*
X98573000Y-103827000D01*
X105893397Y-102229000D02*
X105893397Y-102008000D01*
X104619397Y-100971000D02*
X104619397Y-102229000D01*
X97899999Y-103827001D02*
X97900000Y-103827000D01*
X105154397Y-102764000D02*
X105358397Y-102764000D01*
X102094397Y-100690000D02*
X102298397Y-100690000D01*
X111327001Y-100072999D02*
X111700000Y-99700000D01*
X96472999Y-103827001D02*
X97899999Y-103827001D01*
X100673000Y-101727000D02*
X101278397Y-101727000D01*
X105893397Y-102008000D02*
G75*
G02*
X106174397Y-101726997I281003J0D01*
G01*
X103318397Y-102764000D02*
G75*
G03*
X103853400Y-102229000I3J535000D01*
G01*
X104619397Y-102229000D02*
G75*
G03*
X105154397Y-102764003I535003J0D01*
G01*
X101813397Y-100971000D02*
G75*
G02*
X102094397Y-100689997I281003J0D01*
G01*
X103853397Y-100971000D02*
G75*
G02*
X104134397Y-100689997I281003J0D01*
G01*
X102298397Y-100690000D02*
G75*
G02*
X102579400Y-100971000I3J-281000D01*
G01*
X105358397Y-102764000D02*
G75*
G03*
X105893400Y-102229000I3J535000D01*
G01*
X102579397Y-102229000D02*
G75*
G03*
X103114397Y-102764003I535003J0D01*
G01*
X104338397Y-100690000D02*
G75*
G02*
X104619400Y-100971000I3J-281000D01*
G01*
X101278397Y-101727000D02*
G75*
G03*
X101813400Y-101192000I3J535000D01*
G01*
%TO.N,LVDS_D5N*%
X106552606Y-106227000D02*
X104003487Y-106227000D01*
X103203487Y-107354000D02*
X103003487Y-107354000D01*
X101730487Y-105373000D02*
X101730487Y-105700000D01*
X101003487Y-106227000D02*
X101000000Y-106227000D01*
X102203487Y-105100000D02*
X102003487Y-105100000D01*
X109652606Y-103127000D02*
X106552606Y-106227000D01*
X111952606Y-103127000D02*
X109652606Y-103127000D01*
X102476487Y-106827000D02*
X102476487Y-105373000D01*
X98100000Y-106227000D02*
X98099999Y-106227001D01*
X101000000Y-106227000D02*
X98100000Y-106227000D01*
X101203487Y-106227000D02*
X101003487Y-106227000D01*
X114100000Y-100500000D02*
X113827001Y-100772999D01*
X96472999Y-106227001D02*
X96200000Y-106500000D01*
X113827001Y-100772999D02*
X113827001Y-101252605D01*
X103730487Y-106500000D02*
X103730487Y-106827000D01*
X113827001Y-101252605D02*
X111952606Y-103127000D01*
X98099999Y-106227001D02*
X96472999Y-106227001D01*
X101730487Y-105700000D02*
G75*
G02*
X101203487Y-106226987I-526987J0D01*
G01*
X102003487Y-105100000D02*
G75*
G03*
X101730500Y-105373000I13J-273000D01*
G01*
X102476487Y-105373000D02*
G75*
G03*
X102203487Y-105100013I-272987J0D01*
G01*
X104003487Y-106227000D02*
G75*
G03*
X103730500Y-106500000I13J-273000D01*
G01*
X103730487Y-106827000D02*
G75*
G02*
X103203487Y-107353987I-526987J0D01*
G01*
X103003487Y-107354000D02*
G75*
G02*
X102476500Y-106827000I13J527000D01*
G01*
%TO.N,LVDS_D5P*%
X102730487Y-106827000D02*
X102730487Y-105373000D01*
X96200000Y-105700000D02*
X96472999Y-105972999D01*
X111847394Y-102873000D02*
X110843740Y-102873000D01*
X99200787Y-105973000D02*
X101000000Y-105973000D01*
X101476487Y-105373000D02*
X101476487Y-105700000D01*
X110843740Y-102873000D02*
X110836519Y-102880221D01*
X96472999Y-105972999D02*
X98099999Y-105972999D01*
X113300000Y-100500000D02*
X113572999Y-100772999D01*
X113572999Y-101147395D02*
X111847394Y-102873000D01*
X102203487Y-104846000D02*
X102003487Y-104846000D01*
X103203487Y-107100000D02*
X103003487Y-107100000D01*
X101003487Y-105973000D02*
X101000000Y-105973000D01*
X101203487Y-105973000D02*
X101003487Y-105973000D01*
X106447394Y-105973000D02*
X104003487Y-105973000D01*
X113572999Y-100772999D02*
X113572999Y-101147395D01*
X109554615Y-102880221D02*
X109547394Y-102873000D01*
X110836519Y-102880221D02*
X109554615Y-102880221D01*
X98600787Y-105613000D02*
X98840787Y-105613000D01*
X109547394Y-102873000D02*
X106447394Y-105973000D01*
X103476487Y-106500000D02*
X103476487Y-106827000D01*
X98100000Y-105973000D02*
X98240787Y-105973000D01*
X98099999Y-105972999D02*
X98100000Y-105973000D01*
X99020787Y-105793000D02*
G75*
G03*
X99200787Y-105973013I180013J0D01*
G01*
X101476487Y-105700000D02*
G75*
G02*
X101203487Y-105972987I-272987J0D01*
G01*
X98240787Y-105973000D02*
G75*
G03*
X98420800Y-105793000I13J180000D01*
G01*
X98420787Y-105793000D02*
G75*
G02*
X98600787Y-105612987I180013J0D01*
G01*
X98840787Y-105613000D02*
G75*
G02*
X99020800Y-105793000I13J-180000D01*
G01*
X102003487Y-104846000D02*
G75*
G03*
X101476500Y-105373000I13J-527000D01*
G01*
X103003487Y-107100000D02*
G75*
G02*
X102730500Y-106827000I13J273000D01*
G01*
X104003487Y-105973000D02*
G75*
G03*
X103476500Y-106500000I13J-527000D01*
G01*
X102730487Y-105373000D02*
G75*
G03*
X102203487Y-104846013I-526987J0D01*
G01*
X103476487Y-106827000D02*
G75*
G02*
X103203487Y-107099987I-272987J0D01*
G01*
%TO.N,LVDS_D4P*%
X102833397Y-100971000D02*
X102833397Y-102229000D01*
X106174397Y-101473000D02*
X110047394Y-101473000D01*
X111072999Y-99872999D02*
X110900000Y-99700000D01*
X97459999Y-103132999D02*
X97299999Y-103132999D01*
X102094397Y-100436000D02*
X102298397Y-100436000D01*
X96699999Y-103572999D02*
X96530000Y-103572999D01*
X97900000Y-103573000D02*
X98427000Y-103573000D01*
X96472999Y-103572999D02*
X96200000Y-103300000D01*
X100527000Y-101473000D02*
X98427000Y-103573000D01*
X105154397Y-102510000D02*
X105358397Y-102510000D01*
X110047394Y-101473000D02*
X111072999Y-100447395D01*
X104873397Y-100971000D02*
X104873397Y-102229000D01*
X103599397Y-102229000D02*
X103599397Y-100971000D01*
X104134397Y-100436000D02*
X104338397Y-100436000D01*
X105639397Y-102229000D02*
X105639397Y-102008000D01*
X103114397Y-102510000D02*
X103318397Y-102510000D01*
X96859999Y-103572999D02*
X96699999Y-103572999D01*
X96530000Y-103572999D02*
X96472999Y-103572999D01*
X97900000Y-103573000D02*
X97899999Y-103572999D01*
X111072999Y-100447395D02*
X111072999Y-99872999D01*
X101559397Y-101192000D02*
X101559397Y-100971000D01*
X101278397Y-101473000D02*
X100527000Y-101473000D01*
X101278397Y-101473000D02*
G75*
G03*
X101559400Y-101192000I3J281000D01*
G01*
X97899999Y-103572999D02*
G75*
G02*
X97680001Y-103352999I1J219999D01*
G01*
X105639397Y-102008000D02*
G75*
G02*
X106174397Y-101472997I535003J0D01*
G01*
X97679999Y-103352999D02*
G75*
G03*
X97459999Y-103133001I-219999J-1D01*
G01*
X103599397Y-100971000D02*
G75*
G02*
X104134397Y-100435997I535003J0D01*
G01*
X102833397Y-102229000D02*
G75*
G03*
X103114397Y-102510003I281003J0D01*
G01*
X102298397Y-100436000D02*
G75*
G02*
X102833400Y-100971000I3J-535000D01*
G01*
X97079999Y-103352999D02*
G75*
G02*
X96859999Y-103572999I-219999J-1D01*
G01*
X105358397Y-102510000D02*
G75*
G03*
X105639400Y-102229000I3J281000D01*
G01*
X97299999Y-103132999D02*
G75*
G03*
X97079999Y-103352999I1J-220001D01*
G01*
X103318397Y-102510000D02*
G75*
G03*
X103599400Y-102229000I3J281000D01*
G01*
X104338397Y-100436000D02*
G75*
G02*
X104873400Y-100971000I3J-535000D01*
G01*
X101559397Y-100971000D02*
G75*
G02*
X102094397Y-100435997I535003J0D01*
G01*
X104873397Y-102229000D02*
G75*
G03*
X105154397Y-102510003I281003J0D01*
G01*
%TO.N,LCD_R3*%
X106000000Y-113200000D02*
X106000000Y-112500000D01*
X113700000Y-104900000D02*
X114100000Y-104500000D01*
X113700000Y-105600000D02*
X113700000Y-104900000D01*
X113600000Y-105700000D02*
X113700000Y-105600000D01*
X105900000Y-113300000D02*
X106000000Y-113200000D01*
X110600000Y-107200000D02*
X112100000Y-105700000D01*
X105900000Y-113800000D02*
X105900000Y-113300000D01*
X99800000Y-119900000D02*
X105900000Y-113800000D01*
X106000000Y-112500000D02*
X110600000Y-107900000D01*
X99800000Y-129000000D02*
X99800000Y-119900000D01*
X112100000Y-105700000D02*
X113600000Y-105700000D01*
X110600000Y-107900000D02*
X110600000Y-107200000D01*
X99600000Y-129200000D02*
X99800000Y-129000000D01*
%TO.N,LCD_G1*%
X102600000Y-129300000D02*
X102600000Y-123100000D01*
X106700000Y-119000000D02*
X106700000Y-115500000D01*
X102600000Y-123100000D02*
X106700000Y-119000000D01*
%TO.N,LCD_G0*%
X105600000Y-118500000D02*
X105600000Y-115800000D01*
X102100000Y-130100000D02*
X102100000Y-122000000D01*
X102100000Y-122000000D02*
X105600000Y-118500000D01*
%TO.N,LCD_G5*%
X112900000Y-109000000D02*
X112900000Y-107300000D01*
X111600000Y-117100000D02*
X111600000Y-110300000D01*
X111600000Y-110300000D02*
X112900000Y-109000000D01*
X104600000Y-124100000D02*
X111600000Y-117100000D01*
X104600000Y-130100000D02*
X104600000Y-124100000D01*
X112900000Y-107300000D02*
X112500000Y-106900000D01*
%TO.N,LCD_B5*%
X113000000Y-119200000D02*
X113000000Y-111900000D01*
X108600000Y-133000000D02*
X108600000Y-123600000D01*
X108600000Y-123600000D02*
X113000000Y-119200000D01*
%TO.N,LCD_R5*%
X101400000Y-133200000D02*
X102550000Y-132050000D01*
X102550000Y-132050000D02*
X102550000Y-131150000D01*
X103550000Y-130150000D02*
X103550000Y-123050000D01*
X107650000Y-118950000D02*
X107650000Y-115350000D01*
X102550000Y-131150000D02*
X103550000Y-130150000D01*
X103550000Y-123050000D02*
X107650000Y-118950000D01*
%TO.N,LCD_B7*%
X110000000Y-123300000D02*
X113900000Y-119400000D01*
X110000000Y-130200000D02*
X110000000Y-123300000D01*
X113900000Y-119400000D02*
X113900000Y-110400000D01*
%TO.N,LCD_G4*%
X104100000Y-130800000D02*
X104100000Y-132900000D01*
X111700000Y-108300000D02*
X111300000Y-108300000D01*
X112900000Y-106500000D02*
X112211500Y-106500000D01*
X111300000Y-108300000D02*
X110400000Y-109200000D01*
X112111500Y-106600000D02*
X112111500Y-107888500D01*
X112211500Y-106500000D02*
X112111500Y-106600000D01*
X104000000Y-123400000D02*
X104000000Y-130700000D01*
X110400000Y-117000000D02*
X104000000Y-123400000D01*
X112111500Y-107888500D02*
X111700000Y-108300000D01*
X104000000Y-130700000D02*
X104100000Y-130800000D01*
X113300000Y-106100000D02*
X112900000Y-106500000D01*
X110400000Y-109200000D02*
X110400000Y-117000000D01*
%TO.N,LCD_G6*%
X112100000Y-110700000D02*
X112100000Y-117600000D01*
X105400000Y-124300000D02*
X105400000Y-130600000D01*
X113711500Y-107311500D02*
X113711500Y-109088500D01*
X113711500Y-109088500D02*
X112100000Y-110700000D01*
X113300000Y-106900000D02*
X113711500Y-107311500D01*
X112100000Y-117600000D02*
X105400000Y-124300000D01*
%TD*%
M02*
